<svg width="25" height="22" viewBox="0 0 25 22" fill="none" xmlns="http://www.w3.org/2000/svg">
<g id="Group 3">
<mask id="mask0_0_693" style="mask-type:luminance" maskUnits="userSpaceOnUse" x="0" y="0" width="25" height="22">
<path id="Clip 2" fill-rule="evenodd" clip-rule="evenodd" d="M0.716797 0.731445H24.8349V21.7314H0.716797V0.731445Z" fill="white"/>
</mask>
<g mask="url(#mask0_0_693)">
<path id="Fill 1" fill-rule="evenodd" clip-rule="evenodd" d="M23.9738 14.6648C23.9738 14.79 23.8681 14.8957 23.7429 14.8957H21.1052V12.9665V9.1748H23.7429C23.8681 9.1748 23.9738 9.28051 23.9738 9.40566V14.6648ZM1.57794 14.6648V9.40566C1.57794 9.28051 1.68394 9.1748 1.80909 9.1748H4.44682V12.9665V14.8957H1.80909C1.68394 14.8957 1.57794 14.79 1.57794 14.6648V14.6648ZM12.1214 20.2514C12.1214 20.1286 12.2254 20.0246 12.3486 20.0246H14.216C14.3389 20.0246 14.4429 20.1286 14.4429 20.2514V20.6434C14.4429 20.7663 14.3389 20.8703 14.216 20.8703H12.3486C12.2254 20.8703 12.1214 20.7663 12.1214 20.6434V20.2514ZM23.7429 8.31365H21.0712C20.692 4.06963 17.1169 0.731323 12.776 0.731323C8.43512 0.731323 4.85968 4.06963 4.48053 8.31365H1.80909C1.2068 8.31365 0.716797 8.80365 0.716797 9.40566V14.6648C0.716797 15.2671 1.2068 15.7568 1.80909 15.7568H4.50282C4.66025 16.7486 4.95768 17.602 5.38939 18.2974C5.83225 19.0111 6.42969 19.5809 7.16483 19.9909C8.43912 20.7014 9.98999 20.8523 11.2854 20.8746C11.3917 21.364 11.828 21.7314 12.3486 21.7314H14.216C14.816 21.7314 15.304 21.2434 15.304 20.6434V20.2514C15.304 19.6514 14.816 19.1631 14.216 19.1631H12.3486C11.8303 19.1631 11.396 19.5274 11.2869 20.0131C10.0986 19.992 8.69255 19.8566 7.58426 19.2386C6.28683 18.5151 5.54225 17.2263 5.30796 15.2988V12.9665V9.06051C5.30796 4.94277 8.65798 1.59247 12.776 1.59247C16.8937 1.59247 20.2438 4.94277 20.2438 9.06051V12.9665V15.3263C20.2438 15.5643 20.4366 15.7568 20.6746 15.7568H23.7429C24.3449 15.7568 24.8349 15.2671 24.8349 14.6648V9.40566C24.8349 8.80365 24.3449 8.31365 23.7429 8.31365V8.31365Z" fill="#1D1D1B"/>
</g>
</g>
</svg>
