<svg width="27" height="22" viewBox="0 0 27 22" fill="none" xmlns="http://www.w3.org/2000/svg">
<g id="Group 6">
<path id="Fill 1" fill-rule="evenodd" clip-rule="evenodd" d="M10.4077 12.1727H4.93313C4.70601 12.1727 4.52197 12.3568 4.52197 12.5836C4.52197 12.8107 4.70601 12.9945 4.93313 12.9945H10.4077C10.6345 12.9945 10.8185 12.8107 10.8185 12.5836C10.8185 12.3568 10.6345 12.1727 10.4077 12.1727" fill="#1D1D1B"/>
<g id="Group 5">
<mask id="mask0_0_682" style="mask-type:luminance" maskUnits="userSpaceOnUse" x="0" y="0" width="27" height="22">
<path id="Clip 4" fill-rule="evenodd" clip-rule="evenodd" d="M0.978027 0.731445H26.5735V21.7314H0.978027V0.731445Z" fill="white"/>
</mask>
<g mask="url(#mask0_0_682)">
<path id="Fill 3" fill-rule="evenodd" clip-rule="evenodd" d="M25.7518 14.0136C25.7518 18.3569 22.2469 20.299 20.9294 20.8743C19.8312 20.3933 16.9485 18.8335 16.2573 15.5082C16.2573 15.5074 16.257 15.5069 16.257 15.5061C16.2494 15.4703 16.2429 15.4341 16.2361 15.3981C16.232 15.3771 16.2276 15.3561 16.2238 15.3348C16.2235 15.3346 16.2235 15.334 16.2235 15.3337C16.2232 15.3332 16.2232 15.3329 16.2232 15.3327L16.2221 15.3256C16.2221 15.3256 16.2221 15.3256 16.2219 15.3256V15.3253V15.3247V15.3245C16.2121 15.2708 16.2031 15.2168 16.1946 15.1625V15.1625L16.1913 15.1407V15.1407C16.184 15.0935 16.1774 15.0461 16.1712 14.9984C16.1706 14.9951 16.1703 14.9921 16.1698 14.9888V14.9886L16.1654 14.9564V14.9561V14.9559C16.1594 14.9081 16.154 14.8602 16.1488 14.8119V14.8119L16.1444 14.7705V14.7699V14.7699C16.1401 14.7241 16.136 14.6783 16.1322 14.6322V14.6322L16.1281 14.5831V14.5829C16.1248 14.5387 16.1221 14.494 16.1196 14.4493V14.4493L16.1164 14.3947V14.3945C16.1142 14.3492 16.1125 14.3037 16.1112 14.2579V14.2579V14.2573L16.1104 14.232C16.1101 14.223 16.1095 14.214 16.1095 14.205V14.205V14.2047C16.1079 14.1423 16.1071 14.0793 16.1071 14.016C16.1071 14.0158 16.1068 14.0152 16.1068 14.0149C16.1068 14.0144 16.1071 14.0138 16.1071 14.0136V11.9117C16.7004 11.9084 17.2214 11.8945 17.7367 11.8384H17.737C17.803 11.8313 17.8687 11.8237 17.9338 11.8149V11.8149H17.9341C18.1877 11.7817 18.42 11.7391 18.6441 11.6854C18.7035 11.6712 18.7624 11.656 18.8205 11.6402C18.8423 11.6342 18.8633 11.6276 18.8846 11.6216C18.9206 11.6113 18.9571 11.6012 18.9923 11.5905C19.0495 11.5728 19.1073 11.5537 19.1643 11.5341V11.5341C19.2799 11.494 19.3942 11.4499 19.504 11.4027L19.5043 11.4024C19.5605 11.3784 19.6166 11.3528 19.672 11.3263V11.3263V11.3263C19.8759 11.2293 20.0774 11.1139 20.2707 10.9836V10.9836C20.3032 10.9618 20.3356 10.9395 20.3678 10.9165V10.9165L20.3681 10.9163C20.5625 10.778 20.7506 10.6224 20.9267 10.4536L20.9273 10.453C20.9281 10.4522 20.9286 10.4517 20.9294 10.4511L20.9333 10.4547V10.4547C20.9333 10.4547 20.9335 10.4547 20.9335 10.455H20.9338V10.4552C20.9728 10.4923 21.0118 10.5286 21.051 10.564C21.051 10.564 21.0513 10.5643 21.0516 10.5643C21.0516 10.5646 21.0516 10.5646 21.0516 10.5646L21.0745 10.5853C21.0745 10.5853 21.0748 10.5853 21.0748 10.5856C21.0949 10.6035 21.1157 10.6215 21.1372 10.6401C21.1587 10.6586 21.1811 10.6774 21.2045 10.6968V10.6968L21.24 10.7257C21.24 10.7257 21.24 10.726 21.2403 10.726C21.2883 10.7652 21.3313 10.799 21.3714 10.8293C21.3714 10.8293 21.3714 10.8296 21.3717 10.8296V10.8296L21.3946 10.8465C21.3946 10.8465 21.3946 10.8468 21.3949 10.8468V10.8468C21.433 10.8754 21.4715 10.9032 21.5099 10.9302H21.5102V10.9305L21.5151 10.9337L21.517 10.9351C21.5173 10.9354 21.5175 10.9354 21.5178 10.9356L21.5197 10.937C21.5301 10.9444 21.5405 10.9517 21.5508 10.9588V10.9588V10.9588L21.5511 10.9591H21.5514C21.5936 10.9883 21.6359 11.0163 21.6784 11.0436H21.6787C21.6847 11.0477 21.691 11.0515 21.697 11.0553C21.7027 11.0589 21.7084 11.0624 21.7139 11.066L21.7231 11.0714C21.7231 11.0717 21.7231 11.0717 21.7231 11.0717C21.7578 11.0932 21.7924 11.1142 21.827 11.1347L21.8393 11.1418C21.8485 11.1475 21.8575 11.1529 21.8668 11.1581L21.8671 11.1584H21.8674C21.9093 11.1827 21.9516 11.2058 21.9941 11.2285L21.9944 11.2287H21.9947C22.0124 11.2383 22.0301 11.2475 22.0479 11.2568V11.2568C22.0896 11.2784 22.1316 11.2996 22.1735 11.3198V11.3198V11.3198C23.2821 11.8528 24.5268 11.9065 25.7518 11.912V14.0136ZM1.79979 14.7601V6.02685H21.9415V10.2281C21.9235 10.215 21.9053 10.2022 21.8873 10.1888L21.887 10.1886L21.8676 10.1744C21.8311 10.1469 21.7951 10.118 21.7591 10.0888L21.7291 10.064V10.064C21.6929 10.034 21.6566 10.0032 21.6209 9.97127H21.6206L21.601 9.95328L21.6007 9.953C21.5674 9.92329 21.5345 9.89248 21.5015 9.86112V9.86085L21.5012 9.86058L21.4816 9.84176H21.4813C21.4813 9.84176 21.481 9.84122 21.4807 9.84122C21.4461 9.80741 21.4093 9.7706 21.372 9.73189V9.73189L21.3482 9.70707C21.3482 9.7068 21.348 9.7068 21.348 9.7068C21.3261 9.6839 21.3065 9.6629 21.2883 9.643C21.2771 9.63073 21.2662 9.61901 21.2558 9.60756C21.2493 9.6002 21.2427 9.59311 21.2364 9.58602C21.2359 9.5852 21.2354 9.58465 21.2345 9.58411C21.2299 9.57866 21.2247 9.57375 21.2195 9.56857C21.2152 9.56448 21.2114 9.55984 21.207 9.55575C21.2059 9.55521 21.2051 9.55439 21.2043 9.55385C21.2037 9.55303 21.2029 9.55248 21.2024 9.55166C21.1988 9.54866 21.195 9.54594 21.1912 9.54294C21.186 9.53858 21.1808 9.53367 21.1751 9.52958C21.174 9.52876 21.1729 9.52822 21.1718 9.5274C21.1672 9.52385 21.1623 9.52085 21.1574 9.51758C21.1522 9.51404 21.147 9.51022 21.1413 9.50695C21.1402 9.50613 21.1391 9.50559 21.1377 9.50504C21.1323 9.5015 21.1266 9.49877 21.1206 9.49577C21.1157 9.49304 21.111 9.49032 21.1061 9.48786C21.1048 9.48732 21.1037 9.48677 21.1026 9.48623C21.096 9.48323 21.0892 9.48078 21.0827 9.47805C21.0783 9.47641 21.0737 9.47423 21.0693 9.4726C21.068 9.47205 21.0669 9.47178 21.0658 9.4715C21.0587 9.46905 21.0516 9.46687 21.0445 9.46496C21.0399 9.4636 21.0358 9.46196 21.0314 9.46087C21.0301 9.4606 21.029 9.46033 21.0279 9.46005C21.0205 9.45842 21.0134 9.45705 21.0061 9.45569C21.0017 9.45487 20.9971 9.45351 20.9927 9.45296C20.9916 9.45269 20.9905 9.45269 20.9894 9.45269C20.9892 9.45242 20.9889 9.45242 20.9889 9.45242C20.9818 9.4516 20.975 9.45106 20.9679 9.45024C20.963 9.44997 20.9583 9.44915 20.9534 9.4486C20.9534 9.4486 20.9529 9.44888 20.9529 9.4486C20.9515 9.4486 20.9504 9.44888 20.9491 9.4486C20.9428 9.44833 20.9363 9.4486 20.93 9.4486C20.9232 9.4486 20.9161 9.44833 20.9093 9.4486C20.9035 9.44888 20.8978 9.44969 20.8918 9.45024C20.8845 9.45078 20.8771 9.4516 20.8697 9.45242C20.8643 9.45351 20.8588 9.4546 20.8536 9.45542C20.8476 9.45651 20.8417 9.45733 20.8357 9.45869C20.8343 9.45924 20.8329 9.45978 20.8316 9.46005C20.8313 9.46005 20.831 9.46005 20.8307 9.46005C20.8256 9.46142 20.8201 9.46305 20.8149 9.46469C20.8089 9.46632 20.8032 9.46769 20.7972 9.46987C20.7958 9.47014 20.7945 9.47096 20.7928 9.4715C20.7874 9.47341 20.7817 9.47587 20.7762 9.47805C20.7708 9.48023 20.7653 9.48214 20.7599 9.48459C20.759 9.48486 20.7585 9.48541 20.7577 9.48568C20.7571 9.48596 20.7566 9.48623 20.7563 9.4865C20.75 9.48923 20.744 9.4925 20.738 9.49577C20.7334 9.49822 20.7285 9.50041 20.7236 9.50313C20.7233 9.5034 20.7228 9.50368 20.7225 9.50395C20.722 9.50422 20.7214 9.50477 20.7209 9.50504C20.7143 9.50886 20.7078 9.51322 20.7015 9.51758C20.6966 9.52085 20.6917 9.52385 20.6868 9.5274C20.6805 9.53203 20.6742 9.53721 20.6682 9.54239C20.6642 9.54567 20.6601 9.54839 20.6565 9.55194C20.6557 9.55248 20.6549 9.5533 20.6543 9.55385C20.6494 9.55821 20.6448 9.56312 20.6402 9.56775C20.6347 9.5732 20.629 9.57866 20.6238 9.58438C20.6233 9.58493 20.6227 9.58547 20.6222 9.58602C20.5409 9.67736 20.4569 9.76515 20.3724 9.84694C20.3689 9.84994 20.3656 9.85294 20.3623 9.85621L20.3621 9.85649C20.3621 9.85649 20.3615 9.85676 20.3615 9.85703C20.2132 9.99935 20.0551 10.1305 19.892 10.2464L19.8917 10.2466C19.8653 10.2655 19.8383 10.284 19.8116 10.302V10.302C19.6515 10.4097 19.4858 10.5048 19.3184 10.5845V10.5847H19.3181C19.2726 10.6065 19.2257 10.6275 19.1793 10.6477V10.6477C19.0877 10.687 18.9923 10.7241 18.8957 10.7573L18.8955 10.7576C18.8475 10.7742 18.7987 10.79 18.7502 10.805C18.6545 10.8345 18.5544 10.8617 18.4524 10.8863C18.2564 10.9332 18.0516 10.9705 17.8264 11.0003V11.0003C17.7675 11.0082 17.7081 11.015 17.6484 11.0215V11.0215V11.0215C17.0581 11.0856 16.4414 11.0908 15.6959 11.0908C15.4691 11.0908 15.285 11.2745 15.285 11.5017V14.0163V14.0163V14.0166C15.2853 14.0864 15.2861 14.1559 15.2878 14.2246V14.2249C15.288 14.2382 15.2886 14.2513 15.2891 14.2641L15.29 14.2838V14.2843C15.2916 14.3345 15.2932 14.3847 15.2957 14.4345C15.2957 14.4345 15.2957 14.4348 15.2957 14.4351C15.2962 14.4482 15.297 14.4613 15.2979 14.4744L15.2992 14.4953V14.4956C15.302 14.545 15.305 14.5946 15.3085 14.6437V14.6439V14.6439V14.6439L15.3131 14.6985V14.6985C15.3172 14.7495 15.3216 14.8002 15.3268 14.8503C15.3268 14.8503 15.3268 14.8506 15.3268 14.8509L15.3314 14.8972L15.3317 14.8975V14.8978C15.3374 14.9515 15.3434 15.0049 15.3502 15.0578V15.0578V15.0581C15.3502 15.0584 15.3502 15.0584 15.3502 15.0586V15.0586L15.3546 15.0933C15.3546 15.0935 15.3548 15.0938 15.3548 15.0941V15.0941C15.3584 15.1227 15.3628 15.1505 15.3668 15.1789H2.21858C1.98765 15.1789 1.79979 14.991 1.79979 14.7601V14.7601ZM2.21858 1.55348H21.5227C21.7537 1.55348 21.9415 1.74107 21.9415 1.972V5.20508H1.79979V1.972C1.79979 1.74107 1.98765 1.55348 2.21858 1.55348V1.55348ZM26.1627 11.0908C24.9371 11.0908 23.7745 11.0905 22.7633 10.6821V1.972C22.7633 1.28792 22.2068 0.731445 21.5227 0.731445H2.21858C1.53451 0.731445 0.978027 1.28792 0.978027 1.972V5.61597V14.7601C0.978027 15.4442 1.53451 16.0006 2.21858 16.0006H15.528C15.8737 17.3664 16.5829 18.5875 17.6397 19.6348C18.5042 20.4917 19.6172 21.2254 20.7732 21.7007C20.8231 21.7211 20.8763 21.7315 20.9294 21.7315C20.9826 21.7315 21.0355 21.7211 21.0857 21.7007C21.887 21.3713 23.419 20.6016 24.6757 19.1468C25.935 17.6889 26.5736 15.9617 26.5736 14.0136V11.5017C26.5736 11.2745 26.3895 11.0908 26.1627 11.0908V11.0908Z" fill="#1D1D1B"/>
</g>
</g>
</g>
</svg>
