<svg width="46" height="22" viewBox="0 0 46 22" fill="none" xmlns="http://www.w3.org/2000/svg">
<g id="Group 10">
<path id="Fill 1" fill-rule="evenodd" clip-rule="evenodd" d="M44.0373 16.6859C44.0373 16.9027 43.8608 17.0788 43.6443 17.0788H42.2377C42.1387 16.6802 41.9754 16.3031 41.7488 15.9533C41.7485 15.9529 41.7485 15.9526 41.7481 15.9526L41.7461 15.9492C41.7458 15.9489 41.7458 15.9482 41.7454 15.9479V15.9479H41.7451V15.9475L41.7401 15.9398C41.7401 15.9398 41.7401 15.9398 41.7401 15.9395C41.7397 15.9395 41.7397 15.9391 41.7397 15.9391L41.739 15.9378C41.7387 15.9374 41.7384 15.9374 41.7384 15.9371C41.7114 15.8957 41.6835 15.8553 41.6552 15.8152C41.6549 15.8149 41.6545 15.8149 41.6542 15.8146C41.6542 15.8142 41.6542 15.8139 41.6539 15.8135L41.6424 15.7974H41.6421C41.6145 15.759 41.5862 15.7213 41.5569 15.6839C41.5569 15.6836 41.5566 15.6836 41.5566 15.6836L41.5391 15.661L41.5387 15.6607C41.5104 15.625 41.4815 15.5897 41.4519 15.555L41.4515 15.5546C41.4515 15.5546 41.4515 15.5546 41.4512 15.5543L41.4286 15.5284C41.4286 15.5284 41.4286 15.5284 41.4286 15.528C41.3997 15.495 41.37 15.462 41.3401 15.4301C41.3401 15.4301 41.3401 15.4297 41.3397 15.4297L41.3141 15.4028C41.3141 15.4028 41.3141 15.4025 41.3138 15.4025C41.2838 15.3708 41.2532 15.3395 41.2219 15.3089L41.2216 15.3085C41.2142 15.3015 41.2071 15.2947 41.1997 15.2876L41.1933 15.2816L41.1929 15.2813C41.1616 15.2513 41.1303 15.222 41.0983 15.193C41.098 15.193 41.098 15.193 41.0977 15.1927L41.0973 15.192C41.0906 15.1863 41.0835 15.1802 41.0768 15.1745L41.0721 15.1701C41.0717 15.1701 41.0717 15.1701 41.0717 15.1701L41.0711 15.1695H41.0707C41.0374 15.1398 41.0034 15.1106 40.9687 15.0826C40.9684 15.0819 40.9677 15.0819 40.9674 15.0813C40.967 15.0813 40.9667 15.0809 40.9664 15.0806L40.9512 15.0685C40.9509 15.0685 40.9509 15.0685 40.9509 15.0685C40.8367 14.9766 40.7159 14.8904 40.5916 14.8126C40.5913 14.8122 40.591 14.8119 40.5906 14.8119L40.5859 14.8089C40.5768 14.8028 40.5677 14.7971 40.5583 14.7914V14.791V14.791C40.5583 14.791 40.558 14.7907 40.5576 14.7907C40.5576 14.7907 40.5573 14.7907 40.5573 14.7904C40.5324 14.7752 40.5075 14.7607 40.4822 14.7466L40.4691 14.7389C40.4687 14.7389 40.4687 14.7389 40.4687 14.7389L40.4532 14.7298C40.4378 14.7207 40.4226 14.7119 40.4068 14.7032C40.4068 14.7032 40.4068 14.7032 40.4064 14.7032V14.7028C40.3825 14.69 40.3583 14.6772 40.3341 14.6648L40.3233 14.6594V14.6591L40.3108 14.6527C40.291 14.6426 40.2708 14.6321 40.2509 14.6224L40.2506 14.622V14.622C40.226 14.6099 40.2007 14.5985 40.1755 14.587L40.1708 14.5847C40.1708 14.5847 40.1708 14.5847 40.1704 14.5847C40.1442 14.5722 40.1176 14.5601 40.0906 14.5486V14.5483C40.0903 14.5483 40.0903 14.5483 40.0903 14.5483V14.5483C40.064 14.5368 40.0378 14.5261 40.0112 14.5153H40.0108C39.9826 14.5038 39.9543 14.4924 39.9253 14.4816C39.9253 14.4816 39.9253 14.4816 39.925 14.4816C39.8991 14.4719 39.8728 14.4624 39.8465 14.453C39.8465 14.453 39.8465 14.453 39.8462 14.453C39.8169 14.4426 39.7873 14.4325 39.7577 14.423V14.423C39.7573 14.423 39.7573 14.423 39.7573 14.423C39.7314 14.4146 39.7055 14.4065 39.6795 14.3985H39.6792C39.6792 14.3985 39.6792 14.3985 39.6789 14.3985C39.6479 14.389 39.6163 14.3803 39.5846 14.3715V14.3715C39.5587 14.3648 39.5331 14.3577 39.5075 14.3513C39.4748 14.3432 39.4418 14.3358 39.4092 14.3288H39.4089L39.4035 14.3274C39.3799 14.3224 39.3563 14.3173 39.3328 14.3126H39.3324C39.2977 14.3055 39.2631 14.2995 39.2281 14.2938H39.2277C39.2277 14.2938 39.2277 14.2938 39.2274 14.2938L39.2116 14.2911C39.1924 14.2877 39.1735 14.2843 39.1543 14.2816H39.154C39.1169 14.2762 39.0796 14.2719 39.0422 14.2675L39.0419 14.2672L39.0254 14.2651C39.0085 14.2631 38.9914 14.2611 38.9742 14.2594C38.9742 14.2594 38.9739 14.2594 38.9735 14.2594C38.9308 14.255 38.8873 14.252 38.8439 14.2493V14.2493L38.8318 14.2486C38.8183 14.2476 38.8048 14.2466 38.791 14.2459H38.7904V14.2456C38.6628 14.2395 38.5456 14.2395 38.418 14.2456C38.4177 14.2456 38.4177 14.2459 38.4177 14.2459H38.4173C38.4035 14.2466 38.39 14.2476 38.3762 14.2486L38.3638 14.2493L38.3635 14.2497C38.3207 14.252 38.2783 14.255 38.2358 14.2594C38.2355 14.2594 38.2355 14.2594 38.2352 14.2594C38.2177 14.2611 38.2002 14.2631 38.183 14.2651L38.1665 14.2672H38.1662C38.1284 14.2719 38.0907 14.2762 38.0537 14.2816H38.0534C38.0338 14.2847 38.0146 14.288 37.9955 14.2911L37.98 14.2938V14.2938C37.9453 14.2995 37.9106 14.3055 37.8763 14.3123C37.8759 14.3123 37.8759 14.3123 37.8759 14.3123C37.8537 14.3167 37.8318 14.3214 37.8099 14.3264L37.7998 14.3284C37.7998 14.3284 37.7998 14.3284 37.7995 14.3288C37.7995 14.3288 37.7995 14.3288 37.7992 14.3288C37.7662 14.3358 37.7332 14.3432 37.7005 14.3517H37.7002C37.6746 14.3581 37.649 14.3648 37.6234 14.3715C37.6234 14.3715 37.6234 14.3715 37.6234 14.3719H37.6227C37.5914 14.3803 37.5601 14.389 37.5291 14.3985H37.5288C37.5025 14.4065 37.4763 14.4146 37.4504 14.423C37.45 14.423 37.4497 14.4234 37.4497 14.4234C37.4201 14.4328 37.3911 14.4426 37.3618 14.453H37.3615C37.3352 14.4624 37.309 14.4719 37.283 14.4816H37.2827C37.2537 14.4924 37.2255 14.5038 37.1968 14.5153C37.1968 14.5156 37.1965 14.5156 37.1962 14.5156C37.1702 14.5264 37.144 14.5368 37.1181 14.5483C37.1181 14.5483 37.1181 14.5483 37.1177 14.5483C37.1177 14.5483 37.1177 14.5483 37.1174 14.5483C37.0908 14.5601 37.0642 14.5722 37.0379 14.5843H37.0376V14.5843L37.0285 14.5887C37.0046 14.5995 36.981 14.6106 36.9575 14.622V14.622V14.622C36.9366 14.6325 36.9157 14.6432 36.8948 14.654L36.8837 14.6597V14.6597L36.8709 14.6665C36.848 14.6782 36.8248 14.6904 36.8022 14.7028C36.8019 14.7028 36.8019 14.7028 36.8019 14.7028L36.8016 14.7032H36.8012V14.7032C36.7854 14.7119 36.7699 14.721 36.7548 14.7298L36.7393 14.7389V14.7389H36.7389L36.7235 14.7479C36.6992 14.7617 36.675 14.7759 36.6511 14.7904L36.6507 14.7907C36.6504 14.7907 36.6504 14.7907 36.6504 14.7907L36.6501 14.791C36.6406 14.7968 36.6315 14.8025 36.6225 14.8085L36.6191 14.8109H36.6188V14.8109C36.5245 14.8698 36.4322 14.9335 36.3437 15.0008C36.3336 15.0085 36.3238 15.0166 36.3137 15.0244C36.2949 15.0388 36.276 15.053 36.2578 15.0678C36.2575 15.0681 36.2572 15.0681 36.2572 15.0685C36.2511 15.0728 36.2454 15.0776 36.2396 15.0823C36.2393 15.0823 36.2393 15.0823 36.2393 15.0823C36.2046 15.1109 36.1706 15.1398 36.1373 15.1695H36.137L36.1316 15.1742C36.1245 15.1802 36.1171 15.1866 36.11 15.193L36.1097 15.1934L36.1093 15.1937H36.109V15.194C36.0767 15.2227 36.0454 15.2523 36.0144 15.2819C36.0141 15.2823 36.0141 15.2823 36.0137 15.2826C36.0137 15.2826 36.0134 15.2829 36.0131 15.2833L35.9858 15.3092V15.3092C35.9551 15.3392 35.9255 15.3698 35.8959 15.4008L35.8956 15.4011L35.8945 15.4021L35.8942 15.4025V15.4025L35.8686 15.4291C35.8686 15.4291 35.8683 15.4294 35.8683 15.4297C35.8683 15.4297 35.8679 15.4301 35.8676 15.4304C35.8376 15.4624 35.8084 15.4954 35.7794 15.5284C35.7791 15.5287 35.7787 15.5291 35.7784 15.5294C35.7784 15.5297 35.7781 15.5301 35.7777 15.5304L35.7555 15.556C35.7552 15.5563 35.7552 15.5567 35.7548 15.5567C35.7259 15.5907 35.6976 15.625 35.67 15.66L35.6696 15.6604L35.6511 15.6839L35.6508 15.6843C35.6218 15.7213 35.5935 15.759 35.5659 15.7971C35.5659 15.7974 35.5659 15.7974 35.5659 15.7974C35.5656 15.7977 35.5656 15.7977 35.5656 15.7977L35.5531 15.8156C35.5528 15.8156 35.5528 15.8156 35.5528 15.8156C35.5528 15.8156 35.5528 15.8159 35.5525 15.8159L35.5521 15.8166V15.8169C35.5235 15.857 35.4956 15.8977 35.4683 15.9391C35.4683 15.9395 35.468 15.9398 35.4676 15.9401C35.4676 15.9405 35.4673 15.9408 35.467 15.9412L35.4609 15.9509C35.4606 15.9513 35.4606 15.9513 35.4606 15.9513C35.4602 15.9523 35.4599 15.9526 35.4595 15.9533C35.233 16.3031 35.0693 16.6802 34.9707 17.0788H32.9388V5.24369H37.884C41.2768 5.24369 44.0373 8.00382 44.0373 11.3969V16.6859ZM38.6042 20.7167C37.0985 20.7167 35.8737 19.4918 35.8737 17.9862C35.8737 17.8774 35.8807 17.7667 35.8952 17.6485V17.6485C35.9461 17.2364 36.0868 16.8502 36.3134 16.5014C36.3137 16.5007 36.3141 16.5004 36.3144 16.4997C36.3144 16.4994 36.3147 16.4994 36.3151 16.4987V16.4987C36.3154 16.4984 36.3157 16.4977 36.3161 16.497C36.3164 16.4963 36.3171 16.4957 36.3178 16.4947C36.3376 16.4644 36.3582 16.4344 36.379 16.4048C36.3794 16.4048 36.3794 16.4044 36.3797 16.4044C36.3797 16.4041 36.3797 16.4041 36.3797 16.4041L36.3891 16.3906C36.4093 16.363 36.4299 16.3357 36.4507 16.3088V16.3088C36.4507 16.3088 36.4507 16.3085 36.4511 16.3085L36.4649 16.291V16.2906C36.4854 16.265 36.5063 16.2395 36.5275 16.2145C36.5275 16.2145 36.5275 16.2145 36.5278 16.2145C36.5278 16.2142 36.5282 16.2142 36.5282 16.2139L36.5423 16.1977L36.5443 16.195C36.5447 16.195 36.5447 16.195 36.5447 16.195C36.5447 16.1947 36.545 16.1947 36.545 16.1947C36.5662 16.1704 36.5874 16.1462 36.6097 16.1226L36.6278 16.1038C36.6278 16.1038 36.6282 16.1034 36.6282 16.1031C36.6285 16.1028 36.6289 16.1028 36.6289 16.1024C36.6507 16.0795 36.673 16.0566 36.6955 16.0347L36.7161 16.0152V16.0152C36.7393 15.993 36.7622 15.9711 36.7861 15.9499V15.9499L36.7864 15.9496L36.8056 15.9331V15.9327C36.8305 15.9112 36.8551 15.89 36.8804 15.8691L36.8932 15.859C36.9349 15.8253 36.978 15.793 37.0221 15.7614C37.0662 15.7301 37.1113 15.7001 37.1571 15.6711L37.181 15.656C37.1965 15.6466 37.2123 15.6375 37.2282 15.6284L37.2453 15.6183C37.2457 15.6183 37.2457 15.6183 37.2457 15.6183L37.2662 15.6065C37.2743 15.6018 37.2824 15.5971 37.2904 15.5923V15.5923C37.2908 15.5923 37.2908 15.5923 37.2908 15.5923C37.3056 15.5839 37.3207 15.5762 37.3359 15.5684L37.3507 15.5607H37.351C37.351 15.5607 37.351 15.5607 37.3514 15.5607L37.3635 15.5543C37.377 15.5472 37.3908 15.5402 37.4046 15.5334C37.4204 15.5253 37.4369 15.5179 37.4534 15.5102L37.4628 15.5062V15.5058C37.4823 15.4971 37.5015 15.488 37.5214 15.4796C37.5403 15.4715 37.5594 15.4637 37.5783 15.4557C37.5786 15.4557 37.579 15.4557 37.579 15.4557C37.5992 15.4472 37.6197 15.4392 37.6403 15.4314C37.6403 15.4314 37.6403 15.4314 37.6406 15.4314V15.4314C37.6594 15.4243 37.6786 15.4173 37.6978 15.4105V15.4105C37.6982 15.4105 37.6982 15.4105 37.6982 15.4105C37.7197 15.4028 37.7409 15.3957 37.7628 15.3887V15.3887L37.7635 15.3883C37.7823 15.3823 37.8012 15.3765 37.82 15.3708V15.3708C37.8429 15.3637 37.8658 15.3573 37.8891 15.3513V15.3513C37.9076 15.3462 37.9261 15.3412 37.9446 15.3365V15.3365C37.945 15.3365 37.945 15.3365 37.945 15.3365C37.9689 15.3307 37.9924 15.3254 38.0163 15.32L38.0274 15.3176C38.0423 15.3142 38.0571 15.3112 38.0722 15.3082V15.3082C38.0975 15.3031 38.1227 15.2988 38.148 15.2947L38.1483 15.2944L38.1662 15.2917C38.1779 15.2897 38.1901 15.2873 38.2018 15.2856V15.2856H38.2022C38.2291 15.2816 38.2567 15.2786 38.284 15.2752C38.284 15.2752 38.284 15.2752 38.2843 15.2752L38.3076 15.2725C38.3163 15.2715 38.3247 15.2701 38.3335 15.2695C38.3335 15.2695 38.3335 15.2695 38.3338 15.2695V15.2695C38.3651 15.2664 38.3964 15.2644 38.4278 15.2624H38.4281L38.4682 15.2594H38.4685C38.5618 15.2547 38.6463 15.2547 38.7399 15.2594V15.2594L38.7799 15.2624H38.7803V15.2624C38.8119 15.2644 38.8432 15.2664 38.8742 15.2695H38.8745V15.2695C38.8833 15.2701 38.892 15.2715 38.9005 15.2725L38.9244 15.2752V15.2752C38.9516 15.2786 38.9789 15.2816 39.0062 15.2856V15.2856V15.2856C39.018 15.2873 39.0294 15.2893 39.0409 15.2914L39.0594 15.2944H39.0597C39.0853 15.2988 39.1106 15.3031 39.1358 15.3082C39.1358 15.3082 39.1358 15.3082 39.1361 15.3082C39.1526 15.3116 39.1691 15.3149 39.1853 15.3186L39.191 15.32V15.32H39.1914C39.2153 15.3254 39.2395 15.3307 39.2634 15.3365C39.2823 15.3412 39.3008 15.3462 39.3196 15.3513V15.3513C39.3425 15.3577 39.3654 15.3641 39.388 15.3708C39.4072 15.3765 39.426 15.3823 39.4449 15.3883C39.4668 15.3954 39.4883 15.4028 39.5099 15.4105H39.5102H39.5105C39.5297 15.4173 39.5486 15.4243 39.5678 15.4314V15.4314C39.5886 15.4392 39.6092 15.4476 39.6294 15.4557H39.6297C39.6489 15.4637 39.6681 15.4715 39.687 15.4796H39.6873V15.4796C39.7065 15.488 39.7257 15.4971 39.7449 15.5058C39.7449 15.5058 39.7452 15.5058 39.7455 15.5062C39.7455 15.5062 39.7455 15.5062 39.7459 15.5062L39.7519 15.5092C39.7694 15.5169 39.7866 15.525 39.8038 15.5334C39.8169 15.5398 39.8297 15.5466 39.8425 15.5533L39.8573 15.5607V15.5607L39.8577 15.561L39.8691 15.5671C39.8853 15.5752 39.9018 15.5836 39.9176 15.5923C39.9257 15.5971 39.9337 15.6018 39.9418 15.6065L39.963 15.6186C39.963 15.6186 39.963 15.6186 39.9634 15.6186L39.9779 15.627C39.9943 15.6365 40.0108 15.6459 40.0273 15.656L40.0482 15.6694C40.0486 15.6698 40.0489 15.6698 40.0492 15.6701C40.0496 15.6705 40.0499 15.6705 40.0502 15.6708C40.1422 15.7284 40.2314 15.7917 40.3155 15.8597C40.3159 15.86 40.3162 15.86 40.3162 15.8603L40.328 15.8694C40.3533 15.89 40.3778 15.9115 40.4024 15.9327C40.4024 15.9327 40.4027 15.9331 40.4031 15.9334C40.4031 15.9334 40.4031 15.9337 40.4034 15.9337L40.4226 15.9502C40.4462 15.9715 40.4691 15.993 40.4916 16.0149C40.492 16.0152 40.4923 16.0152 40.4923 16.0156C40.4926 16.0156 40.4926 16.0159 40.493 16.0162L40.5118 16.0341V16.0341C40.5122 16.0344 40.5122 16.0344 40.5125 16.0344C40.5354 16.057 40.5576 16.0799 40.5795 16.1031H40.5798V16.1034L40.598 16.1223C40.5984 16.1223 40.5984 16.1226 40.5984 16.1226C40.6206 16.1465 40.6425 16.1708 40.6637 16.1953V16.1953H40.664L40.6802 16.2142V16.2142C40.7017 16.2395 40.7229 16.265 40.7435 16.291L40.7438 16.2913L40.7566 16.3078C40.7569 16.3081 40.7569 16.3081 40.7569 16.3085C40.7785 16.3357 40.799 16.3634 40.8196 16.3913V16.3913V16.3916L40.8283 16.4038C40.8283 16.4041 40.8283 16.4041 40.8287 16.4041C40.8499 16.4341 40.8704 16.464 40.8903 16.4947C40.8906 16.495 40.8906 16.495 40.8909 16.4953C40.8913 16.496 40.8919 16.4967 40.8926 16.4977C40.8933 16.4987 40.8936 16.4997 40.8943 16.5007C41.1212 16.8499 41.262 17.236 41.3128 17.6485V17.6485C41.3273 17.767 41.3344 17.8774 41.3344 17.9862C41.3344 19.4918 40.1095 20.7167 38.6042 20.7167V20.7167ZM20.9219 20.7167C19.4165 20.7167 18.1917 19.4918 18.1917 17.9862C18.1917 17.8767 18.1988 17.766 18.2132 17.6478V17.6478C18.2604 17.2677 18.3846 16.9105 18.5812 16.5832C18.5977 16.5559 18.6139 16.5283 18.6314 16.5014C18.6314 16.5014 18.6314 16.5011 18.6317 16.5007C18.6331 16.4987 18.6344 16.4967 18.6354 16.495V16.495V16.4947C18.6553 16.4644 18.6758 16.4344 18.6971 16.4048C18.6974 16.4048 18.6974 16.4044 18.6974 16.4044C18.6977 16.4041 18.6977 16.4041 18.6977 16.4041L18.7072 16.391C18.727 16.363 18.7479 16.3354 18.7691 16.3085V16.3081V16.3081L18.7829 16.2906C18.8034 16.265 18.8243 16.2395 18.8455 16.2145V16.2145L18.8459 16.2142L18.862 16.1957L18.8624 16.195C18.8624 16.195 18.8627 16.195 18.8627 16.1947C18.8839 16.1704 18.9055 16.1465 18.9273 16.123L18.9462 16.1031V16.1031H18.9465C18.9684 16.0799 18.9906 16.057 19.0135 16.0347V16.0347L19.0337 16.0152V16.0152H19.0341C19.057 15.9933 19.0799 15.9715 19.1034 15.9502V15.9502L19.123 15.9334H19.1233C19.1475 15.9119 19.1721 15.8906 19.1974 15.8701L19.2098 15.8603V15.86C19.2102 15.86 19.2102 15.86 19.2102 15.86C19.2526 15.8257 19.296 15.793 19.3405 15.7614C19.3849 15.7297 19.4307 15.6991 19.4772 15.6698C19.4775 15.6698 19.4775 15.6694 19.4778 15.6694L19.4977 15.6567C19.4977 15.6567 19.4977 15.6567 19.498 15.6567C19.498 15.6567 19.498 15.6563 19.4984 15.6563C19.5145 15.6462 19.531 15.6368 19.5479 15.6274L19.5637 15.6183V15.6183L19.5839 15.6065C19.592 15.6018 19.6 15.5971 19.6085 15.5923V15.5923C19.6233 15.5843 19.6384 15.5765 19.6532 15.5688L19.6687 15.561V15.561L19.6859 15.5519C19.6977 15.5459 19.7095 15.5395 19.7212 15.5338C19.7216 15.5338 19.7216 15.5334 19.7219 15.5334C19.7223 15.5334 19.7223 15.5334 19.7226 15.5331C19.7388 15.5253 19.7553 15.5176 19.7718 15.5102L19.7808 15.5058C19.7822 15.5051 19.7835 15.5045 19.7852 15.5038V15.5038C19.8031 15.4957 19.8206 15.4876 19.8388 15.4799L19.8391 15.4796V15.4796C19.8583 15.4715 19.8771 15.4634 19.8967 15.4557C19.9172 15.4476 19.9377 15.4392 19.9583 15.4314H19.9586C19.9775 15.424 19.9967 15.4173 20.0158 15.4105C20.0158 15.4105 20.0158 15.4105 20.0162 15.4105C20.0374 15.4028 20.0589 15.3957 20.0808 15.3887C20.1 15.3823 20.1189 15.3765 20.1384 15.3708C20.1384 15.3708 20.1384 15.3705 20.1387 15.3705C20.161 15.3637 20.1835 15.3577 20.2061 15.3513C20.2249 15.3462 20.2438 15.3412 20.263 15.3365C20.2869 15.3307 20.3108 15.3254 20.335 15.32V15.32L20.3424 15.3183C20.3583 15.3149 20.3741 15.3112 20.3899 15.3082V15.3082H20.3902C20.4152 15.3031 20.4407 15.2988 20.466 15.2947L20.4852 15.2914C20.4966 15.2893 20.5084 15.2873 20.5202 15.2856C20.5471 15.2816 20.5741 15.2786 20.6013 15.2755L20.6259 15.2725C20.6343 15.2715 20.6428 15.2701 20.6512 15.2695C20.6515 15.2695 20.6515 15.2695 20.6515 15.2695C20.6518 15.2695 20.6518 15.2695 20.6518 15.2695C20.6832 15.2664 20.7141 15.2644 20.7458 15.2624L20.7862 15.2594C20.8794 15.2547 20.9643 15.2547 21.0575 15.2594V15.2594L21.0969 15.2621H21.0976C21.0979 15.2624 21.0979 15.2624 21.0983 15.2624C21.1296 15.2644 21.1612 15.2664 21.1922 15.2695H21.1926V15.2695C21.2013 15.2701 21.2097 15.2715 21.2185 15.2725L21.2421 15.2752V15.2752V15.2752C21.2697 15.2786 21.2969 15.2816 21.3242 15.2856V15.2856V15.2856C21.336 15.2873 21.3474 15.2893 21.3589 15.2914L21.3774 15.2944H21.3777C21.403 15.2988 21.4286 15.3031 21.4538 15.3082V15.3082H21.4542C21.4707 15.3116 21.4872 15.3149 21.5033 15.3186L21.5087 15.32H21.509V15.32C21.5333 15.3254 21.5572 15.3307 21.5811 15.3365H21.5814V15.3365C21.6003 15.3412 21.6188 15.3462 21.6377 15.3513V15.3513C21.6605 15.3577 21.6834 15.3641 21.7063 15.3708V15.3708C21.7252 15.3765 21.744 15.3823 21.7626 15.3883H21.7629C21.7844 15.3954 21.8063 15.4028 21.8275 15.4102C21.8279 15.4105 21.8279 15.4105 21.8282 15.4105L21.8286 15.4109C21.8477 15.4173 21.8666 15.424 21.8851 15.4311L21.8855 15.4314C21.9063 15.4392 21.9265 15.4472 21.9471 15.4557H21.9474C21.9666 15.4637 21.9858 15.4715 22.005 15.4796V15.4796C22.005 15.4796 22.005 15.4796 22.0053 15.4796C22.0245 15.488 22.0437 15.4971 22.0629 15.5058H22.0632V15.5062L22.0716 15.5099C22.0881 15.5176 22.105 15.5253 22.1215 15.5331V15.5334C22.1346 15.5398 22.1474 15.5466 22.1605 15.553L22.175 15.5607C22.1753 15.5607 22.1753 15.5607 22.1753 15.5607L22.1908 15.5688C22.2056 15.5765 22.2208 15.5843 22.2353 15.5923H22.2356V15.5923C22.244 15.5971 22.2518 15.6018 22.2598 15.6065L22.2807 15.6186V15.6186L22.2969 15.6277C22.313 15.6371 22.3292 15.6462 22.345 15.656L22.3679 15.6705V15.6705C22.4602 15.7284 22.5494 15.792 22.6336 15.86C22.6339 15.86 22.6342 15.8603 22.6346 15.8603L22.646 15.8698C22.6716 15.8903 22.6962 15.9119 22.7208 15.9334C22.7208 15.9334 22.7208 15.9334 22.7211 15.9334L22.7403 15.9502H22.7406C22.7642 15.9715 22.7871 15.9933 22.81 16.0152L22.8309 16.0351C22.8534 16.057 22.8753 16.0799 22.8972 16.1028H22.8975L22.9171 16.1233C22.9389 16.1469 22.9605 16.1708 22.9817 16.195C22.9824 16.196 22.983 16.1967 22.9837 16.1974V16.1974L22.9975 16.2135C22.9975 16.2135 22.9979 16.2139 22.9979 16.2142C22.9982 16.2142 22.9982 16.2145 22.9985 16.2145C23.0197 16.2395 23.0406 16.2647 23.0608 16.2906L23.0746 16.3078V16.3081L23.075 16.3085C23.0965 16.3357 23.117 16.3634 23.1376 16.3916V16.3916L23.145 16.4024C23.1453 16.4027 23.1457 16.4027 23.1457 16.4031C23.146 16.4038 23.1463 16.4041 23.1467 16.4044C23.1675 16.4341 23.1881 16.4637 23.2079 16.494C23.2093 16.496 23.2106 16.4984 23.212 16.5004C23.2123 16.5007 23.2123 16.5011 23.2123 16.5011C23.2295 16.527 23.2446 16.5536 23.2608 16.5798C23.4308 16.862 23.5473 17.167 23.6062 17.4896C23.6157 17.5421 23.6241 17.5949 23.6305 17.6481V17.6481C23.6453 17.7663 23.6524 17.8771 23.6524 17.9862C23.6524 19.4918 22.4275 20.7167 20.9219 20.7167V20.7167ZM14.878 16.6859V2.13946C14.878 1.92263 15.0545 1.74621 15.271 1.74621H31.5308C31.7476 1.74621 31.924 1.92263 31.924 2.13946V4.7363V17.0788H24.5554C24.4564 16.6785 24.2921 16.3001 24.0641 15.9489H24.0638C24.0638 15.9486 24.0635 15.9482 24.0635 15.9482V15.9479C24.0614 15.9452 24.0594 15.9422 24.0577 15.9395V15.9395V15.9391C24.0574 15.9388 24.0567 15.9381 24.0567 15.9374C24.0564 15.9371 24.0561 15.9371 24.0561 15.9368C24.0298 15.8967 24.0029 15.8577 23.9753 15.8186C23.9753 15.8186 23.9749 15.8183 23.9749 15.8179L23.9736 15.8162C23.9736 15.8159 23.9732 15.8159 23.9732 15.8156H23.9729L23.9611 15.7987C23.9611 15.7984 23.9608 15.7984 23.9608 15.7981C23.9604 15.7977 23.9601 15.7974 23.9601 15.7971C23.9322 15.7587 23.9039 15.721 23.8749 15.6839L23.8746 15.6836L23.8574 15.6617C23.8574 15.6614 23.8571 15.661 23.8567 15.661C23.8567 15.6607 23.8564 15.6607 23.8564 15.6604C23.8288 15.6253 23.8002 15.591 23.7712 15.557C23.7709 15.5567 23.7705 15.5563 23.7705 15.556L23.7493 15.5314V15.5317C23.7483 15.5307 23.7477 15.5297 23.747 15.5287C23.7177 15.495 23.6881 15.462 23.6578 15.4297V15.4297L23.6574 15.4294L23.6322 15.4028V15.4028C23.6322 15.4025 23.6318 15.4025 23.6318 15.4025C23.6019 15.3708 23.5712 15.3395 23.5399 15.3089C23.5399 15.3089 23.5399 15.3089 23.5396 15.3089C23.5396 15.3089 23.5396 15.3085 23.5392 15.3085L23.5126 15.2829C23.5123 15.2826 23.5123 15.2826 23.5123 15.2826V15.2826C23.4807 15.2523 23.4487 15.2223 23.416 15.193L23.4157 15.1927L23.3901 15.1705C23.3901 15.1705 23.3901 15.1705 23.3898 15.1701C23.3898 15.1701 23.3898 15.1701 23.3894 15.1698C23.3568 15.1412 23.3241 15.1129 23.2904 15.0856C23.2898 15.085 23.2894 15.0846 23.2888 15.084C23.2881 15.0836 23.2874 15.0829 23.2867 15.0826C23.2867 15.0826 23.2864 15.0823 23.2861 15.0819C23.2861 15.0819 23.2857 15.0819 23.2857 15.0816C23.2803 15.0776 23.2753 15.0732 23.2689 15.0685C23.2686 15.0681 23.2682 15.0681 23.2682 15.0678C23.1534 14.9755 23.0322 14.889 22.9073 14.8109C22.907 14.8109 22.907 14.8109 22.907 14.8109L22.9022 14.8075C22.8938 14.8021 22.8854 14.7968 22.877 14.7914C22.8767 14.7914 22.8763 14.7914 22.8763 14.791C22.876 14.791 22.876 14.791 22.876 14.791C22.8514 14.7759 22.8265 14.7617 22.8016 14.7473L22.7868 14.7389V14.7389C22.7864 14.7389 22.7864 14.7385 22.7864 14.7385L22.7716 14.7298C22.7561 14.721 22.741 14.7123 22.7251 14.7035L22.7248 14.7032C22.7023 14.6907 22.6794 14.6789 22.6565 14.6671L22.642 14.6597V14.6597L22.6416 14.6594L22.6285 14.6527C22.6087 14.6422 22.5888 14.6321 22.5686 14.6224C22.5686 14.622 22.5682 14.622 22.5682 14.622V14.622C22.544 14.6102 22.5198 14.5991 22.4955 14.5877L22.4885 14.5847V14.5847V14.5843H22.4878V14.5843C22.4615 14.5722 22.4353 14.5601 22.4087 14.5486C22.4087 14.5486 22.4087 14.5483 22.4083 14.5483C22.4083 14.5483 22.4083 14.5483 22.408 14.5483C22.3821 14.5372 22.3558 14.5264 22.3295 14.5156C22.3295 14.5156 22.3292 14.5156 22.3292 14.5153C22.3009 14.5038 22.2723 14.4927 22.2437 14.4816H22.2433C22.2178 14.4719 22.1918 14.4624 22.1656 14.4537C22.1656 14.4537 22.1656 14.4533 22.1652 14.4533C22.1652 14.4533 22.1649 14.4533 22.1646 14.453H22.1642C22.1642 14.453 22.1642 14.453 22.1639 14.453C22.1346 14.4426 22.105 14.4325 22.0753 14.4227C22.075 14.4227 22.075 14.4227 22.075 14.4227C22.0491 14.4143 22.0232 14.4062 21.9972 14.3985C21.9972 14.3985 21.9972 14.3985 21.9969 14.3985C21.9969 14.3985 21.9969 14.3985 21.9966 14.3985C21.9656 14.389 21.9343 14.3803 21.9026 14.3715C21.9026 14.3715 21.9026 14.3715 21.9023 14.3715C21.877 14.3648 21.8514 14.3581 21.8255 14.3517C21.8255 14.3517 21.8255 14.3517 21.8252 14.3513C21.7929 14.3432 21.7599 14.3358 21.7269 14.3288V14.3288L21.7215 14.3274C21.6983 14.3224 21.6747 14.3173 21.6508 14.3126H21.6504C21.6158 14.3055 21.5811 14.2995 21.5461 14.2938H21.5457H21.5454L21.5296 14.2911C21.5104 14.2877 21.4912 14.2843 21.4723 14.2816H21.472C21.435 14.2762 21.3976 14.2719 21.3602 14.2675H21.3599L21.3434 14.2655C21.3262 14.2631 21.3091 14.2611 21.2919 14.2594H21.2915C21.2491 14.2554 21.2064 14.2523 21.1636 14.2497C21.1633 14.2497 21.1633 14.2497 21.1629 14.2497L21.1505 14.2486C21.1367 14.2476 21.1229 14.2466 21.1091 14.2459H21.1084C21.1084 14.2459 21.1084 14.2456 21.1081 14.2456C20.9798 14.2396 20.8643 14.2396 20.7357 14.2456V14.2459H20.735C20.7215 14.2466 20.7077 14.2476 20.6939 14.2486L20.6818 14.2497C20.639 14.252 20.5963 14.255 20.5539 14.2594H20.5532C20.5529 14.2594 20.5529 14.2594 20.5529 14.2594H20.5525H20.5522C20.535 14.2611 20.5182 14.2631 20.501 14.2651L20.4842 14.2672C20.4468 14.2715 20.4091 14.2762 20.3721 14.2816H20.3717V14.2816C20.3525 14.2847 20.3333 14.2877 20.3141 14.2911L20.298 14.2938V14.2938H20.2977C20.263 14.2995 20.2283 14.3055 20.194 14.3123L20.1936 14.3126C20.1707 14.317 20.1478 14.322 20.1249 14.3271L20.1175 14.3288H20.1172C20.1172 14.3288 20.1172 14.3288 20.1169 14.3288C20.0842 14.3358 20.0512 14.3432 20.0189 14.3513C19.993 14.3577 19.9674 14.3648 19.9418 14.3715C19.9414 14.3715 19.9411 14.3719 19.9408 14.3719H19.9404C19.9091 14.3803 19.8785 14.389 19.8475 14.3985H19.8472C19.8209 14.4062 19.7946 14.4146 19.7687 14.4227V14.423V14.423C19.7388 14.4325 19.7088 14.4426 19.6792 14.453C19.6792 14.453 19.6792 14.453 19.6788 14.4533C19.6526 14.4624 19.6263 14.4719 19.6 14.482V14.482C19.5718 14.4924 19.5438 14.5038 19.5159 14.515C19.5155 14.515 19.5155 14.515 19.5155 14.515V14.5153C19.4889 14.5261 19.4623 14.5368 19.4361 14.548C19.4361 14.548 19.4361 14.5483 19.4357 14.5483L19.4354 14.5486V14.5486V14.5486C19.4102 14.5594 19.3852 14.5708 19.3603 14.5823V14.5826C19.359 14.5833 19.3576 14.5836 19.3563 14.5843L19.3475 14.5884C19.3236 14.5991 19.2997 14.6102 19.2762 14.6217V14.6217L19.2758 14.622C19.2755 14.622 19.2751 14.6224 19.2751 14.6224C19.2748 14.6224 19.2745 14.6227 19.2741 14.6227C19.2553 14.6321 19.2364 14.6419 19.2176 14.6517L19.2031 14.6591C19.2028 14.6591 19.2028 14.6594 19.2024 14.6594C19.2024 14.6594 19.2024 14.6594 19.2021 14.6594L19.1879 14.6671C19.165 14.6786 19.1425 14.6907 19.1199 14.7028L19.1196 14.7032C19.1038 14.7119 19.0879 14.721 19.0725 14.7301L19.0576 14.7385V14.7385L19.0432 14.7469C19.0183 14.7611 18.9933 14.7756 18.9688 14.7907C18.9684 14.7907 18.9684 14.7907 18.9684 14.7907C18.9681 14.791 18.9681 14.791 18.9681 14.791C18.9677 14.791 18.9677 14.791 18.9677 14.791C18.9674 14.7914 18.9674 14.7914 18.9674 14.7914C18.959 14.7968 18.9502 14.8021 18.9388 14.8096C18.9186 14.8224 18.8987 14.8355 18.8792 14.8483C18.8674 14.8557 18.8556 14.8631 18.8442 14.8708C18.826 14.883 18.8082 14.8957 18.79 14.9082C18.7772 14.917 18.7644 14.9254 18.7519 14.9345C18.7004 14.9712 18.6503 15.0092 18.6014 15.0479C18.5927 15.0547 18.5836 15.0614 18.5748 15.0685V15.0688C18.5684 15.0735 18.5624 15.0782 18.5567 15.0829C18.556 15.0833 18.5556 15.084 18.5553 15.0843C18.521 15.1122 18.4876 15.1409 18.4543 15.1698C18.4543 15.1698 18.4543 15.1701 18.454 15.1701C18.454 15.1701 18.454 15.1705 18.4536 15.1705L18.4284 15.1927C18.428 15.1927 18.428 15.193 18.428 15.193C18.428 15.193 18.428 15.193 18.4277 15.193C18.3954 15.2223 18.3634 15.2523 18.3318 15.2823V15.2826L18.3038 15.3092C18.3038 15.3092 18.3038 15.3095 18.3035 15.3095C18.2725 15.3398 18.2422 15.3708 18.2122 15.4021V15.4025L18.187 15.4287C18.187 15.4291 18.1866 15.4291 18.1863 15.4294C18.1863 15.4297 18.186 15.4301 18.1856 15.4304C18.156 15.4621 18.127 15.4944 18.0984 15.527C18.0984 15.527 18.0981 15.5274 18.0981 15.5277L18.0974 15.5284H18.0971V15.5287L18.0739 15.5553C18.0739 15.5556 18.0735 15.556 18.0732 15.5563C18.0442 15.5903 18.0156 15.625 17.9877 15.6604V15.6604C17.9873 15.6604 17.9873 15.6607 17.9873 15.6607L17.9688 15.6843V15.6843C17.9399 15.7216 17.9116 15.759 17.884 15.7974H17.8836V15.7977L17.8708 15.8156V15.8156L17.8705 15.8159L17.8702 15.8166C17.8702 15.8166 17.8702 15.8169 17.8698 15.8169C17.8426 15.8556 17.8156 15.8947 17.7897 15.9344C17.7894 15.9348 17.789 15.9351 17.7887 15.9354C17.7883 15.9361 17.7877 15.9371 17.7873 15.9378C17.787 15.9381 17.7867 15.9388 17.7863 15.9391C17.7863 15.9395 17.786 15.9395 17.786 15.9398C17.7843 15.9425 17.7823 15.9455 17.7809 15.9475V15.9479C17.7809 15.9479 17.7806 15.9482 17.7803 15.9486C17.5523 16.2997 17.3877 16.6785 17.2884 17.0788H15.271C15.0545 17.0788 14.878 16.9027 14.878 16.6859V16.6859ZM37.884 4.22858H32.9388V2.13946C32.9388 1.36306 32.3072 0.731445 31.5308 0.731445H15.271C14.4949 0.731445 13.8633 1.36306 13.8633 2.13946V16.6859C13.8633 17.4623 14.4949 18.0939 15.271 18.0939H17.1796C17.2369 20.1093 18.893 21.7314 20.9219 21.7314C22.9511 21.7314 24.6072 20.1093 24.6644 18.0939H32.4314H34.8616C34.9188 20.1093 36.575 21.7314 38.6042 21.7314C40.633 21.7314 42.2892 20.1093 42.3464 18.0939H43.6443C44.4204 18.0939 45.052 17.4623 45.052 16.6859V11.3969C45.052 7.44425 41.8363 4.22858 37.884 4.22858V4.22858Z" fill="#1D1D1B"/>
<g id="Group 5">
<mask id="mask0_0_668" style="mask-type:luminance" maskUnits="userSpaceOnUse" x="0" y="16" width="13" height="2">
<path id="Clip 4" fill-rule="evenodd" clip-rule="evenodd" d="M0.5 16.7756H12.3196V17.7903H0.5V16.7756Z" fill="white"/>
</mask>
<g mask="url(#mask0_0_668)">
<path id="Fill 3" fill-rule="evenodd" clip-rule="evenodd" d="M11.8123 16.7756H6.40982H1.00738C0.727262 16.7756 0.5 17.0028 0.5 17.283C0.5 17.5634 0.727262 17.7903 1.00738 17.7903H6.40982H11.8123C12.0924 17.7903 12.3196 17.5634 12.3196 17.283C12.3196 17.0028 12.0924 16.7756 11.8123 16.7756" fill="#1D1D1B"/>
</g>
</g>
<path id="Fill 6" fill-rule="evenodd" clip-rule="evenodd" d="M11.8122 12.6887H9.11099H6.40977H3.70855C3.42843 12.6887 3.20117 12.9159 3.20117 13.196C3.20117 13.4765 3.42843 13.7034 3.70855 13.7034H6.40977H9.11099H11.8122C12.0923 13.7034 12.3196 13.4765 12.3196 13.196C12.3196 12.9159 12.0923 12.6887 11.8122 12.6887" fill="#1D1D1B"/>
<path id="Fill 8" fill-rule="evenodd" clip-rule="evenodd" d="M11.8122 8.60175H6.40973C6.12961 8.60175 5.90234 8.82901 5.90234 9.10913C5.90234 9.38959 6.12961 9.61651 6.40973 9.61651H11.8122C12.0923 9.61651 12.3195 9.38959 12.3195 9.10913C12.3195 8.82901 12.0923 8.60175 11.8122 8.60175" fill="#1D1D1B"/>
</g>
</svg>
