<svg width="45" height="22" viewBox="0 0 45 22" fill="none" xmlns="http://www.w3.org/2000/svg">
<g id="Spedizione-gratuita">
<path id="Fill 1" fill-rule="evenodd" clip-rule="evenodd" d="M43.7919 16.9388C43.7919 17.1557 43.6154 17.3317 43.3989 17.3317H41.9923C41.8933 16.9331 41.73 16.556 41.5034 16.2062C41.5031 16.2059 41.5031 16.2055 41.5027 16.2055L41.5007 16.2022C41.5004 16.2018 41.5004 16.2012 41.5 16.2008H41.4997V16.2005L41.4947 16.1927C41.4947 16.1927 41.4947 16.1927 41.4947 16.1924C41.4943 16.1924 41.4943 16.1921 41.4943 16.1921L41.4937 16.1907C41.4933 16.1904 41.493 16.1904 41.493 16.19C41.466 16.1486 41.4381 16.1082 41.4098 16.0682C41.4095 16.0678 41.4091 16.0678 41.4088 16.0675C41.4088 16.0672 41.4088 16.0668 41.4085 16.0665L41.397 16.0503H41.3967C41.3691 16.0119 41.3408 15.9742 41.3115 15.9369C41.3115 15.9365 41.3112 15.9365 41.3112 15.9365L41.2937 15.914L41.2933 15.9136C41.265 15.8779 41.2361 15.8426 41.2065 15.8079L41.2061 15.8076C41.2061 15.8076 41.2061 15.8076 41.2058 15.8072L41.1832 15.7813C41.1832 15.7813 41.1832 15.7813 41.1832 15.781C41.1543 15.748 41.1246 15.715 41.0947 15.683C41.0947 15.683 41.0947 15.6827 41.0943 15.6827L41.0688 15.6557C41.0688 15.6557 41.0688 15.6554 41.0684 15.6554C41.0385 15.6237 41.0078 15.5924 40.9765 15.5618L40.9762 15.5615C40.9688 15.5544 40.9617 15.5476 40.9543 15.5406L40.9479 15.5345L40.9476 15.5342C40.9162 15.5042 40.8849 15.4749 40.8529 15.446C40.8526 15.446 40.8526 15.446 40.8523 15.4456L40.8519 15.445C40.8452 15.4392 40.8381 15.4332 40.8314 15.4275L40.8267 15.4231C40.8263 15.4231 40.8263 15.4231 40.8263 15.4231L40.8257 15.4224H40.8253C40.792 15.3928 40.758 15.3635 40.7233 15.3355C40.723 15.3349 40.7223 15.3349 40.722 15.3342C40.7216 15.3342 40.7213 15.3339 40.721 15.3335L40.7058 15.3214C40.7055 15.3214 40.7055 15.3214 40.7055 15.3214C40.5913 15.2295 40.4705 15.1433 40.3462 15.0655C40.3459 15.0652 40.3456 15.0648 40.3452 15.0648L40.3405 15.0618C40.3314 15.0558 40.3223 15.05 40.3129 15.0443V15.044C40.3129 15.044 40.3126 15.0436 40.3122 15.0436C40.3122 15.0436 40.3119 15.0436 40.3119 15.0433C40.287 15.0281 40.2621 15.0137 40.2368 14.9995L40.2237 14.9918C40.2233 14.9918 40.2233 14.9918 40.2233 14.9918L40.2079 14.9827C40.1924 14.9736 40.1772 14.9648 40.1614 14.9561C40.1614 14.9561 40.1614 14.9561 40.1611 14.9561V14.9558C40.1372 14.943 40.1129 14.9302 40.0887 14.9177L40.0779 14.9123V14.912L40.0654 14.9056C40.0456 14.8955 40.0254 14.8851 40.0055 14.8753L40.0052 14.875C39.9806 14.8628 39.9553 14.8514 39.9301 14.8399L39.9254 14.8376C39.9254 14.8376 39.9254 14.8376 39.925 14.8376C39.8988 14.8251 39.8722 14.813 39.8452 14.8016V14.8012C39.8449 14.8012 39.8449 14.8012 39.8449 14.8012C39.8186 14.7898 39.7924 14.779 39.7658 14.7682H39.7655C39.7372 14.7568 39.7089 14.7453 39.6799 14.7346C39.6799 14.7346 39.6799 14.7346 39.6796 14.7346C39.6537 14.7248 39.6274 14.7154 39.6012 14.7059C39.6012 14.7059 39.6012 14.7059 39.6008 14.7059C39.5715 14.6955 39.5419 14.6854 39.5123 14.676C39.5119 14.676 39.5119 14.676 39.5119 14.676C39.486 14.6676 39.4601 14.6595 39.4342 14.6514H39.4338C39.4338 14.6514 39.4338 14.6514 39.4335 14.6514C39.4025 14.642 39.3709 14.6332 39.3392 14.6245C39.3133 14.6177 39.2877 14.6107 39.2621 14.6043C39.2295 14.5962 39.1965 14.5888 39.1638 14.5817H39.1635L39.1581 14.5804C39.1345 14.5753 39.1109 14.5703 39.0874 14.5655H39.087C39.0524 14.5585 39.0177 14.5524 38.9827 14.5467H38.9823C38.9823 14.5467 38.9823 14.5467 38.982 14.5467L38.9662 14.544C38.947 14.5406 38.9281 14.5373 38.9089 14.5346H38.9086C38.8716 14.5292 38.8342 14.5248 38.7968 14.5204L38.7965 14.5201L38.78 14.5181C38.7631 14.516 38.746 14.514 38.7288 14.5123C38.7288 14.5123 38.7285 14.5123 38.7281 14.5123C38.6854 14.508 38.6419 14.5049 38.5985 14.5022L38.5864 14.5016C38.5729 14.5006 38.5595 14.4995 38.5456 14.4989H38.545V14.4985C38.4174 14.4925 38.3002 14.4925 38.1726 14.4985C38.1723 14.4985 38.1723 14.4989 38.1723 14.4989H38.1719C38.1581 14.4995 38.1447 14.5006 38.1309 14.5016L38.1184 14.5022L38.1181 14.5026C38.0753 14.5049 38.0329 14.508 37.9905 14.5123C37.9901 14.5123 37.9901 14.5123 37.9898 14.5123C37.9723 14.514 37.9548 14.516 37.9376 14.5181L37.9211 14.5201H37.9208C37.8831 14.5248 37.8453 14.5292 37.8083 14.5346H37.808C37.7884 14.5376 37.7693 14.541 37.7501 14.544L37.7346 14.5467C37.6999 14.5524 37.6652 14.5585 37.6309 14.5652C37.6305 14.5652 37.6305 14.5652 37.6305 14.5652C37.6083 14.5696 37.5864 14.5743 37.5645 14.5793L37.5544 14.5814C37.5544 14.5814 37.5544 14.5814 37.5541 14.5817C37.5541 14.5817 37.5541 14.5817 37.5538 14.5817C37.5208 14.5888 37.4878 14.5962 37.4551 14.6046H37.4548C37.4292 14.611 37.4036 14.6177 37.378 14.6245C37.378 14.6245 37.378 14.6245 37.378 14.6248H37.3774C37.346 14.6332 37.3147 14.642 37.2838 14.6514H37.2834C37.2572 14.6595 37.2309 14.6676 37.205 14.676C37.2046 14.676 37.2043 14.6763 37.2043 14.6763C37.1747 14.6857 37.1457 14.6955 37.1164 14.7059H37.1161C37.0898 14.7154 37.0636 14.7248 37.0376 14.7346H37.0373C37.0083 14.7453 36.9801 14.7568 36.9514 14.7682C36.9514 14.7686 36.9511 14.7686 36.9508 14.7686C36.9249 14.7793 36.8986 14.7898 36.8727 14.8012C36.8727 14.8012 36.8727 14.8012 36.8723 14.8012C36.8723 14.8012 36.8723 14.8012 36.872 14.8012C36.8454 14.813 36.8188 14.8251 36.7925 14.8372H36.7922L36.7831 14.8416C36.7592 14.8524 36.7356 14.8635 36.7121 14.875C36.6912 14.8854 36.6703 14.8962 36.6494 14.9069L36.6383 14.9127L36.6255 14.9194C36.6026 14.9312 36.5794 14.9433 36.5569 14.9558C36.5565 14.9558 36.5565 14.9558 36.5565 14.9558L36.5562 14.9561H36.5558C36.54 14.9648 36.5245 14.9739 36.5094 14.9827L36.4939 14.9918H36.4936L36.4781 15.0009C36.4538 15.0147 36.4296 15.0288 36.4057 15.0433L36.4053 15.0436C36.405 15.0436 36.405 15.0436 36.405 15.0436L36.4047 15.044C36.3952 15.0497 36.3862 15.0554 36.3771 15.0615L36.3737 15.0638H36.3734C36.2791 15.1228 36.1868 15.1864 36.0983 15.2537C36.0882 15.2615 36.0784 15.2695 36.0683 15.2773C36.0495 15.2918 36.0306 15.3059 36.0124 15.3207C36.0121 15.3211 36.0118 15.3211 36.0118 15.3214C36.0057 15.3258 36 15.3305 35.9943 15.3352C35.9939 15.3352 35.9939 15.3352 35.9939 15.3352C35.9592 15.3638 35.9252 15.3928 35.8919 15.4224H35.8916L35.8862 15.4271C35.8791 15.4332 35.8717 15.4396 35.8646 15.446L35.8643 15.4463L35.864 15.4466H35.8636V15.447C35.8313 15.4756 35.8 15.5052 35.769 15.5349C35.7687 15.5352 35.7687 15.5352 35.7683 15.5355C35.7683 15.5355 35.768 15.5359 35.7677 15.5362L35.7404 15.5621C35.7098 15.5921 35.6801 15.6227 35.6505 15.6537L35.6502 15.654L35.6492 15.6551L35.6488 15.6554L35.6232 15.682C35.6232 15.682 35.6229 15.6823 35.6229 15.6827C35.6229 15.6827 35.6226 15.683 35.6222 15.6833C35.5923 15.7153 35.563 15.7483 35.534 15.7813C35.5337 15.7816 35.5333 15.782 35.533 15.7823C35.533 15.7827 35.5327 15.783 35.5323 15.7833L35.5101 15.8089C35.5098 15.8093 35.5098 15.8096 35.5094 15.8096C35.4805 15.8436 35.4522 15.8779 35.4246 15.913L35.4242 15.9133L35.4057 15.9369L35.4054 15.9372C35.3764 15.9742 35.3482 16.0119 35.3205 16.05C35.3205 16.0503 35.3205 16.0503 35.3205 16.0503C35.3202 16.0507 35.3202 16.0507 35.3202 16.0507L35.3078 16.0685C35.3074 16.0685 35.3074 16.0685 35.3074 16.0685C35.3074 16.0685 35.3074 16.0688 35.3071 16.0688L35.3067 16.0695V16.0698C35.2781 16.1099 35.2502 16.1506 35.2229 16.1921C35.2229 16.1924 35.2226 16.1927 35.2222 16.1931C35.2222 16.1934 35.2219 16.1937 35.2216 16.1941L35.2155 16.2038C35.2152 16.2042 35.2152 16.2042 35.2152 16.2042C35.2148 16.2052 35.2145 16.2055 35.2142 16.2062C34.9876 16.556 34.8239 16.9331 34.7253 17.3317H32.6934V5.49662H37.6386C41.0314 5.49662 43.7919 8.25675 43.7919 11.6499V16.9388ZM38.3588 20.9696C36.8531 20.9696 35.6283 19.7448 35.6283 18.2391C35.6283 18.1304 35.6353 18.0196 35.6498 17.9014C35.7007 17.4893 35.8414 17.1031 36.068 16.7543C36.0683 16.7536 36.0687 16.7533 36.069 16.7526C36.069 16.7523 36.0693 16.7523 36.0697 16.7516C36.07 16.7513 36.0703 16.7506 36.0707 16.7499C36.071 16.7493 36.0717 16.7486 36.0724 16.7476C36.0922 16.7173 36.1128 16.6873 36.1336 16.6577C36.134 16.6577 36.134 16.6574 36.1343 16.6574C36.1343 16.657 36.1343 16.657 36.1343 16.657L36.1437 16.6436C36.1639 16.6159 36.1845 16.5887 36.2054 16.5617C36.2054 16.5617 36.2054 16.5614 36.2057 16.5614L36.2195 16.5439V16.5436C36.24 16.518 36.2609 16.4924 36.2821 16.4675C36.2821 16.4675 36.2821 16.4675 36.2825 16.4675C36.2825 16.4671 36.2828 16.4671 36.2828 16.4668L36.2969 16.4506L36.299 16.4479C36.2993 16.4479 36.2993 16.4479 36.2993 16.4479C36.2993 16.4476 36.2996 16.4476 36.2996 16.4476C36.3208 16.4234 36.342 16.3991 36.3643 16.3756L36.3825 16.3567C36.3825 16.3567 36.3828 16.3564 36.3828 16.356C36.3831 16.3557 36.3835 16.3557 36.3835 16.3554C36.4053 16.3325 36.4276 16.3096 36.4501 16.2877L36.4707 16.2682C36.4939 16.2459 36.5168 16.224 36.5407 16.2028L36.541 16.2025L36.5602 16.186V16.1857C36.5851 16.1641 36.6097 16.1429 36.635 16.122L36.6478 16.1119C36.6895 16.0783 36.7326 16.0459 36.7767 16.0143C36.8208 15.983 36.8659 15.953 36.9117 15.9241L36.9356 15.9089C36.9511 15.8995 36.9669 15.8904 36.9828 15.8813L36.9999 15.8712C37.0003 15.8712 37.0003 15.8712 37.0003 15.8712L37.0208 15.8594C37.0289 15.8547 37.037 15.85 37.045 15.8453C37.0454 15.8453 37.0454 15.8453 37.0454 15.8453C37.0602 15.8369 37.0753 15.8291 37.0905 15.8214L37.1053 15.8136H37.1056C37.1056 15.8136 37.1056 15.8136 37.106 15.8136L37.1181 15.8072C37.1316 15.8002 37.1454 15.7931 37.1592 15.7864C37.175 15.7783 37.1915 15.7709 37.208 15.7631L37.2174 15.7591V15.7587C37.237 15.75 37.2561 15.7409 37.276 15.7325C37.2949 15.7244 37.3141 15.7167 37.3329 15.7086C37.3332 15.7086 37.3336 15.7086 37.3336 15.7086C37.3538 15.7002 37.3743 15.6921 37.3949 15.6843C37.3949 15.6843 37.3949 15.6843 37.3952 15.6843C37.4141 15.6773 37.4332 15.6702 37.4524 15.6635C37.4528 15.6635 37.4528 15.6635 37.4528 15.6635C37.4743 15.6557 37.4955 15.6487 37.5174 15.6416L37.5181 15.6412C37.5369 15.6352 37.5558 15.6295 37.5746 15.6237C37.5975 15.6167 37.6204 15.6103 37.6437 15.6042C37.6622 15.5992 37.6807 15.5941 37.6992 15.5894C37.6996 15.5894 37.6996 15.5894 37.6996 15.5894C37.7235 15.5837 37.747 15.5783 37.7709 15.5729L37.782 15.5705C37.7969 15.5672 37.8117 15.5641 37.8268 15.5611C37.8521 15.5561 37.8773 15.5517 37.9026 15.5476L37.9029 15.5473L37.9208 15.5446C37.9325 15.5426 37.9447 15.5402 37.9564 15.5386H37.9568C37.9837 15.5345 38.0113 15.5315 38.0386 15.5281C38.0386 15.5281 38.0386 15.5281 38.0389 15.5281L38.0622 15.5254C38.0709 15.5244 38.0793 15.5231 38.0881 15.5224C38.0881 15.5224 38.0881 15.5224 38.0884 15.5224C38.1197 15.5194 38.1511 15.5173 38.1824 15.5153H38.1827L38.2228 15.5123H38.2231C38.3164 15.5076 38.4009 15.5076 38.4945 15.5123L38.5345 15.5153H38.5349C38.5665 15.5173 38.5978 15.5194 38.6288 15.5224H38.6291C38.6379 15.5231 38.6467 15.5244 38.6551 15.5254L38.679 15.5281C38.7062 15.5315 38.7335 15.5345 38.7608 15.5386C38.7726 15.5402 38.784 15.5423 38.7955 15.5443L38.814 15.5473H38.8143C38.8399 15.5517 38.8652 15.5561 38.8904 15.5611C38.8904 15.5611 38.8904 15.5611 38.8907 15.5611C38.9072 15.5645 38.9237 15.5678 38.9399 15.5716L38.9456 15.5729H38.946C38.9699 15.5783 38.9941 15.5837 39.018 15.5894C39.0369 15.5941 39.0554 15.5992 39.0742 15.6042C39.0971 15.6106 39.12 15.617 39.1426 15.6237C39.1618 15.6295 39.1806 15.6352 39.1995 15.6412C39.2214 15.6483 39.2429 15.6557 39.2645 15.6635H39.2648H39.2651C39.2843 15.6702 39.3032 15.6773 39.3224 15.6843C39.3433 15.6921 39.3638 15.7005 39.384 15.7086H39.3843C39.4035 15.7167 39.4227 15.7244 39.4416 15.7325H39.4419C39.4611 15.7409 39.4803 15.75 39.4995 15.7587C39.4995 15.7587 39.4998 15.7587 39.5001 15.7591C39.5001 15.7591 39.5001 15.7591 39.5005 15.7591L39.5065 15.7621C39.5241 15.7699 39.5412 15.7779 39.5584 15.7864C39.5715 15.7928 39.5843 15.7995 39.5971 15.8062L39.6119 15.8136L39.6123 15.814L39.6237 15.82C39.6399 15.8281 39.6564 15.8365 39.6722 15.8453C39.6803 15.85 39.6884 15.8547 39.6964 15.8594L39.7176 15.8715C39.7176 15.8715 39.7176 15.8715 39.718 15.8715L39.7325 15.88C39.749 15.8894 39.7655 15.8988 39.782 15.9089L39.8028 15.9224C39.8032 15.9227 39.8035 15.9227 39.8038 15.923C39.8042 15.9234 39.8045 15.9234 39.8048 15.9237C39.8968 15.9813 39.986 16.0446 40.0702 16.1126C40.0705 16.1129 40.0708 16.1129 40.0708 16.1133L40.0826 16.1224C40.1079 16.1429 40.1324 16.1645 40.157 16.1857C40.157 16.1857 40.1574 16.186 40.1577 16.1863C40.1577 16.1863 40.1577 16.1867 40.158 16.1867L40.1772 16.2032C40.2008 16.2244 40.2237 16.2459 40.2462 16.2678C40.2466 16.2682 40.2469 16.2682 40.2469 16.2685C40.2472 16.2685 40.2472 16.2688 40.2476 16.2692L40.2664 16.287C40.2668 16.2873 40.2668 16.2873 40.2671 16.2873C40.29 16.3099 40.3122 16.3328 40.3341 16.356H40.3344V16.3564L40.3526 16.3752C40.353 16.3752 40.353 16.3756 40.353 16.3756C40.3752 16.3995 40.3971 16.4237 40.4183 16.4483H40.4186L40.4348 16.4671C40.4563 16.4924 40.4775 16.518 40.4981 16.5439L40.4984 16.5442L40.5112 16.5607C40.5115 16.5611 40.5115 16.5611 40.5115 16.5614C40.5331 16.5887 40.5536 16.6163 40.5742 16.6442V16.6446L40.5829 16.6567C40.5829 16.657 40.5829 16.657 40.5833 16.657C40.6045 16.687 40.625 16.717 40.6449 16.7476C40.6452 16.7479 40.6452 16.7479 40.6455 16.7483C40.6459 16.7489 40.6466 16.7496 40.6472 16.7506C40.6479 16.7516 40.6482 16.7526 40.6489 16.7536C40.8758 17.1028 41.0166 17.489 41.0674 17.9014C41.0819 18.0199 41.089 18.1304 41.089 18.2391C41.089 19.7448 39.8641 20.9696 38.3588 20.9696ZM20.6765 20.9696C19.1712 20.9696 17.9463 19.7448 17.9463 18.2391C17.9463 18.1297 17.9534 18.0189 17.9678 17.9007C18.015 17.5206 18.1392 17.1634 18.3358 16.8361C18.3523 16.8089 18.3685 16.7813 18.386 16.7543C18.386 16.7543 18.386 16.754 18.3863 16.7536C18.3877 16.7516 18.389 16.7496 18.3901 16.7479V16.7476C18.4099 16.7173 18.4305 16.6873 18.4517 16.6577C18.452 16.6577 18.452 16.6574 18.452 16.6574C18.4523 16.657 18.4523 16.657 18.4523 16.657L18.4618 16.6439C18.4816 16.6159 18.5025 16.5883 18.5237 16.5614V16.5611L18.5375 16.5436C18.5581 16.518 18.5789 16.4924 18.6001 16.4675L18.6005 16.4671L18.6166 16.4486L18.617 16.4479C18.617 16.4479 18.6173 16.4479 18.6173 16.4476C18.6385 16.4234 18.6601 16.3995 18.682 16.3759L18.7008 16.356H18.7011C18.723 16.3328 18.7453 16.3099 18.7681 16.2877L18.7883 16.2682H18.7887C18.8116 16.2463 18.8345 16.2244 18.858 16.2032L18.8776 16.1863H18.8779C18.9021 16.1648 18.9267 16.1436 18.952 16.123L18.9644 16.1133V16.1129C18.9648 16.1129 18.9648 16.1129 18.9648 16.1129C19.0072 16.0786 19.0506 16.0459 19.0951 16.0143C19.1395 15.9826 19.1853 15.952 19.2318 15.9227C19.2321 15.9227 19.2321 15.9224 19.2324 15.9224L19.2523 15.9096C19.2523 15.9096 19.2523 15.9096 19.2526 15.9096C19.2526 15.9096 19.2526 15.9092 19.253 15.9092C19.2691 15.8991 19.2856 15.8897 19.3025 15.8803L19.3183 15.8712L19.3385 15.8594C19.3466 15.8547 19.3547 15.85 19.3631 15.8453C19.3779 15.8372 19.393 15.8295 19.4078 15.8217L19.4233 15.814L19.4405 15.8049C19.4523 15.7988 19.4641 15.7924 19.4759 15.7867C19.4762 15.7867 19.4762 15.7864 19.4765 15.7864C19.4769 15.7864 19.4769 15.7864 19.4772 15.786C19.4934 15.7783 19.5099 15.7705 19.5264 15.7631L19.5354 15.7587C19.5368 15.7581 19.5381 15.7574 19.5398 15.7567C19.5577 15.7486 19.5752 15.7406 19.5934 15.7328L19.5937 15.7325C19.6129 15.7244 19.6317 15.7163 19.6513 15.7086C19.6718 15.7005 19.6923 15.6921 19.7129 15.6843H19.7132C19.7321 15.6769 19.7513 15.6702 19.7705 15.6635C19.7705 15.6635 19.7705 15.6635 19.7708 15.6635C19.792 15.6557 19.8136 15.6487 19.8354 15.6416C19.8546 15.6352 19.8735 15.6295 19.893 15.6237C19.893 15.6237 19.893 15.6234 19.8933 15.6234C19.9156 15.6167 19.9381 15.6106 19.9607 15.6042C19.9795 15.5992 19.9984 15.5941 20.0176 15.5894C20.0415 15.5837 20.0654 15.5783 20.0896 15.5729L20.097 15.5712C20.1129 15.5678 20.1287 15.5641 20.1445 15.5611H20.1448C20.1698 15.5561 20.1954 15.5517 20.2206 15.5476L20.2398 15.5443C20.2512 15.5423 20.263 15.5402 20.2748 15.5386C20.3017 15.5345 20.3287 15.5315 20.3559 15.5285L20.3805 15.5254C20.3889 15.5244 20.3974 15.5231 20.4058 15.5224C20.4061 15.5224 20.4061 15.5224 20.4061 15.5224C20.4065 15.5224 20.4065 15.5224 20.4065 15.5224C20.4378 15.5194 20.4687 15.5173 20.5004 15.5153L20.5408 15.5123C20.634 15.5076 20.7189 15.5076 20.8122 15.5123L20.8515 15.515H20.8522C20.8526 15.5153 20.8526 15.5153 20.8529 15.5153C20.8842 15.5173 20.9159 15.5194 20.9468 15.5224H20.9472C20.9559 15.5231 20.9643 15.5244 20.9731 15.5254L20.9967 15.5281C21.0243 15.5315 21.0515 15.5345 21.0788 15.5386C21.0906 15.5402 21.102 15.5423 21.1135 15.5443L21.132 15.5473H21.1323C21.1576 15.5517 21.1832 15.5561 21.2084 15.5611H21.2088C21.2253 15.5645 21.2418 15.5678 21.2579 15.5716L21.2633 15.5729H21.2636C21.2879 15.5783 21.3118 15.5837 21.3357 15.5894H21.336C21.3549 15.5941 21.3734 15.5992 21.3923 15.6042C21.4152 15.6106 21.4381 15.617 21.4609 15.6237C21.4798 15.6295 21.4987 15.6352 21.5172 15.6412H21.5175C21.5391 15.6483 21.5609 15.6557 21.5822 15.6631C21.5825 15.6635 21.5825 15.6635 21.5828 15.6635L21.5832 15.6638C21.6024 15.6702 21.6212 15.6769 21.6397 15.684L21.6401 15.6843C21.6609 15.6921 21.6811 15.7002 21.7017 15.7086H21.702C21.7212 15.7167 21.7404 15.7244 21.7596 15.7325C21.7596 15.7325 21.7596 15.7325 21.7599 15.7325C21.7791 15.7409 21.7983 15.75 21.8175 15.7587H21.8178V15.7591L21.8262 15.7628C21.8427 15.7705 21.8596 15.7783 21.8761 15.786V15.7864C21.8892 15.7928 21.902 15.7995 21.9151 15.8059L21.9296 15.8136C21.9299 15.8136 21.9299 15.8136 21.9299 15.8136L21.9454 15.8217C21.9602 15.8295 21.9754 15.8372 21.9899 15.8453H21.9902C21.9986 15.85 22.0064 15.8547 22.0145 15.8594L22.0353 15.8715L22.0515 15.8806C22.0677 15.8901 22.0838 15.8991 22.0996 15.9089L22.1225 15.9234C22.2148 15.9813 22.304 16.0449 22.3882 16.1129C22.3885 16.1129 22.3888 16.1133 22.3892 16.1133L22.4006 16.1227C22.4262 16.1432 22.4508 16.1648 22.4754 16.1863C22.4754 16.1863 22.4754 16.1863 22.4757 16.1863L22.4949 16.2032H22.4952C22.5188 16.2244 22.5417 16.2463 22.5646 16.2682L22.5855 16.288C22.608 16.3099 22.6299 16.3328 22.6518 16.3557H22.6521L22.6717 16.3762C22.6935 16.3998 22.7151 16.4237 22.7363 16.4479C22.737 16.449 22.7377 16.4496 22.7383 16.4503L22.7521 16.4665C22.7521 16.4665 22.7525 16.4668 22.7525 16.4671C22.7528 16.4671 22.7528 16.4675 22.7531 16.4675C22.7744 16.4924 22.7952 16.5176 22.8154 16.5436L22.8292 16.5607V16.5611L22.8296 16.5614C22.8511 16.5887 22.8717 16.6163 22.8922 16.6446L22.8996 16.6553C22.8999 16.6557 22.9003 16.6557 22.9003 16.656C22.9006 16.6567 22.9009 16.657 22.9013 16.6574C22.9222 16.687 22.9427 16.7166 22.9626 16.7469C22.9639 16.7489 22.9653 16.7513 22.9666 16.7533C22.9669 16.7536 22.9669 16.754 22.9669 16.754C22.9841 16.7799 22.9993 16.8065 23.0154 16.8328C23.1854 17.1149 23.3019 17.4199 23.3609 17.7425C23.3703 17.795 23.3787 17.8479 23.3851 17.9011C23.3999 18.0192 23.407 18.13 23.407 18.2391C23.407 19.7448 22.1821 20.9696 20.6765 20.9696ZM14.6327 16.9388V2.39239C14.6327 2.17556 14.8091 1.99914 15.0256 1.99914H31.2854C31.5022 1.99914 31.6786 2.17556 31.6786 2.39239V4.98923V17.3317H24.31C24.211 16.9314 24.0467 16.553 23.8187 16.2018H23.8184C23.8184 16.2015 23.8181 16.2012 23.8181 16.2012V16.2008C23.8161 16.1981 23.814 16.1951 23.8123 16.1924V16.1921C23.812 16.1917 23.8113 16.1911 23.8113 16.1904C23.811 16.19 23.8107 16.19 23.8107 16.1897C23.7844 16.1496 23.7575 16.1106 23.7299 16.0715C23.7299 16.0715 23.7295 16.0712 23.7295 16.0709L23.7282 16.0692C23.7282 16.0688 23.7278 16.0688 23.7278 16.0685H23.7275L23.7157 16.0517C23.7157 16.0513 23.7154 16.0513 23.7154 16.051C23.715 16.0507 23.7147 16.0503 23.7147 16.05C23.6868 16.0116 23.6585 15.9739 23.6295 15.9369L23.6292 15.9365L23.612 15.9146C23.612 15.9143 23.6117 15.914 23.6113 15.914C23.6113 15.9136 23.611 15.9136 23.611 15.9133C23.5834 15.8783 23.5548 15.8439 23.5258 15.8099C23.5255 15.8096 23.5252 15.8093 23.5252 15.8089L23.5039 15.7843V15.7847C23.5029 15.7837 23.5023 15.7827 23.5016 15.7816C23.4723 15.748 23.4427 15.715 23.4124 15.6827L23.412 15.6823L23.3868 15.6557C23.3868 15.6554 23.3864 15.6554 23.3864 15.6554C23.3565 15.6237 23.3258 15.5924 23.2945 15.5618C23.2945 15.5618 23.2945 15.5618 23.2942 15.5618C23.2942 15.5618 23.2942 15.5615 23.2939 15.5615L23.2673 15.5359C23.2669 15.5355 23.2669 15.5355 23.2669 15.5355C23.2353 15.5052 23.2033 15.4753 23.1706 15.446L23.1703 15.4456L23.1447 15.4234C23.1447 15.4234 23.1447 15.4234 23.1444 15.4231C23.1444 15.4231 23.1444 15.4231 23.144 15.4227C23.1114 15.3941 23.0787 15.3658 23.045 15.3386C23.0444 15.3379 23.044 15.3376 23.0434 15.3369C23.0427 15.3365 23.042 15.3359 23.0413 15.3355C23.0413 15.3355 23.041 15.3352 23.0407 15.3349C23.0407 15.3349 23.0403 15.3349 23.0403 15.3345C23.0349 15.3305 23.0299 15.3261 23.0235 15.3214C23.0232 15.3211 23.0228 15.3211 23.0228 15.3207C22.908 15.2285 22.7868 15.1419 22.6619 15.0638C22.6616 15.0638 22.6616 15.0638 22.6616 15.0638L22.6568 15.0605C22.6484 15.0551 22.64 15.0497 22.6316 15.0443C22.6313 15.0443 22.6309 15.0443 22.6309 15.044C22.6306 15.044 22.6306 15.044 22.6306 15.044C22.606 15.0288 22.5811 15.0147 22.5562 15.0002L22.5414 14.9918C22.541 14.9918 22.541 14.9914 22.541 14.9914L22.5262 14.9827C22.5107 14.9739 22.4956 14.9652 22.4798 14.9564L22.4794 14.9561C22.4569 14.9436 22.434 14.9319 22.4111 14.9201L22.3966 14.9127L22.3963 14.9123L22.3831 14.9056C22.3633 14.8952 22.3434 14.8851 22.3232 14.8753C22.3232 14.875 22.3229 14.875 22.3229 14.875C22.2986 14.8632 22.2744 14.8521 22.2501 14.8406L22.2431 14.8376V14.8372H22.2424C22.2161 14.8251 22.1899 14.813 22.1633 14.8016C22.1633 14.8016 22.1633 14.8012 22.1629 14.8012C22.1629 14.8012 22.1629 14.8012 22.1626 14.8012C22.1367 14.7901 22.1104 14.7793 22.0841 14.7686C22.0841 14.7686 22.0838 14.7686 22.0838 14.7682C22.0555 14.7568 22.0269 14.7457 21.9983 14.7346H21.998C21.9724 14.7248 21.9464 14.7154 21.9202 14.7066C21.9202 14.7066 21.9202 14.7063 21.9198 14.7063C21.9198 14.7063 21.9195 14.7063 21.9192 14.7059H21.9188C21.9188 14.7059 21.9188 14.7059 21.9185 14.7059C21.8892 14.6955 21.8596 14.6854 21.83 14.6756C21.8296 14.6756 21.8296 14.6756 21.8296 14.6756C21.8037 14.6672 21.7778 14.6591 21.7518 14.6514C21.7518 14.6514 21.7518 14.6514 21.7515 14.6514C21.7515 14.6514 21.7515 14.6514 21.7512 14.6514C21.7202 14.642 21.6889 14.6332 21.6572 14.6245C21.6572 14.6245 21.6572 14.6245 21.6569 14.6245C21.6316 14.6177 21.6061 14.611 21.5801 14.6046C21.5801 14.6046 21.5801 14.6046 21.5798 14.6043C21.5475 14.5962 21.5145 14.5888 21.4815 14.5817L21.4761 14.5804C21.4529 14.5753 21.4293 14.5703 21.4054 14.5655H21.4051C21.3704 14.5585 21.3357 14.5524 21.3007 14.5467H21.3003H21.3L21.2842 14.544C21.265 14.5406 21.2458 14.5373 21.227 14.5346H21.2266C21.1896 14.5292 21.1522 14.5248 21.1148 14.5204H21.1145L21.098 14.5184C21.0808 14.516 21.0637 14.514 21.0465 14.5123H21.0462C21.0037 14.5083 20.961 14.5053 20.9182 14.5026C20.9179 14.5026 20.9179 14.5026 20.9175 14.5026L20.9051 14.5016C20.8913 14.5006 20.8775 14.4995 20.8637 14.4989H20.863C20.863 14.4989 20.863 14.4985 20.8627 14.4985C20.7344 14.4925 20.6189 14.4925 20.4903 14.4985V14.4989H20.4896C20.4761 14.4995 20.4623 14.5006 20.4485 14.5016L20.4364 14.5026C20.3937 14.5049 20.3509 14.508 20.3085 14.5123H20.3078C20.3075 14.5123 20.3075 14.5123 20.3075 14.5123H20.3071H20.3068C20.2896 14.514 20.2728 14.516 20.2556 14.5181L20.2388 14.5201C20.2014 14.5245 20.1637 14.5292 20.1267 14.5346H20.1263C20.1071 14.5376 20.0879 14.5406 20.0688 14.544L20.0526 14.5467H20.0523C20.0176 14.5524 19.9829 14.5585 19.9486 14.5652L19.9482 14.5655C19.9253 14.5699 19.9024 14.575 19.8795 14.58L19.8721 14.5817H19.8718C19.8718 14.5817 19.8718 14.5817 19.8715 14.5817C19.8388 14.5888 19.8058 14.5962 19.7735 14.6043C19.7476 14.6107 19.722 14.6177 19.6964 14.6245C19.696 14.6245 19.6957 14.6248 19.6954 14.6248H19.695C19.6637 14.6332 19.6331 14.642 19.6021 14.6514H19.6018C19.5755 14.6591 19.5493 14.6676 19.5233 14.6756V14.676C19.4934 14.6854 19.4634 14.6955 19.4338 14.7059C19.4338 14.7059 19.4338 14.7059 19.4334 14.7063C19.4072 14.7154 19.3809 14.7248 19.3547 14.7349C19.3264 14.7453 19.2984 14.7568 19.2705 14.7679C19.2701 14.7679 19.2701 14.7679 19.2701 14.7679V14.7682C19.2435 14.779 19.2169 14.7898 19.1907 14.8009C19.1907 14.8009 19.1907 14.8012 19.1903 14.8012L19.19 14.8016C19.1648 14.8123 19.1398 14.8238 19.1149 14.8352V14.8356C19.1136 14.8362 19.1122 14.8366 19.1109 14.8372L19.1021 14.8413C19.0782 14.8521 19.0543 14.8632 19.0308 14.8746L19.0304 14.875C19.0301 14.875 19.0297 14.8753 19.0297 14.8753C19.0294 14.8753 19.0291 14.8756 19.0287 14.8756C19.0099 14.8851 18.991 14.8948 18.9722 14.9046L18.9577 14.912C18.9574 14.912 18.9574 14.9123 18.957 14.9123C18.957 14.9123 18.957 14.9123 18.9567 14.9123L18.9425 14.9201C18.9197 14.9315 18.8971 14.9436 18.8745 14.9558L18.8742 14.9561C18.8584 14.9648 18.8426 14.9739 18.8271 14.983L18.8123 14.9914L18.7978 14.9999C18.7729 15.014 18.7479 15.0285 18.7234 15.0436C18.723 15.0436 18.723 15.0436 18.723 15.0436C18.7227 15.044 18.7227 15.044 18.7227 15.044C18.7224 15.044 18.7224 15.044 18.7224 15.044C18.722 15.0443 18.722 15.0443 18.722 15.0443C18.7136 15.0497 18.7049 15.0551 18.6934 15.0625C18.6732 15.0753 18.6533 15.0884 18.6338 15.1012C18.622 15.1086 18.6102 15.116 18.5988 15.1238C18.5806 15.1359 18.5628 15.1487 18.5446 15.1611C18.5318 15.1699 18.519 15.1783 18.5065 15.1874C18.455 15.2241 18.4049 15.2621 18.356 15.3009C18.3473 15.3076 18.3382 15.3143 18.3294 15.3214V15.3217C18.3231 15.3264 18.317 15.3312 18.3113 15.3359C18.3106 15.3362 18.3103 15.3369 18.3099 15.3372C18.2756 15.3652 18.2422 15.3938 18.2089 15.4227C18.2089 15.4227 18.2089 15.4231 18.2086 15.4231C18.2086 15.4231 18.2086 15.4234 18.2082 15.4234L18.183 15.4456C18.1827 15.4456 18.1827 15.446 18.1827 15.446C18.1827 15.446 18.1827 15.446 18.1823 15.446C18.15 15.4753 18.118 15.5052 18.0864 15.5352V15.5355L18.0584 15.5621C18.0584 15.5621 18.0584 15.5625 18.0581 15.5625C18.0271 15.5928 17.9968 15.6237 17.9668 15.655V15.6554L17.9416 15.6816C17.9416 15.682 17.9413 15.682 17.9409 15.6823C17.9409 15.6827 17.9406 15.683 17.9402 15.6833C17.9106 15.715 17.8817 15.7473 17.853 15.78C17.853 15.78 17.8527 15.7803 17.8527 15.7806L17.852 15.7813H17.8517V15.7816L17.8285 15.8082C17.8285 15.8086 17.8281 15.8089 17.8278 15.8093C17.7988 15.8433 17.7702 15.8779 17.7423 15.9133C17.7419 15.9133 17.7419 15.9136 17.7419 15.9136L17.7234 15.9372C17.6945 15.9746 17.6662 16.0119 17.6386 16.0503H17.6382V16.0507L17.6254 16.0685L17.6251 16.0688L17.6248 16.0695C17.6248 16.0695 17.6248 16.0698 17.6244 16.0698C17.5972 16.1086 17.5702 16.1476 17.5443 16.1873C17.544 16.1877 17.5436 16.188 17.5433 16.1884C17.543 16.189 17.5423 16.19 17.5419 16.1907C17.5416 16.1911 17.5413 16.1917 17.5409 16.1921C17.5409 16.1924 17.5406 16.1924 17.5406 16.1927C17.5389 16.1954 17.5369 16.1985 17.5355 16.2005V16.2008C17.5355 16.2008 17.5352 16.2012 17.5349 16.2015C17.3069 16.5526 17.1423 16.9314 17.043 17.3317H15.0256C14.8091 17.3317 14.6327 17.1557 14.6327 16.9388ZM37.6386 4.48151H32.6934V2.39239C32.6934 1.61599 32.0618 0.984375 31.2854 0.984375H15.0256C14.2495 0.984375 13.6179 1.61599 13.6179 2.39239V16.9388C13.6179 17.7152 14.2495 18.3468 15.0256 18.3468H16.9342C16.9915 20.3622 18.6476 21.9844 20.6765 21.9844C22.7057 21.9844 24.3618 20.3622 24.4191 18.3468H32.186H34.6162C34.6734 20.3622 36.3296 21.9844 38.3588 21.9844C40.3876 21.9844 42.0438 20.3622 42.101 18.3468H43.3989C44.175 18.3468 44.8066 17.7152 44.8066 16.9388V11.6499C44.8066 7.69718 41.591 4.48151 37.6386 4.48151Z" fill="#1D1D1B"/>
<g id="Group 5">
<mask id="mask0_97_1069" style="mask-type:luminance" maskUnits="userSpaceOnUse" x="0" y="17" width="13" height="2">
<path id="Clip 4" fill-rule="evenodd" clip-rule="evenodd" d="M0.25473 17.0283H12.0743V18.0431H0.25473V17.0283Z" fill="white"/>
</mask>
<g mask="url(#mask0_97_1069)">
<path id="Fill 3" fill-rule="evenodd" clip-rule="evenodd" d="M11.5669 17.0283H6.16452H0.762083C0.481961 17.0283 0.2547 17.2556 0.2547 17.5357C0.2547 17.8162 0.481961 18.0431 0.762083 18.0431H6.16452H11.5669C11.8471 18.0431 12.0743 17.8162 12.0743 17.5357C12.0743 17.2556 11.8471 17.0283 11.5669 17.0283Z" fill="#1D1D1B"/>
</g>
</g>
<path id="Fill 6" fill-rule="evenodd" clip-rule="evenodd" d="M11.5669 12.9414H8.86572H6.1645H3.46329C3.18316 12.9414 2.9559 13.1687 2.9559 13.4488C2.9559 13.7292 3.18316 13.9562 3.46329 13.9562H6.1645H8.86572H11.5669C11.8471 13.9562 12.0743 13.7292 12.0743 13.4488C12.0743 13.1687 11.8471 12.9414 11.5669 12.9414Z" fill="#1D1D1B"/>
<path id="Fill 8" fill-rule="evenodd" clip-rule="evenodd" d="M11.567 8.85449H6.16452C5.8844 8.85449 5.65714 9.08175 5.65714 9.36188C5.65714 9.64233 5.8844 9.86926 6.16452 9.86926H11.567C11.8471 9.86926 12.0743 9.64233 12.0743 9.36188C12.0743 9.08175 11.8471 8.85449 11.567 8.85449Z" fill="#1D1D1B"/>
</g>
</svg>
