<svg width="21" height="22" viewBox="0 0 21 22" fill="none" xmlns="http://www.w3.org/2000/svg">
<g id="Group 3">
<mask id="mask0_97_1102" style="mask-type:luminance" maskUnits="userSpaceOnUse" x="0" y="0" width="21" height="22">
<path id="Clip 2" fill-rule="evenodd" clip-rule="evenodd" d="M0.796143 0.984375H20.1425V21.9844H0.796143V0.984375Z" fill="white"/>
</mask>
<g mask="url(#mask0_97_1102)">
<path id="Fill 1" fill-rule="evenodd" clip-rule="evenodd" d="M19.3441 21.186H1.59461V9.23579H7.7027V13.4949C7.7027 13.7155 7.88151 13.8941 8.10191 13.8941H12.4492C12.6696 13.8941 12.8484 13.7155 12.8484 13.4949V9.23579H19.3441V21.186ZM3.77739 1.78305H8.25899L7.73608 8.43711H1.73553L3.77739 1.78305ZM8.50138 13.0959H12.05V9.23579H8.50138V13.0959ZM9.05979 1.78305H11.4942L12.0174 8.43711H8.53687L9.05979 1.78305ZM17.1613 1.78305L19.2031 8.43711H12.8182L12.2953 1.78305H17.1613ZM20.1406 8.79658C20.1398 8.78943 20.1385 8.78254 20.1374 8.77539C20.1364 8.76983 20.1358 8.764 20.1348 8.75817C20.1319 8.7436 20.1282 8.72956 20.1237 8.71552L17.8378 1.26649C17.7864 1.09881 17.6317 0.984375 17.4564 0.984375H11.8635H8.69078H3.48229C3.30693 0.984375 3.15223 1.09881 3.10083 1.26649L0.815001 8.71552C0.810498 8.72956 0.806789 8.7436 0.803875 8.75817C0.802816 8.764 0.802286 8.76983 0.801226 8.77539C0.800167 8.78254 0.798842 8.78943 0.798048 8.79658C0.796723 8.81115 0.795928 8.82572 0.796193 8.84002V21.5852C0.796193 21.8059 0.975002 21.9844 1.1954 21.9844H19.7433C19.9637 21.9844 20.1425 21.8059 20.1425 21.5852V8.84002C20.1427 8.82572 20.1419 8.81115 20.1406 8.79658Z" fill="#1D1D1B"/>
</g>
</g>
</svg>
