<svg width="19" height="19" viewBox="0 0 19 19" fill="none" xmlns="http://www.w3.org/2000/svg">
<g id="attr1">
<path id="Shape" fill-rule="evenodd" clip-rule="evenodd" d="M0.936368 5.41687L9.12557 9.13179C9.36466 9.24051 9.63499 9.24051 9.87404 9.13179L18.0632 5.41687C18.6451 5.15286 18.6451 4.27362 18.0632 4.00961L9.87441 0.294309C9.77603 0.249333 9.60834 0.21283 9.50016 0.21283C9.39198 0.21283 9.22434 0.249333 9.12595 0.294309L0.936368 4.00926C0.354544 4.27328 0.354544 5.15286 0.936368 5.41687ZM18.0636 8.5204L16.0215 7.59473L10.3388 10.1706C10.073 10.2912 9.79071 10.3524 9.49999 10.3524C9.20927 10.3524 8.9273 10.2912 8.66117 10.1706L2.97892 7.59473L0.936368 8.5204C0.354544 8.78416 0.354544 9.66303 0.936368 9.92667L9.12557 13.6388C9.36466 13.7471 9.63499 13.7471 9.87404 13.6388L18.0636 9.92667C18.6455 9.66303 18.6455 8.78416 18.0636 8.5204ZM16.0291 12.0912L18.0636 13.0134C18.6455 13.277 18.6455 14.1559 18.0636 14.4195L9.87404 18.1317C9.63499 18.24 9.36466 18.24 9.12557 18.1317L0.936368 14.4195C0.354544 14.1559 0.354544 13.277 0.936368 13.0134L2.97119 12.0912L8.66117 14.6706C8.9273 14.7912 9.20927 14.8524 9.49999 14.8524C9.79071 14.8524 10.073 14.7912 10.3388 14.6706L16.0291 12.0912Z" fill="#1D1D1B"/>
</g>
</svg>
