<svg width="26" height="22" viewBox="0 0 26 22" fill="none" xmlns="http://www.w3.org/2000/svg">
<g id="Pagamenti-sicuri">
<path id="Fill 1" fill-rule="evenodd" clip-rule="evenodd" d="M9.47553 12.4258H4.001C3.77388 12.4258 3.58984 12.6098 3.58984 12.8367C3.58984 13.0638 3.77388 13.2475 4.001 13.2475H9.47553C9.70238 13.2475 9.88642 13.0638 9.88642 12.8367C9.88642 12.6098 9.70238 12.4258 9.47553 12.4258Z" fill="#1D1D1B"/>
<g id="Group 5">
<mask id="mask0_97_1092" style="mask-type:luminance" maskUnits="userSpaceOnUse" x="0" y="0" width="26" height="22">
<path id="Clip 4" fill-rule="evenodd" clip-rule="evenodd" d="M0.0458374 0.984375H25.6413V21.9844H0.0458374V0.984375Z" fill="white"/>
</mask>
<g mask="url(#mask0_97_1092)">
<path id="Fill 3" fill-rule="evenodd" clip-rule="evenodd" d="M24.8196 14.2665C24.8196 18.6098 21.3147 20.5519 19.9973 21.1272C18.899 20.6462 16.0163 19.0864 15.3251 15.7612C15.3251 15.7604 15.3249 15.7598 15.3249 15.759C15.3172 15.7233 15.3107 15.687 15.3039 15.651C15.2998 15.63 15.2954 15.609 15.2916 15.5878C15.2913 15.5875 15.2913 15.5869 15.2913 15.5867C15.291 15.5861 15.291 15.5859 15.291 15.5856L15.29 15.5785C15.29 15.5785 15.29 15.5785 15.2897 15.5785V15.5782V15.5777V15.5774C15.2799 15.5237 15.2709 15.4697 15.2624 15.4155L15.2591 15.3936C15.2518 15.3465 15.2452 15.299 15.239 15.2513C15.2384 15.248 15.2382 15.245 15.2376 15.2418V15.2415L15.2332 15.2093V15.2091V15.2088C15.2272 15.1611 15.2218 15.1131 15.2166 15.0648L15.2123 15.0234V15.0228C15.2079 14.977 15.2038 14.9312 15.2 14.8851L15.1959 14.8361V14.8358C15.1926 14.7916 15.1899 14.7469 15.1874 14.7022L15.1842 14.6477V14.6474C15.182 14.6021 15.1804 14.5566 15.179 14.5108V14.5103L15.1782 14.4849C15.1779 14.4759 15.1774 14.4669 15.1774 14.4579V14.4576C15.1757 14.3952 15.1749 14.3322 15.1749 14.269C15.1749 14.2687 15.1746 14.2681 15.1746 14.2679C15.1746 14.2673 15.1749 14.2668 15.1749 14.2665V12.1646C15.7682 12.1614 16.2892 12.1475 16.8045 12.0913H16.8048C16.8708 12.0842 16.9365 12.0766 17.0017 12.0679H17.0019C17.2555 12.0346 17.4878 11.9921 17.7119 11.9384C17.7713 11.9242 17.8302 11.9089 17.8883 11.8931C17.9101 11.8871 17.9311 11.8805 17.9524 11.8746C17.9884 11.8642 18.0249 11.8541 18.0601 11.8435C18.1173 11.8257 18.1751 11.8067 18.2321 11.787C18.3477 11.747 18.462 11.7028 18.5718 11.6556L18.5721 11.6553C18.6283 11.6313 18.6844 11.6057 18.7398 11.5793C18.9437 11.4822 19.1452 11.3669 19.3385 11.2366C19.371 11.2147 19.4034 11.1924 19.4356 11.1695L19.4359 11.1692C19.6303 11.031 19.8184 10.8753 19.9945 10.7065L19.9951 10.706C19.9959 10.7052 19.9964 10.7046 19.9973 10.7041L20.0011 10.7076C20.0011 10.7076 20.0013 10.7076 20.0013 10.7079H20.0016V10.7082C20.0406 10.7452 20.0796 10.7815 20.1189 10.8169C20.1189 10.8169 20.1191 10.8172 20.1194 10.8172C20.1194 10.8175 20.1194 10.8175 20.1194 10.8175L20.1423 10.8382C20.1423 10.8382 20.1426 10.8382 20.1426 10.8385C20.1628 10.8565 20.1835 10.8745 20.205 10.893C20.2266 10.9116 20.2489 10.9304 20.2724 10.9497L20.3078 10.9786C20.3078 10.9786 20.3078 10.9789 20.3081 10.9789C20.3561 11.0182 20.3991 11.052 20.4392 11.0822C20.4392 11.0822 20.4392 11.0825 20.4395 11.0825L20.4624 11.0994C20.4624 11.0994 20.4624 11.0997 20.4627 11.0997C20.5008 11.1283 20.5393 11.1561 20.5777 11.1831H20.578V11.1834L20.5829 11.1867L20.5848 11.188C20.5851 11.1883 20.5854 11.1883 20.5856 11.1886L20.5875 11.1899C20.5979 11.1973 20.6083 11.2046 20.6186 11.2117L20.6189 11.212H20.6192C20.6614 11.2412 20.7037 11.2693 20.7462 11.2965H20.7465C20.7525 11.3006 20.7588 11.3044 20.7648 11.3083C20.7705 11.3118 20.7762 11.3153 20.7817 11.3189L20.7909 11.3243C20.7909 11.3246 20.7909 11.3246 20.7909 11.3246C20.8256 11.3462 20.8602 11.3671 20.8948 11.3876L20.9071 11.3947C20.9164 11.4004 20.9254 11.4059 20.9346 11.411L20.9349 11.4113H20.9352C20.9772 11.4356 21.0194 11.4588 21.062 11.4814L21.0622 11.4817H21.0625C21.0802 11.4912 21.0979 11.5005 21.1157 11.5097C21.1574 11.5313 21.1994 11.5526 21.2414 11.5727C22.3499 12.1058 23.5946 12.1595 24.8196 12.1649V14.2665ZM0.867604 15.013V6.27978H21.0093V10.481C20.9913 10.468 20.9731 10.4551 20.9551 10.4418L20.9548 10.4415L20.9354 10.4273C20.8989 10.3998 20.8629 10.3709 20.8269 10.3417L20.7969 10.3169C20.7607 10.2869 20.7244 10.2561 20.6887 10.2242H20.6884L20.6688 10.2062L20.6685 10.2059C20.6353 10.1762 20.6023 10.1454 20.5693 10.1141V10.1138L20.569 10.1135L20.5494 10.0947H20.5491C20.5491 10.0947 20.5488 10.0941 20.5486 10.0941C20.5139 10.0603 20.4771 10.0235 20.4398 9.98482L20.416 9.96C20.416 9.95973 20.4158 9.95973 20.4158 9.95973C20.394 9.93683 20.3743 9.91583 20.3561 9.89593C20.3449 9.88366 20.334 9.87194 20.3236 9.86049C20.3171 9.85313 20.3105 9.84604 20.3043 9.83895C20.3037 9.83813 20.3032 9.83758 20.3023 9.83704C20.2977 9.83159 20.2925 9.82668 20.2874 9.8215C20.283 9.81741 20.2792 9.81277 20.2748 9.80868C20.2737 9.80814 20.2729 9.80732 20.2721 9.80678C20.2715 9.80596 20.2707 9.80541 20.2702 9.80459C20.2666 9.80159 20.2628 9.79887 20.259 9.79587C20.2538 9.79151 20.2486 9.7866 20.2429 9.78251C20.2418 9.78169 20.2407 9.78115 20.2396 9.78033C20.235 9.77678 20.2301 9.77378 20.2252 9.77051C20.22 9.76697 20.2148 9.76315 20.2091 9.75988C20.208 9.75906 20.2069 9.75852 20.2056 9.75797C20.2001 9.75443 20.1944 9.7517 20.1884 9.7487C20.1835 9.74597 20.1788 9.74325 20.1739 9.74079C20.1726 9.74025 20.1715 9.7397 20.1704 9.73916C20.1638 9.73616 20.157 9.7337 20.1505 9.73098C20.1461 9.72934 20.1415 9.72716 20.1371 9.72552C20.1358 9.72498 20.1347 9.72471 20.1336 9.72443C20.1265 9.72198 20.1194 9.7198 20.1123 9.71789C20.1077 9.71653 20.1036 9.71489 20.0992 9.7138C20.0979 9.71353 20.0968 9.71326 20.0957 9.71298C20.0883 9.71135 20.0812 9.70998 20.0739 9.70862C20.0695 9.7078 20.0649 9.70644 20.0605 9.70589C20.0594 9.70562 20.0583 9.70562 20.0572 9.70562C20.057 9.70535 20.0567 9.70535 20.0567 9.70535C20.0496 9.70453 20.0428 9.70399 20.0357 9.70317C20.0308 9.7029 20.0262 9.70208 20.0212 9.70153C20.0212 9.70153 20.0207 9.70181 20.0207 9.70153C20.0193 9.70153 20.0182 9.70181 20.0169 9.70153C20.0106 9.70126 20.0041 9.70153 19.9978 9.70153C19.991 9.70153 19.9839 9.70126 19.9771 9.70153C19.9714 9.70181 19.9656 9.70262 19.9596 9.70317C19.9523 9.70371 19.9449 9.70453 19.9375 9.70535C19.9321 9.70644 19.9266 9.70753 19.9215 9.70835C19.9155 9.70944 19.9095 9.71026 19.9035 9.71162C19.9021 9.71217 19.9007 9.71271 19.8994 9.71298C19.8991 9.71298 19.8988 9.71298 19.8986 9.71298C19.8934 9.71435 19.8879 9.71598 19.8827 9.71762C19.8767 9.71925 19.871 9.72062 19.865 9.7228C19.8637 9.72307 19.8623 9.72389 19.8607 9.72443C19.8552 9.72634 19.8495 9.7288 19.844 9.73098C19.8386 9.73316 19.8331 9.73507 19.8277 9.73752C19.8268 9.73779 19.8263 9.73834 19.8255 9.73861C19.8249 9.73888 19.8244 9.73916 19.8241 9.73943C19.8179 9.74216 19.8119 9.74543 19.8059 9.7487C19.8012 9.75115 19.7963 9.75334 19.7914 9.75606C19.7911 9.75633 19.7906 9.75661 19.7903 9.75688C19.7898 9.75715 19.7892 9.7577 19.7887 9.75797C19.7821 9.76179 19.7756 9.76615 19.7693 9.77051C19.7644 9.77378 19.7595 9.77678 19.7546 9.78033C19.7483 9.78496 19.7421 9.79014 19.7361 9.79532C19.732 9.7986 19.7279 9.80132 19.7243 9.80487C19.7235 9.80541 19.7227 9.80623 19.7222 9.80678C19.7172 9.81114 19.7126 9.81604 19.708 9.82068C19.7025 9.82613 19.6968 9.83159 19.6916 9.83731C19.6911 9.83786 19.6905 9.8384 19.69 9.83895C19.6087 9.93029 19.5248 10.0181 19.4402 10.0999C19.4367 10.1029 19.4334 10.1059 19.4301 10.1091L19.4299 10.1094C19.4299 10.1094 19.4293 10.1097 19.4293 10.11C19.281 10.2523 19.1229 10.3834 18.9598 10.4993L18.9595 10.4996C18.9331 10.5184 18.9061 10.5369 18.8794 10.5549C18.7193 10.6626 18.5536 10.7578 18.3862 10.8374V10.8377H18.3859C18.3404 10.8595 18.2935 10.8805 18.2471 10.9006C18.1555 10.9399 18.0601 10.977 17.9636 11.0103L17.9633 11.0105C17.9153 11.0272 17.8665 11.043 17.818 11.058C17.7223 11.0874 17.6222 11.1147 17.5202 11.1392C17.3242 11.1861 17.1194 11.2235 16.8942 11.2532C16.8353 11.2611 16.7759 11.2679 16.7162 11.2744C16.1259 11.3385 15.5092 11.3437 14.7637 11.3437C14.5369 11.3437 14.3529 11.5275 14.3529 11.7546V14.2692V14.2695C14.3531 14.3393 14.3539 14.4088 14.3556 14.4775V14.4778C14.3559 14.4912 14.3564 14.5043 14.3569 14.5171L14.3578 14.5367V14.5372C14.3594 14.5874 14.361 14.6376 14.3635 14.6875C14.3635 14.6875 14.3635 14.6878 14.3635 14.688C14.364 14.7011 14.3649 14.7142 14.3657 14.7273L14.367 14.7483V14.7486C14.3698 14.7979 14.3728 14.8475 14.3763 14.8966V14.8969L14.3809 14.9514C14.385 15.0024 14.3894 15.0531 14.3946 15.1033C14.3946 15.1033 14.3946 15.1035 14.3946 15.1038L14.3992 15.1502L14.3995 15.1504V15.1507C14.4052 15.2044 14.4112 15.2579 14.418 15.3108V15.311C14.418 15.3113 14.418 15.3113 14.418 15.3116L14.4224 15.3462C14.4224 15.3465 14.4227 15.3467 14.4227 15.347C14.4262 15.3756 14.4306 15.4035 14.4347 15.4318H1.28639C1.05546 15.4318 0.867604 15.244 0.867604 15.013ZM1.28639 1.80641H20.5905C20.8215 1.80641 21.0093 1.994 21.0093 2.22493V5.45801H0.867604V2.22493C0.867604 1.994 1.05546 1.80641 1.28639 1.80641ZM25.2305 11.3437C24.0049 11.3437 22.8424 11.3434 21.8311 10.935V2.22493C21.8311 1.54085 21.2746 0.984375 20.5905 0.984375H1.28639C0.602315 0.984375 0.0458374 1.54085 0.0458374 2.22493V5.8689V15.013C0.0458374 15.6971 0.602315 16.2536 1.28639 16.2536H14.5958C14.9415 17.6193 15.6507 18.8405 16.7075 19.8877C17.572 20.7447 18.685 21.4784 19.841 21.9536C19.8909 21.974 19.9441 21.9844 19.9973 21.9844C20.0504 21.9844 20.1033 21.974 20.1535 21.9536C20.9548 21.6242 22.4868 20.8545 23.7435 19.3997C25.0028 17.9418 25.6414 16.2146 25.6414 14.2665V11.7546C25.6414 11.5275 25.4573 11.3437 25.2305 11.3437Z" fill="#1D1D1B"/>
</g>
</g>
</g>
</svg>
