<svg width="25" height="22" viewBox="0 0 25 22" fill="none" xmlns="http://www.w3.org/2000/svg">
<g id="Aiuto">
<mask id="mask0_97_1082" style="mask-type:luminance" maskUnits="userSpaceOnUse" x="0" y="0" width="25" height="22">
<path id="Clip 2" fill-rule="evenodd" clip-rule="evenodd" d="M0.803894 0.984375H24.922V21.9844H0.803894V0.984375Z" fill="white"/>
</mask>
<g mask="url(#mask0_97_1082)">
<path id="Fill 1" fill-rule="evenodd" clip-rule="evenodd" d="M24.0609 14.9179C24.0609 15.043 23.9552 15.1487 23.83 15.1487H21.1923V13.2196V9.42785H23.83C23.9552 9.42785 24.0609 9.53356 24.0609 9.65871V14.9179ZM1.66504 14.9179V9.65871C1.66504 9.53356 1.77104 9.42785 1.89619 9.42785H4.53391V13.2196V15.1487H1.89619C1.77104 15.1487 1.66504 15.043 1.66504 14.9179ZM12.2085 20.5045C12.2085 20.3816 12.3125 20.2776 12.4357 20.2776H14.3031C14.426 20.2776 14.53 20.3816 14.53 20.5045V20.8965C14.53 21.0193 14.426 21.1233 14.3031 21.1233H12.4357C12.3125 21.1233 12.2085 21.0193 12.2085 20.8965V20.5045ZM23.83 8.5667H21.1583C20.7791 4.32268 17.204 0.984375 12.8631 0.984375C8.52222 0.984375 4.94677 4.32268 4.56763 8.5667H1.89619C1.2939 8.5667 0.803894 9.0567 0.803894 9.65871V14.9179C0.803894 15.5202 1.2939 16.0099 1.89619 16.0099H4.58991C4.74734 17.0016 5.04477 17.855 5.47649 18.5505C5.91935 19.2642 6.51678 19.8339 7.25193 20.2439C8.52622 20.9545 10.0771 21.1053 11.3725 21.1276C11.4788 21.6171 11.9151 21.9845 12.4357 21.9845H14.3031C14.9031 21.9845 15.3911 21.4965 15.3911 20.8965V20.5045C15.3911 19.9045 14.9031 19.4162 14.3031 19.4162H12.4357C11.9174 19.4162 11.4831 19.7805 11.374 20.2662C10.1857 20.2451 8.77965 20.1096 7.67136 19.4916C6.37392 18.7682 5.62935 17.4793 5.39506 15.5519V13.2196V9.31356C5.39506 5.19583 8.74508 1.84552 12.8631 1.84552C16.9808 1.84552 20.3309 5.19583 20.3309 9.31356V13.2196V15.5793C20.3309 15.8173 20.5237 16.0099 20.7617 16.0099H23.83C24.432 16.0099 24.922 15.5202 24.922 14.9179V9.65871C24.922 9.0567 24.432 8.5667 23.83 8.5667Z" fill="#1D1D1B"/>
</g>
</g>
</svg>
