<svg width="46" height="22" viewBox="0 0 46 22" fill="none" xmlns="http://www.w3.org/2000/svg">
<g id="Spedizione-gratuita">
<path id="Fill 1" fill-rule="evenodd" clip-rule="evenodd" d="M44.2329 16.1612C44.2329 16.3781 44.0565 16.5541 43.84 16.5541H42.4334C42.3344 16.1555 42.1711 15.7784 41.9445 15.4286C41.9442 15.4283 41.9442 15.4279 41.9438 15.4279L41.9418 15.4246C41.9415 15.4242 41.9415 15.4236 41.9411 15.4232H41.9408V15.4229L41.9357 15.4151C41.9357 15.4151 41.9357 15.4151 41.9357 15.4148C41.9354 15.4148 41.9354 15.4145 41.9354 15.4145L41.9347 15.4131C41.9344 15.4128 41.9341 15.4128 41.9341 15.4125C41.9071 15.371 41.8792 15.3306 41.8509 15.2906C41.8506 15.2902 41.8502 15.2902 41.8499 15.2899C41.8499 15.2896 41.8499 15.2892 41.8495 15.2889L41.8381 15.2727H41.8378C41.8102 15.2343 41.7819 15.1966 41.7526 15.1593C41.7526 15.1589 41.7522 15.1589 41.7522 15.1589L41.7347 15.1364L41.7344 15.136C41.7061 15.1003 41.6772 15.065 41.6475 15.0303L41.6472 15.03C41.6472 15.03 41.6472 15.03 41.6469 15.0296L41.6243 15.0037C41.6243 15.0037 41.6243 15.0037 41.6243 15.0034C41.5953 14.9704 41.5657 14.9374 41.5358 14.9054C41.5358 14.9054 41.5358 14.9051 41.5354 14.9051L41.5098 14.8781C41.5098 14.8781 41.5098 14.8778 41.5095 14.8778C41.4795 14.8462 41.4489 14.8148 41.4176 14.7842L41.4172 14.7839C41.4098 14.7768 41.4028 14.7701 41.3954 14.763L41.389 14.7569L41.3886 14.7566C41.3573 14.7266 41.326 14.6973 41.294 14.6684C41.2937 14.6684 41.2937 14.6684 41.2933 14.668L41.293 14.6674C41.2863 14.6616 41.2792 14.6556 41.2725 14.6499L41.2678 14.6455C41.2674 14.6455 41.2674 14.6455 41.2674 14.6455L41.2667 14.6448H41.2664C41.2331 14.6152 41.1991 14.5859 41.1644 14.5579C41.1641 14.5573 41.1634 14.5573 41.163 14.5566C41.1627 14.5566 41.1624 14.5563 41.162 14.5559L41.1469 14.5438C41.1465 14.5438 41.1465 14.5438 41.1465 14.5438C41.0324 14.4519 40.9115 14.3657 40.7873 14.2879C40.787 14.2876 40.7866 14.2873 40.7863 14.2873L40.7816 14.2842C40.7725 14.2782 40.7634 14.2724 40.754 14.2667V14.2664C40.754 14.2664 40.7536 14.266 40.7533 14.266C40.7533 14.266 40.753 14.266 40.753 14.2657C40.728 14.2506 40.7031 14.2361 40.6779 14.2219L40.6648 14.2142C40.6644 14.2142 40.6644 14.2142 40.6644 14.2142L40.6489 14.2051C40.6334 14.196 40.6183 14.1873 40.6025 14.1785C40.6025 14.1785 40.6025 14.1785 40.6021 14.1785V14.1782C40.5782 14.1654 40.554 14.1526 40.5297 14.1401L40.519 14.1347V14.1344L40.5065 14.128C40.4866 14.1179 40.4664 14.1075 40.4466 14.0977L40.4462 14.0974C40.4217 14.0852 40.3964 14.0738 40.3712 14.0623L40.3664 14.06C40.3664 14.06 40.3664 14.06 40.3661 14.06C40.3399 14.0475 40.3133 14.0354 40.2863 14.024V14.0236C40.286 14.0236 40.286 14.0236 40.286 14.0236C40.2597 14.0122 40.2335 14.0014 40.2069 13.9906H40.2065C40.1782 13.9792 40.15 13.9677 40.121 13.957C40.121 13.957 40.121 13.957 40.1207 13.957C40.0947 13.9472 40.0685 13.9378 40.0422 13.9283C40.0422 13.9283 40.0422 13.9283 40.0419 13.9283C40.0126 13.9179 39.983 13.9078 39.9533 13.8984C39.953 13.8984 39.953 13.8984 39.953 13.8984C39.9271 13.89 39.9012 13.8819 39.8752 13.8738H39.8749C39.8749 13.8738 39.8749 13.8738 39.8746 13.8738C39.8436 13.8644 39.8119 13.8556 39.7803 13.8469C39.7544 13.8401 39.7288 13.8331 39.7032 13.8267C39.6705 13.8186 39.6375 13.8112 39.6049 13.8041H39.6045L39.5991 13.8028C39.5756 13.7977 39.552 13.7927 39.5284 13.788H39.5281C39.4934 13.7809 39.4587 13.7748 39.4237 13.7691H39.4234C39.4234 13.7691 39.4234 13.7691 39.4231 13.7691L39.4072 13.7664C39.388 13.763 39.3692 13.7597 39.35 13.757H39.3497C39.3126 13.7516 39.2753 13.7472 39.2379 13.7428L39.2375 13.7425L39.2211 13.7405C39.2042 13.7385 39.187 13.7364 39.1699 13.7348C39.1699 13.7348 39.1695 13.7348 39.1692 13.7348C39.1264 13.7304 39.083 13.7273 39.0396 13.7247L39.0275 13.724C39.014 13.723 39.0005 13.722 38.9867 13.7213H38.986V13.721C38.8584 13.7149 38.7413 13.7149 38.6137 13.721C38.6133 13.721 38.6133 13.7213 38.6133 13.7213H38.613C38.5992 13.722 38.5857 13.723 38.5719 13.724L38.5595 13.7247L38.5591 13.725C38.5164 13.7273 38.4739 13.7304 38.4315 13.7348C38.4312 13.7348 38.4312 13.7348 38.4309 13.7348C38.4133 13.7364 38.3958 13.7385 38.3787 13.7405L38.3622 13.7425H38.3618C38.3241 13.7472 38.2864 13.7516 38.2494 13.757H38.249C38.2295 13.76 38.2103 13.7634 38.1911 13.7664L38.1756 13.7691C38.141 13.7748 38.1063 13.7809 38.0719 13.7876C38.0716 13.7876 38.0716 13.7876 38.0716 13.7876C38.0494 13.792 38.0275 13.7967 38.0056 13.8018L37.9955 13.8038C37.9955 13.8038 37.9955 13.8038 37.9952 13.8041C37.9952 13.8041 37.9952 13.8041 37.9948 13.8041C37.9619 13.8112 37.9289 13.8186 37.8962 13.827H37.8959C37.8703 13.8334 37.8447 13.8401 37.8191 13.8469C37.8191 13.8469 37.8191 13.8469 37.8191 13.8472H37.8184C37.7871 13.8556 37.7558 13.8644 37.7248 13.8738H37.7245C37.6982 13.8819 37.672 13.89 37.646 13.8984C37.6457 13.8984 37.6454 13.8987 37.6454 13.8987C37.6157 13.9081 37.5868 13.9179 37.5575 13.9283H37.5572C37.5309 13.9378 37.5046 13.9472 37.4787 13.957H37.4784C37.4494 13.9677 37.4211 13.9792 37.3925 13.9906C37.3925 13.991 37.3922 13.991 37.3918 13.991C37.3659 14.0017 37.3397 14.0122 37.3137 14.0236C37.3137 14.0236 37.3137 14.0236 37.3134 14.0236C37.3134 14.0236 37.3134 14.0236 37.3131 14.0236C37.2865 14.0354 37.2599 14.0475 37.2336 14.0597H37.2333L37.2242 14.064C37.2003 14.0748 37.1767 14.0859 37.1531 14.0974C37.1323 14.1078 37.1114 14.1186 37.0905 14.1294L37.0794 14.1351L37.0666 14.1418C37.0437 14.1536 37.0205 14.1657 36.9979 14.1782C36.9976 14.1782 36.9976 14.1782 36.9976 14.1782L36.9973 14.1785H36.9969C36.9811 14.1873 36.9656 14.1963 36.9505 14.2051L36.935 14.2142H36.9346L36.9191 14.2233C36.8949 14.2371 36.8707 14.2512 36.8468 14.2657L36.8464 14.266C36.8461 14.266 36.8461 14.266 36.8461 14.266L36.8457 14.2664C36.8363 14.2721 36.8272 14.2778 36.8181 14.2839L36.8148 14.2862H36.8144C36.7202 14.3452 36.6279 14.4088 36.5394 14.4761C36.5293 14.4839 36.5195 14.492 36.5094 14.4997C36.4905 14.5142 36.4717 14.5283 36.4535 14.5431C36.4532 14.5435 36.4528 14.5435 36.4528 14.5438C36.4468 14.5482 36.441 14.5529 36.4353 14.5576C36.435 14.5576 36.435 14.5576 36.435 14.5576C36.4003 14.5862 36.3663 14.6152 36.333 14.6448H36.3326L36.3272 14.6495C36.3202 14.6556 36.3128 14.662 36.3057 14.6684L36.3054 14.6687L36.305 14.6691H36.3047V14.6694C36.2724 14.698 36.2411 14.7276 36.2101 14.7573C36.2097 14.7576 36.2097 14.7576 36.2094 14.7579C36.2094 14.7579 36.2091 14.7583 36.2087 14.7586L36.1815 14.7845C36.1508 14.8145 36.1212 14.8451 36.0916 14.8761L36.0912 14.8765L36.0902 14.8775L36.0899 14.8778L36.0643 14.9044C36.0643 14.9044 36.064 14.9047 36.064 14.9051C36.064 14.9051 36.0636 14.9054 36.0633 14.9057C36.0333 14.9377 36.004 14.9707 35.9751 15.0037C35.9747 15.0041 35.9744 15.0044 35.9741 15.0047C35.9741 15.0051 35.9737 15.0054 35.9734 15.0057L35.9512 15.0313C35.9508 15.0317 35.9508 15.032 35.9505 15.032C35.9215 15.066 35.8933 15.1003 35.8657 15.1354L35.8653 15.1357L35.8468 15.1593L35.8465 15.1596C35.8175 15.1966 35.7892 15.2343 35.7616 15.2724C35.7616 15.2727 35.7616 15.2727 35.7616 15.2727C35.7613 15.2731 35.7613 15.2731 35.7613 15.2731L35.7488 15.2909C35.7485 15.2909 35.7485 15.2909 35.7485 15.2909C35.7485 15.2909 35.7485 15.2912 35.7482 15.2912L35.7478 15.2919V15.2923C35.7192 15.3323 35.6913 15.3731 35.664 15.4145C35.664 15.4148 35.6636 15.4151 35.6633 15.4155C35.6633 15.4158 35.663 15.4162 35.6626 15.4165L35.6566 15.4263C35.6562 15.4266 35.6562 15.4266 35.6562 15.4266C35.6559 15.4276 35.6556 15.4279 35.6552 15.4286C35.4286 15.7784 35.265 16.1555 35.1664 16.5541H33.1345V4.71903H38.0797C41.4725 4.71903 44.2329 7.47916 44.2329 10.8723V16.1612ZM38.7999 20.192C37.2942 20.192 36.0693 18.9672 36.0693 17.4615C36.0693 17.3528 36.0764 17.242 36.0909 17.1238C36.1417 16.7117 36.2825 16.3255 36.5091 15.9767C36.5094 15.9761 36.5097 15.9757 36.5101 15.9751C36.5101 15.9747 36.5104 15.9747 36.5107 15.974C36.5111 15.9737 36.5114 15.973 36.5118 15.9724C36.5121 15.9717 36.5128 15.971 36.5134 15.97C36.5333 15.9397 36.5538 15.9097 36.5747 15.8801C36.575 15.8801 36.575 15.8798 36.5754 15.8798C36.5754 15.8794 36.5754 15.8794 36.5754 15.8794L36.5848 15.866C36.605 15.8384 36.6256 15.8111 36.6464 15.7842C36.6464 15.7842 36.6464 15.7838 36.6468 15.7838L36.6606 15.7663V15.766C36.6811 15.7404 36.702 15.7148 36.7232 15.6899C36.7232 15.6899 36.7232 15.6899 36.7235 15.6899C36.7235 15.6895 36.7239 15.6895 36.7239 15.6892L36.738 15.673L36.74 15.6704C36.7404 15.6704 36.7404 15.6704 36.7404 15.6704C36.7404 15.67 36.7407 15.67 36.7407 15.67C36.7619 15.6458 36.7831 15.6215 36.8053 15.598L36.8235 15.5791C36.8235 15.5791 36.8239 15.5788 36.8239 15.5784C36.8242 15.5781 36.8245 15.5781 36.8245 15.5778C36.8464 15.5549 36.8686 15.532 36.8912 15.5101L36.9117 15.4906C36.935 15.4683 36.9579 15.4465 36.9818 15.4252L36.9821 15.4249L37.0013 15.4084V15.4081C37.0262 15.3865 37.0508 15.3653 37.076 15.3444L37.0888 15.3343C37.1306 15.3007 37.1737 15.2684 37.2178 15.2367C37.2619 15.2054 37.307 15.1754 37.3528 15.1465L37.3767 15.1313C37.3922 15.1219 37.408 15.1128 37.4238 15.1037L37.441 15.0936C37.4413 15.0936 37.4413 15.0936 37.4413 15.0936L37.4619 15.0818C37.47 15.0771 37.478 15.0724 37.4861 15.0677C37.4865 15.0677 37.4865 15.0677 37.4865 15.0677C37.5013 15.0593 37.5164 15.0515 37.5316 15.0438L37.5464 15.036H37.5467C37.5467 15.036 37.5467 15.036 37.5471 15.036L37.5592 15.0296C37.5726 15.0226 37.5864 15.0155 37.6003 15.0088C37.6161 15.0007 37.6326 14.9933 37.6491 14.9855L37.6585 14.9815V14.9812C37.678 14.9724 37.6972 14.9633 37.7171 14.9549C37.7359 14.9468 37.7551 14.9391 37.774 14.931C37.7743 14.931 37.7747 14.931 37.7747 14.931C37.7949 14.9226 37.8154 14.9145 37.8359 14.9068C37.8359 14.9068 37.8359 14.9068 37.8363 14.9068C37.8551 14.8997 37.8743 14.8926 37.8935 14.8859C37.8938 14.8859 37.8938 14.8859 37.8938 14.8859C37.9154 14.8781 37.9366 14.8711 37.9585 14.864L37.9592 14.8637C37.978 14.8576 37.9969 14.8519 38.0157 14.8462C38.0386 14.8391 38.0615 14.8327 38.0847 14.8266C38.1033 14.8216 38.1218 14.8165 38.1403 14.8118C38.1406 14.8118 38.1406 14.8118 38.1406 14.8118C38.1645 14.8061 38.1881 14.8007 38.212 14.7953L38.2231 14.793C38.2379 14.7896 38.2527 14.7866 38.2679 14.7835C38.2931 14.7785 38.3184 14.7741 38.3437 14.7701L38.344 14.7697L38.3618 14.767C38.3736 14.765 38.3857 14.7627 38.3975 14.761H38.3979C38.4248 14.7569 38.4524 14.7539 38.4797 14.7505C38.4797 14.7505 38.4797 14.7505 38.48 14.7505L38.5032 14.7478C38.512 14.7468 38.5204 14.7455 38.5292 14.7448C38.5292 14.7448 38.5292 14.7448 38.5295 14.7448C38.5608 14.7418 38.5921 14.7398 38.6234 14.7377H38.6238L38.6638 14.7347H38.6642C38.7574 14.73 38.8419 14.73 38.9355 14.7347L38.9756 14.7377H38.9759C39.0076 14.7398 39.0389 14.7418 39.0699 14.7448H39.0702C39.079 14.7455 39.0877 14.7468 39.0961 14.7478L39.12 14.7505C39.1473 14.7539 39.1746 14.7569 39.2019 14.761C39.2136 14.7627 39.2251 14.7647 39.2365 14.7667L39.2551 14.7697H39.2554C39.281 14.7741 39.3062 14.7785 39.3315 14.7835C39.3315 14.7835 39.3315 14.7835 39.3318 14.7835C39.3483 14.7869 39.3648 14.7903 39.381 14.794L39.3867 14.7953H39.387C39.4109 14.8007 39.4352 14.8061 39.4591 14.8118C39.4779 14.8165 39.4965 14.8216 39.5153 14.8266C39.5382 14.833 39.5611 14.8394 39.5837 14.8462C39.6028 14.8519 39.6217 14.8576 39.6406 14.8637C39.6624 14.8707 39.684 14.8781 39.7055 14.8859H39.7059H39.7062C39.7254 14.8926 39.7443 14.8997 39.7634 14.9068C39.7843 14.9145 39.8049 14.9229 39.8251 14.931H39.8254C39.8446 14.9391 39.8638 14.9468 39.8826 14.9549H39.883C39.9022 14.9633 39.9214 14.9724 39.9405 14.9812C39.9405 14.9812 39.9409 14.9812 39.9412 14.9815C39.9412 14.9815 39.9412 14.9815 39.9416 14.9815L39.9476 14.9845C39.9651 14.9923 39.9823 15.0004 39.9995 15.0088C40.0126 15.0152 40.0254 15.0219 40.0382 15.0286L40.053 15.036L40.0533 15.0364L40.0648 15.0424C40.0809 15.0505 40.0974 15.0589 40.1133 15.0677C40.1213 15.0724 40.1294 15.0771 40.1375 15.0818L40.1587 15.0939C40.1587 15.0939 40.1587 15.0939 40.1591 15.0939L40.1735 15.1024C40.19 15.1118 40.2065 15.1212 40.223 15.1313L40.2439 15.1448C40.2442 15.1451 40.2446 15.1451 40.2449 15.1455C40.2452 15.1458 40.2456 15.1458 40.2459 15.1461C40.3378 15.2037 40.4271 15.267 40.5112 15.335C40.5116 15.3354 40.5119 15.3354 40.5119 15.3357L40.5237 15.3448C40.5489 15.3653 40.5735 15.3869 40.5981 15.4081C40.5981 15.4081 40.5984 15.4084 40.5988 15.4087C40.5988 15.4087 40.5988 15.4091 40.5991 15.4091L40.6183 15.4256C40.6419 15.4468 40.6648 15.4683 40.6873 15.4902C40.6876 15.4906 40.688 15.4906 40.688 15.4909C40.6883 15.4909 40.6883 15.4912 40.6887 15.4916L40.7075 15.5094C40.7078 15.5098 40.7078 15.5098 40.7082 15.5098C40.7311 15.5323 40.7533 15.5552 40.7752 15.5784H40.7755V15.5788L40.7937 15.5976C40.794 15.5976 40.794 15.598 40.794 15.598C40.8163 15.6219 40.8381 15.6461 40.8594 15.6707H40.8597L40.8759 15.6895C40.8974 15.7148 40.9186 15.7404 40.9391 15.7663L40.9395 15.7666L40.9523 15.7831C40.9526 15.7835 40.9526 15.7835 40.9526 15.7838C40.9742 15.8111 40.9947 15.8387 41.0152 15.8666V15.867L41.024 15.8791C41.024 15.8794 41.024 15.8794 41.0243 15.8794C41.0455 15.9094 41.0661 15.9394 41.0859 15.97C41.0863 15.9703 41.0863 15.9703 41.0866 15.9707C41.087 15.9713 41.0876 15.972 41.0883 15.973C41.089 15.974 41.0893 15.9751 41.09 15.9761C41.3169 16.3252 41.4576 16.7114 41.5085 17.1238C41.523 17.2423 41.53 17.3528 41.53 17.4615C41.53 18.9672 40.3052 20.192 38.7999 20.192ZM21.1175 20.192C19.6122 20.192 18.3874 18.9672 18.3874 17.4615C18.3874 17.3521 18.3944 17.2413 18.4089 17.1231C18.4561 16.743 18.5803 16.3858 18.7769 16.0585C18.7934 16.0313 18.8096 16.0037 18.8271 15.9767C18.8271 15.9767 18.8271 15.9764 18.8274 15.9761C18.8288 15.974 18.8301 15.972 18.8311 15.9703V15.97C18.851 15.9397 18.8715 15.9097 18.8927 15.8801C18.8931 15.8801 18.8931 15.8798 18.8931 15.8798C18.8934 15.8794 18.8934 15.8794 18.8934 15.8794L18.9028 15.8663C18.9227 15.8384 18.9436 15.8108 18.9648 15.7838V15.7835L18.9786 15.766C18.9991 15.7404 19.02 15.7148 19.0412 15.6899L19.0415 15.6895L19.0577 15.671L19.058 15.6704C19.058 15.6704 19.0584 15.6704 19.0584 15.67C19.0796 15.6458 19.1011 15.6219 19.123 15.5983L19.1419 15.5784H19.1422C19.1641 15.5552 19.1863 15.5323 19.2092 15.5101L19.2294 15.4906H19.2298C19.2526 15.4687 19.2755 15.4468 19.2991 15.4256L19.3186 15.4087H19.319C19.3432 15.3872 19.3678 15.366 19.393 15.3455L19.4055 15.3357V15.3354C19.4058 15.3354 19.4058 15.3354 19.4058 15.3354C19.4483 15.301 19.4917 15.2684 19.5361 15.2367C19.5806 15.2051 19.6264 15.1744 19.6728 15.1451C19.6732 15.1451 19.6732 15.1448 19.6735 15.1448L19.6934 15.132C19.6934 15.132 19.6934 15.132 19.6937 15.132C19.6937 15.132 19.6937 15.1317 19.694 15.1317C19.7102 15.1216 19.7267 15.1121 19.7435 15.1027L19.7594 15.0936L19.7796 15.0818C19.7876 15.0771 19.7957 15.0724 19.8041 15.0677C19.819 15.0596 19.8341 15.0519 19.8489 15.0441L19.8644 15.0364L19.8816 15.0273C19.8934 15.0212 19.9051 15.0148 19.9169 15.0091C19.9173 15.0091 19.9173 15.0088 19.9176 15.0088C19.9179 15.0088 19.9179 15.0088 19.9183 15.0084C19.9344 15.0007 19.9509 14.9929 19.9674 14.9855L19.9765 14.9812C19.9779 14.9805 19.9792 14.9798 19.9809 14.9791C19.9987 14.9711 20.0162 14.963 20.0344 14.9552L20.0348 14.9549C20.054 14.9468 20.0728 14.9387 20.0923 14.931C20.1129 14.9229 20.1334 14.9145 20.154 14.9068H20.1543C20.1731 14.8993 20.1923 14.8926 20.2115 14.8859C20.2115 14.8859 20.2115 14.8859 20.2119 14.8859C20.2331 14.8781 20.2546 14.8711 20.2765 14.864C20.2957 14.8576 20.3146 14.8519 20.3341 14.8462C20.3341 14.8462 20.3341 14.8458 20.3344 14.8458C20.3566 14.8391 20.3792 14.833 20.4018 14.8266C20.4206 14.8216 20.4395 14.8165 20.4587 14.8118C20.4826 14.8061 20.5065 14.8007 20.5307 14.7953L20.5381 14.7936C20.5539 14.7903 20.5698 14.7866 20.5856 14.7835H20.5859C20.6108 14.7785 20.6364 14.7741 20.6617 14.7701L20.6809 14.7667C20.6923 14.7647 20.7041 14.7627 20.7159 14.761C20.7428 14.7569 20.7697 14.7539 20.797 14.7509L20.8216 14.7478C20.83 14.7468 20.8384 14.7455 20.8468 14.7448C20.8472 14.7448 20.8472 14.7448 20.8472 14.7448C20.8475 14.7448 20.8475 14.7448 20.8475 14.7448C20.8788 14.7418 20.9098 14.7398 20.9415 14.7377L20.9819 14.7347C21.0751 14.73 21.16 14.73 21.2532 14.7347L21.2926 14.7374H21.2933C21.2936 14.7377 21.2936 14.7377 21.294 14.7377C21.3253 14.7398 21.3569 14.7418 21.3879 14.7448H21.3882C21.397 14.7455 21.4054 14.7468 21.4142 14.7478L21.4377 14.7505C21.4653 14.7539 21.4926 14.7569 21.5199 14.761C21.5317 14.7627 21.5431 14.7647 21.5546 14.7667L21.5731 14.7697H21.5734C21.5987 14.7741 21.6243 14.7785 21.6495 14.7835H21.6498C21.6663 14.7869 21.6828 14.7903 21.699 14.794L21.7044 14.7953H21.7047C21.729 14.8007 21.7529 14.8061 21.7768 14.8118H21.7771C21.796 14.8165 21.8145 14.8216 21.8333 14.8266C21.8562 14.833 21.8791 14.8394 21.902 14.8462C21.9209 14.8519 21.9397 14.8576 21.9582 14.8637H21.9586C21.9801 14.8707 22.002 14.8781 22.0232 14.8855C22.0236 14.8859 22.0236 14.8859 22.0239 14.8859L22.0242 14.8862C22.0434 14.8926 22.0623 14.8993 22.0808 14.9064L22.0811 14.9068C22.102 14.9145 22.1222 14.9226 22.1427 14.931H22.1431C22.1623 14.9391 22.1815 14.9468 22.2007 14.9549C22.2007 14.9549 22.2007 14.9549 22.201 14.9549C22.2202 14.9633 22.2394 14.9724 22.2586 14.9812H22.2589V14.9815L22.2673 14.9852C22.2838 14.9929 22.3007 15.0007 22.3171 15.0084V15.0088C22.3303 15.0152 22.3431 15.0219 22.3562 15.0283L22.3707 15.036C22.371 15.036 22.371 15.036 22.371 15.036L22.3865 15.0441C22.4013 15.0519 22.4165 15.0596 22.4309 15.0677H22.4313C22.4397 15.0724 22.4474 15.0771 22.4555 15.0818L22.4764 15.0939L22.4926 15.103C22.5087 15.1125 22.5249 15.1216 22.5407 15.1313L22.5636 15.1458C22.6559 15.2037 22.7451 15.2673 22.8292 15.3354C22.8296 15.3354 22.8299 15.3357 22.8303 15.3357L22.8417 15.3451C22.8673 15.3657 22.8919 15.3872 22.9164 15.4087C22.9164 15.4087 22.9164 15.4087 22.9168 15.4087L22.936 15.4256H22.9363C22.9599 15.4468 22.9828 15.4687 23.0057 15.4906L23.0265 15.5104C23.0491 15.5323 23.071 15.5552 23.0929 15.5781H23.0932L23.1127 15.5986C23.1346 15.6222 23.1562 15.6461 23.1774 15.6704C23.1781 15.6714 23.1787 15.672 23.1794 15.6727L23.1932 15.6889C23.1932 15.6889 23.1935 15.6892 23.1935 15.6895C23.1939 15.6895 23.1939 15.6899 23.1942 15.6899C23.2154 15.7148 23.2363 15.74 23.2565 15.766L23.2703 15.7831V15.7835L23.2706 15.7838C23.2922 15.8111 23.3127 15.8387 23.3333 15.867L23.3407 15.8778C23.341 15.8781 23.3413 15.8781 23.3413 15.8784C23.3417 15.8791 23.342 15.8794 23.3424 15.8798C23.3632 15.9094 23.3838 15.939 23.4036 15.9693C23.405 15.9713 23.4063 15.9737 23.4077 15.9757C23.408 15.9761 23.408 15.9764 23.408 15.9764C23.4252 16.0023 23.4403 16.0289 23.4565 16.0552C23.6265 16.3373 23.743 16.6424 23.8019 16.9649C23.8114 17.0174 23.8198 17.0703 23.8262 17.1235C23.841 17.2417 23.8481 17.3524 23.8481 17.4615C23.8481 18.9672 22.6232 20.192 21.1175 20.192ZM15.0737 16.1612V1.6148C15.0737 1.39798 15.2501 1.22155 15.4666 1.22155H31.7265C31.9433 1.22155 32.1197 1.39798 32.1197 1.6148V4.21165V16.5541H24.751C24.6521 16.1538 24.4878 15.7754 24.2598 15.4242H24.2595C24.2595 15.4239 24.2591 15.4236 24.2591 15.4236V15.4232C24.2571 15.4205 24.2551 15.4175 24.2534 15.4148V15.4145C24.2531 15.4141 24.2524 15.4135 24.2524 15.4128C24.2521 15.4125 24.2517 15.4125 24.2517 15.4121C24.2255 15.3721 24.1985 15.333 24.1709 15.2939C24.1709 15.2939 24.1706 15.2936 24.1706 15.2933L24.1692 15.2916C24.1692 15.2912 24.1689 15.2912 24.1689 15.2909H24.1686L24.1568 15.2741C24.1568 15.2737 24.1565 15.2737 24.1565 15.2734C24.1561 15.2731 24.1558 15.2727 24.1558 15.2724C24.1278 15.234 24.0996 15.1963 24.0706 15.1593L24.0703 15.1589L24.0531 15.137C24.0531 15.1367 24.0528 15.1364 24.0524 15.1364C24.0524 15.136 24.0521 15.136 24.0521 15.1357C24.0245 15.1007 23.9959 15.0663 23.9669 15.0323C23.9666 15.032 23.9662 15.0317 23.9662 15.0313L23.945 15.0067V15.0071C23.944 15.0061 23.9433 15.0051 23.9427 15.0041C23.9134 14.9704 23.8837 14.9374 23.8534 14.9051L23.8531 14.9047L23.8279 14.8781C23.8279 14.8778 23.8275 14.8778 23.8275 14.8778C23.7975 14.8462 23.7669 14.8148 23.7356 14.7842C23.7356 14.7842 23.7356 14.7842 23.7353 14.7842C23.7353 14.7842 23.7353 14.7839 23.7349 14.7839L23.7083 14.7583C23.708 14.7579 23.708 14.7579 23.708 14.7579C23.6763 14.7276 23.6444 14.6977 23.6117 14.6684L23.6114 14.668L23.5858 14.6458C23.5858 14.6458 23.5858 14.6458 23.5854 14.6455C23.5854 14.6455 23.5854 14.6455 23.5851 14.6451C23.5524 14.6165 23.5198 14.5883 23.4861 14.561C23.4854 14.5603 23.4851 14.56 23.4844 14.5593C23.4838 14.559 23.4831 14.5583 23.4824 14.5579C23.4824 14.5579 23.4821 14.5576 23.4817 14.5573C23.4817 14.5573 23.4814 14.5573 23.4814 14.5569C23.476 14.5529 23.471 14.5485 23.4646 14.5438C23.4642 14.5435 23.4639 14.5435 23.4639 14.5431C23.3491 14.4509 23.2279 14.3644 23.103 14.2862C23.1026 14.2862 23.1026 14.2862 23.1026 14.2862L23.0979 14.2829C23.0895 14.2775 23.0811 14.2721 23.0727 14.2667C23.0723 14.2667 23.072 14.2667 23.072 14.2664C23.0717 14.2664 23.0717 14.2664 23.0717 14.2664C23.0471 14.2512 23.0222 14.2371 22.9973 14.2226L22.9824 14.2142C22.9821 14.2142 22.9821 14.2139 22.9821 14.2139L22.9673 14.2051C22.9518 14.1964 22.9366 14.1876 22.9208 14.1788L22.9205 14.1785C22.8979 14.166 22.875 14.1543 22.8521 14.1425L22.8377 14.1351L22.8373 14.1347L22.8242 14.128C22.8043 14.1176 22.7845 14.1075 22.7643 14.0977C22.7643 14.0974 22.7639 14.0974 22.7639 14.0974C22.7397 14.0856 22.7154 14.0745 22.6912 14.063L22.6841 14.06V14.0597H22.6835C22.6572 14.0475 22.6309 14.0354 22.6043 14.024C22.6043 14.024 22.6043 14.0236 22.604 14.0236C22.604 14.0236 22.604 14.0236 22.6037 14.0236C22.5777 14.0125 22.5515 14.0017 22.5252 13.991C22.5252 13.991 22.5249 13.991 22.5249 13.9906C22.4966 13.9792 22.468 13.9681 22.4394 13.957H22.439C22.4134 13.9472 22.3875 13.9378 22.3613 13.929C22.3613 13.929 22.3613 13.9287 22.3609 13.9287C22.3609 13.9287 22.3606 13.9287 22.3602 13.9283H22.3599C22.3599 13.9283 22.3599 13.9283 22.3596 13.9283C22.3303 13.9179 22.3007 13.9078 22.271 13.898C22.2707 13.898 22.2707 13.898 22.2707 13.898C22.2448 13.8896 22.2188 13.8815 22.1929 13.8738C22.1929 13.8738 22.1929 13.8738 22.1926 13.8738C22.1926 13.8738 22.1926 13.8738 22.1922 13.8738C22.1613 13.8644 22.13 13.8556 22.0983 13.8469C22.0983 13.8469 22.0983 13.8469 22.098 13.8469C22.0727 13.8401 22.0471 13.8334 22.0212 13.827C22.0212 13.827 22.0212 13.827 22.0209 13.8267C21.9885 13.8186 21.9555 13.8112 21.9226 13.8041L21.9172 13.8028C21.8939 13.7977 21.8704 13.7927 21.8465 13.788H21.8461C21.8114 13.7809 21.7768 13.7748 21.7418 13.7691H21.7414H21.7411L21.7253 13.7664C21.7061 13.763 21.6869 13.7597 21.668 13.757H21.6677C21.6306 13.7516 21.5933 13.7472 21.5559 13.7428H21.5556L21.5391 13.7408C21.5219 13.7385 21.5047 13.7364 21.4876 13.7348H21.4872C21.4448 13.7307 21.402 13.7277 21.3593 13.725C21.3589 13.725 21.3589 13.725 21.3586 13.725L21.3462 13.724C21.3323 13.723 21.3185 13.722 21.3047 13.7213H21.3041C21.3041 13.7213 21.3041 13.721 21.3037 13.721C21.1755 13.7149 21.06 13.7149 20.9314 13.721V13.7213H20.9307C20.9172 13.722 20.9034 13.723 20.8896 13.724L20.8775 13.725C20.8347 13.7273 20.792 13.7304 20.7495 13.7348H20.7489C20.7485 13.7348 20.7485 13.7348 20.7485 13.7348H20.7482H20.7479C20.7307 13.7364 20.7139 13.7385 20.6967 13.7405L20.6799 13.7425C20.6425 13.7469 20.6048 13.7516 20.5677 13.757H20.5674C20.5482 13.76 20.529 13.763 20.5098 13.7664L20.4937 13.7691H20.4933C20.4587 13.7748 20.424 13.7809 20.3896 13.7876L20.3893 13.788C20.3664 13.7923 20.3435 13.7974 20.3206 13.8024L20.3132 13.8041H20.3129C20.3129 13.8041 20.3129 13.8041 20.3125 13.8041C20.2799 13.8112 20.2469 13.8186 20.2146 13.8267C20.1886 13.8331 20.163 13.8401 20.1375 13.8469C20.1371 13.8469 20.1368 13.8472 20.1364 13.8472H20.1361C20.1048 13.8556 20.0742 13.8644 20.0432 13.8738H20.0428C20.0166 13.8815 19.9903 13.89 19.9644 13.898V13.8984C19.9344 13.9078 19.9045 13.9179 19.8748 13.9283C19.8748 13.9283 19.8748 13.9283 19.8745 13.9287C19.8482 13.9378 19.822 13.9472 19.7957 13.9573C19.7674 13.9677 19.7395 13.9792 19.7115 13.9903C19.7112 13.9903 19.7112 13.9903 19.7112 13.9903V13.9906C19.6846 14.0014 19.658 14.0122 19.6318 14.0233C19.6318 14.0233 19.6318 14.0236 19.6314 14.0236L19.6311 14.024C19.6058 14.0347 19.5809 14.0462 19.556 14.0576V14.058C19.5547 14.0586 19.5533 14.059 19.552 14.0597L19.5432 14.0637C19.5193 14.0745 19.4954 14.0856 19.4718 14.097L19.4715 14.0974C19.4712 14.0974 19.4708 14.0977 19.4708 14.0977C19.4705 14.0977 19.4701 14.098 19.4698 14.098C19.451 14.1075 19.4321 14.1172 19.4132 14.127L19.3988 14.1344C19.3984 14.1344 19.3984 14.1347 19.3981 14.1347C19.3981 14.1347 19.3981 14.1347 19.3978 14.1347L19.3836 14.1425C19.3607 14.1539 19.3382 14.166 19.3156 14.1782L19.3153 14.1785C19.2994 14.1873 19.2836 14.1964 19.2681 14.2054L19.2533 14.2139L19.2388 14.2223C19.2139 14.2364 19.189 14.2509 19.1644 14.266C19.1641 14.266 19.1641 14.266 19.1641 14.266C19.1638 14.2664 19.1638 14.2664 19.1638 14.2664C19.1634 14.2664 19.1634 14.2664 19.1634 14.2664C19.1631 14.2667 19.1631 14.2667 19.1631 14.2667C19.1547 14.2721 19.1459 14.2775 19.1345 14.2849C19.1143 14.2977 19.0944 14.3108 19.0749 14.3236C19.0631 14.331 19.0513 14.3384 19.0399 14.3462C19.0217 14.3583 19.0038 14.3711 18.9857 14.3835C18.9729 14.3923 18.9601 14.4007 18.9476 14.4098C18.8961 14.4465 18.8459 14.4846 18.7971 14.5233C18.7884 14.53 18.7793 14.5367 18.7705 14.5438V14.5441C18.7641 14.5489 18.7581 14.5536 18.7523 14.5583C18.7517 14.5586 18.7513 14.5593 18.751 14.5596C18.7166 14.5876 18.6833 14.6162 18.65 14.6451C18.65 14.6451 18.65 14.6455 18.6496 14.6455C18.6496 14.6455 18.6496 14.6458 18.6493 14.6458L18.6241 14.668C18.6237 14.668 18.6237 14.6684 18.6237 14.6684C18.6237 14.6684 18.6237 14.6684 18.6234 14.6684C18.5911 14.6977 18.5591 14.7276 18.5274 14.7576V14.7579L18.4995 14.7845C18.4995 14.7845 18.4995 14.7849 18.4992 14.7849C18.4682 14.8152 18.4379 14.8462 18.4079 14.8775V14.8778L18.3827 14.9041C18.3827 14.9044 18.3823 14.9044 18.382 14.9047C18.382 14.9051 18.3816 14.9054 18.3813 14.9057C18.3517 14.9374 18.3227 14.9697 18.2941 15.0024C18.2941 15.0024 18.2938 15.0027 18.2938 15.003L18.2931 15.0037H18.2928V15.0041L18.2695 15.0307C18.2695 15.031 18.2692 15.0313 18.2689 15.0317C18.2399 15.0657 18.2113 15.1003 18.1833 15.1357C18.183 15.1357 18.183 15.136 18.183 15.136L18.1645 15.1596C18.1355 15.197 18.1073 15.2343 18.0796 15.2727H18.0793V15.2731L18.0665 15.2909L18.0662 15.2912L18.0658 15.2919C18.0658 15.2919 18.0658 15.2923 18.0655 15.2923C18.0382 15.331 18.0113 15.37 17.9854 15.4098C17.985 15.4101 17.9847 15.4104 17.9844 15.4108C17.984 15.4114 17.9834 15.4125 17.983 15.4131C17.9827 15.4135 17.9823 15.4141 17.982 15.4145C17.982 15.4148 17.9817 15.4148 17.9817 15.4151C17.98 15.4178 17.978 15.4209 17.9766 15.4229V15.4232C17.9766 15.4232 17.9763 15.4236 17.9759 15.4239C17.748 15.7751 17.5834 16.1538 17.484 16.5541H15.4666C15.2501 16.5541 15.0737 16.3781 15.0737 16.1612ZM38.0797 3.70393H33.1345V1.6148C33.1345 0.838407 32.5029 0.206787 31.7265 0.206787H15.4666C14.6906 0.206787 14.059 0.838407 14.059 1.6148V16.1612C14.059 16.9376 14.6906 17.5693 15.4666 17.5693H17.3753C17.4325 19.5846 19.0887 21.2068 21.1175 21.2068C23.1467 21.2068 24.8029 19.5846 24.8601 17.5693H32.6271H35.0573C35.1145 19.5846 36.7707 21.2068 38.7999 21.2068C40.8287 21.2068 42.4849 19.5846 42.5421 17.5693H43.84C44.6161 17.5693 45.2477 16.9376 45.2477 16.1612V10.8723C45.2477 6.9196 42.032 3.70393 38.0797 3.70393Z" fill="#1D1D1B"/>
<g id="Group 5">
<mask id="mask0_81_461" style="mask-type:luminance" maskUnits="userSpaceOnUse" x="0" y="16" width="13" height="2">
<path id="Clip 4" fill-rule="evenodd" clip-rule="evenodd" d="M0.695801 16.251H12.5154V17.2657H0.695801V16.251Z" fill="white"/>
</mask>
<g mask="url(#mask0_81_461)">
<path id="Fill 3" fill-rule="evenodd" clip-rule="evenodd" d="M12.008 16.251H6.60556H1.20312C0.923002 16.251 0.69574 16.4782 0.69574 16.7584C0.69574 17.0388 0.923002 17.2657 1.20312 17.2657H6.60556H12.008C12.2881 17.2657 12.5154 17.0388 12.5154 16.7584C12.5154 16.4782 12.2881 16.251 12.008 16.251Z" fill="#1D1D1B"/>
</g>
</g>
<path id="Fill 6" fill-rule="evenodd" clip-rule="evenodd" d="M12.008 12.1641H9.30679H6.60557H3.90436C3.62423 12.1641 3.39697 12.3913 3.39697 12.6714C3.39697 12.9519 3.62423 13.1788 3.90436 13.1788H6.60557H9.30679H12.008C12.2881 13.1788 12.5154 12.9519 12.5154 12.6714C12.5154 12.3913 12.2881 12.1641 12.008 12.1641Z" fill="#1D1D1B"/>
<path id="Fill 8" fill-rule="evenodd" clip-rule="evenodd" d="M12.008 8.07715H6.60559C6.32547 8.07715 6.09821 8.30441 6.09821 8.58453C6.09821 8.86499 6.32547 9.09191 6.60559 9.09191H12.008C12.2881 9.09191 12.5154 8.86499 12.5154 8.58453C12.5154 8.30441 12.2881 8.07715 12.008 8.07715Z" fill="#1D1D1B"/>
</g>
</svg>
