<svg width="20" height="20" viewBox="0 0 20 20" fill="none" xmlns="http://www.w3.org/2000/svg">
<g id="Group 22">
<path id="Fill 1" fill-rule="evenodd" clip-rule="evenodd" d="M5.12793 3.82959H5.99916V1.21286H5.12793V3.82959Z" fill="#1D1D1B" stroke="#1D1D1B" stroke-width="0.5"/>
<path id="Fill 2" fill-rule="evenodd" clip-rule="evenodd" d="M9.07471 3.82959H9.94593V1.21286H9.07471V3.82959Z" fill="#1D1D1B" stroke="#1D1D1B" stroke-width="0.5"/>
<path id="Fill 3" fill-rule="evenodd" clip-rule="evenodd" d="M13.0229 3.82959H13.894V1.21286H13.0229V3.82959Z" fill="#1D1D1B" stroke="#1D1D1B" stroke-width="0.5"/>
<path id="Fill 4" fill-rule="evenodd" clip-rule="evenodd" d="M2.28027 4.88853H4.89722V4.01752H2.28027V4.88853Z" fill="#1D1D1B" stroke="#1D1D1B" stroke-width="0.5"/>
<path id="Fill 5" fill-rule="evenodd" clip-rule="evenodd" d="M6.22803 4.88853H8.84541V4.01752H6.22803V4.88853Z" fill="#1D1D1B" stroke="#1D1D1B" stroke-width="0.5"/>
<path id="Fill 6" fill-rule="evenodd" clip-rule="evenodd" d="M5.12793 7.7352H5.99894V5.11826H5.12793V7.7352Z" fill="#1D1D1B" stroke="#1D1D1B" stroke-width="0.5"/>
<path id="Fill 7" fill-rule="evenodd" clip-rule="evenodd" d="M10.1758 4.88853H12.7925V4.01752H10.1758V4.88853Z" fill="#1D1D1B" stroke="#1D1D1B" stroke-width="0.5"/>
<path id="Fill 8" fill-rule="evenodd" clip-rule="evenodd" d="M14.0923 4.88853H16.709V4.01752H14.0923V4.88853Z" fill="#1D1D1B" stroke="#1D1D1B" stroke-width="0.5"/>
<path id="Fill 9" fill-rule="evenodd" clip-rule="evenodd" d="M9.07471 7.7352H9.94572V5.11826H9.07471V7.7352Z" fill="#1D1D1B" stroke="#1D1D1B" stroke-width="0.5"/>
<path id="Fill 10" fill-rule="evenodd" clip-rule="evenodd" d="M13.0229 7.7352H13.894V5.11826H13.0229V7.7352Z" fill="#1D1D1B" stroke="#1D1D1B" stroke-width="0.5"/>
<path id="Fill 11" fill-rule="evenodd" clip-rule="evenodd" d="M5.12793 15.2655H5.99894V12.6486H5.12793V15.2655Z" fill="#1D1D1B" stroke="#1D1D1B" stroke-width="0.5"/>
<path id="Fill 12" fill-rule="evenodd" clip-rule="evenodd" d="M5.12793 19.2129H5.99916V16.596H5.12793V19.2129Z" fill="#1D1D1B" stroke="#1D1D1B" stroke-width="0.5"/>
<path id="Fill 13" fill-rule="evenodd" clip-rule="evenodd" d="M9.07471 15.2655H9.94572V12.6486H9.07471V15.2655Z" fill="#1D1D1B" stroke="#1D1D1B" stroke-width="0.5"/>
<path id="Fill 14" fill-rule="evenodd" clip-rule="evenodd" d="M9.07471 19.2129H9.94593V16.596H9.07471V19.2129Z" fill="#1D1D1B" stroke="#1D1D1B" stroke-width="0.5"/>
<path id="Fill 15" fill-rule="evenodd" clip-rule="evenodd" d="M13.0229 15.2655H13.894V12.6486H13.0229V15.2655Z" fill="#1D1D1B" stroke="#1D1D1B" stroke-width="0.5"/>
<path id="Fill 16" fill-rule="evenodd" clip-rule="evenodd" d="M13.0229 19.2129H13.894V16.596H13.0229V19.2129Z" fill="#1D1D1B" stroke="#1D1D1B" stroke-width="0.5"/>
<path id="Fill 17" fill-rule="evenodd" clip-rule="evenodd" d="M2.28027 16.3665H4.89722V15.4955H2.28027V16.3665Z" fill="#1D1D1B" stroke="#1D1D1B" stroke-width="0.5"/>
<path id="Fill 18" fill-rule="evenodd" clip-rule="evenodd" d="M6.22803 16.3665H8.84541V15.4955H6.22803V16.3665Z" fill="#1D1D1B" stroke="#1D1D1B" stroke-width="0.5"/>
<path id="Fill 19" fill-rule="evenodd" clip-rule="evenodd" d="M10.1758 16.3665H12.7925V15.4955H10.1758V16.3665Z" fill="#1D1D1B" stroke="#1D1D1B" stroke-width="0.5"/>
<path id="Fill 20" fill-rule="evenodd" clip-rule="evenodd" d="M14.0923 16.3665H16.709V15.4955H14.0923V16.3665Z" fill="#1D1D1B" stroke="#1D1D1B" stroke-width="0.5"/>
<path id="Fill 21" fill-rule="evenodd" clip-rule="evenodd" d="M16.3258 8.75166L17.4439 9.86981H1.55604L2.67399 8.75166L2.10064 8.17831L0.00390625 10.2755L2.10064 12.3722L2.67399 11.7987L1.55604 10.6809H17.4439L16.3262 11.7987L16.8995 12.3722L18.9963 10.2755L16.8991 8.17831L16.3258 8.75166Z" fill="#1D1D1B" stroke="#1D1D1B" stroke-width="0.5"/>
</g>
</svg>
