<svg width="56" height="12" viewBox="0 0 56 12" fill="none" xmlns="http://www.w3.org/2000/svg">
<g id="Group 16">
<path id="Fill 23" fill-rule="evenodd" clip-rule="evenodd" d="M8.0149 2.70197C7.6166 2.30367 7.05349 2.09766 6.40797 2.09766C6.07834 2.09766 5.73498 2.15259 5.43282 2.2762C5.36415 2.30367 5.25427 2.33114 5.1856 2.37235C4.81477 2.55089 4.4302 2.85305 4.05937 3.22388L4.15551 2.1938H2.93314C2.90568 2.49596 2.87821 2.77065 2.86447 3.0728C2.80953 3.37496 2.76833 3.64965 2.71339 3.95181L0.982849 11.5744H2.31509L3.12543 8.08589C3.37265 8.44298 3.67481 8.71767 4.00443 8.89622C4.36153 9.07477 4.73236 9.17091 5.21307 9.17091H5.43282C5.941 9.11597 6.39423 8.99236 6.79253 8.74514C7.30071 8.47045 7.69901 8.07215 8.00117 7.53651C8.27586 7.11074 8.48187 6.60256 8.60548 6.02572C8.75656 5.44887 8.8115 4.89949 8.75656 4.39131C8.66042 3.67712 8.44067 3.10027 8.0149 2.70197ZM7.28697 5.73729C7.16336 6.218 6.98482 6.64377 6.76506 7.04207C6.54531 7.44037 6.25689 7.74253 5.941 7.94854C5.78992 8.01722 5.61137 8.09962 5.43282 8.15456C5.25427 8.2095 5.06199 8.22323 4.85597 8.22323C4.45767 8.22323 4.12804 8.09962 3.88082 7.86614C3.6336 7.61892 3.48252 7.31676 3.45505 6.90472C3.42759 6.54763 3.45505 6.12186 3.57867 5.57248C3.70228 5.05057 3.88082 4.56986 4.10058 4.15783C4.30659 3.75953 4.58128 3.4299 4.91091 3.19641C5.08946 3.10027 5.26801 2.9904 5.43282 2.94919C5.5839 2.89426 5.76245 2.88052 5.941 2.88052C6.33929 2.88052 6.69639 3.00413 6.97108 3.27882C7.2183 3.55351 7.36938 3.91061 7.42432 4.36384C7.43805 4.80335 7.41058 5.25659 7.28697 5.73729Z" fill="#014B98"/>
<path id="Fill 25" fill-rule="evenodd" clip-rule="evenodd" d="M40.8266 4.25434C40.7716 3.52642 40.5519 2.97704 40.1673 2.59247C39.7965 2.22164 39.2608 2.01562 38.6016 2.01562C38.1758 2.01562 37.7775 2.0843 37.4204 2.26285C37.3655 2.29031 37.3243 2.31778 37.2419 2.33152C36.9397 2.51007 36.665 2.72982 36.3629 3.00451L36.4178 2.18044H34.5362C34.4812 2.63368 34.3576 3.33413 34.1653 4.26808L32.5584 11.5611H34.6461L35.4564 7.96265C35.6624 8.33348 35.9371 8.63564 36.2805 8.81419C36.5551 8.96527 36.8848 9.06141 37.2556 9.08888C37.3243 9.08888 37.4342 9.11635 37.5028 9.11635C38.5604 9.11635 39.4119 8.63564 40.0437 7.68796C40.703 6.76775 40.9502 5.61406 40.8266 4.25434ZM38.684 5.55912C38.5878 6.01236 38.4368 6.43813 38.2582 6.82269C38.0797 7.17979 37.9011 7.42701 37.6814 7.60556C37.5578 7.7017 37.4067 7.78411 37.2556 7.81157C37.1595 7.83904 37.0496 7.86651 36.9534 7.86651C36.5963 7.86651 36.3217 7.7429 36.1294 7.50942C35.9096 7.28966 35.7997 6.96004 35.7585 6.53427C35.6899 5.7102 35.8272 4.9548 36.2393 4.26808C36.5139 3.78737 36.871 3.45775 37.2693 3.33413C37.4204 3.30667 37.544 3.2792 37.6951 3.2792C38.0247 3.2792 38.272 3.37534 38.478 3.58136C38.6565 3.7599 38.7801 4.03459 38.8076 4.40542C38.8076 4.73505 38.7939 5.10588 38.684 5.55912Z" fill="#014B98"/>
<path id="Fill 27" fill-rule="evenodd" clip-rule="evenodd" d="M47.0895 2.52343C46.6088 2.22127 45.9633 2.09766 45.0843 2.09766C44.8096 2.09766 44.5349 2.09766 44.2739 2.15259C43.752 2.22127 43.3125 2.37235 42.9417 2.60583C42.4335 2.96293 42.1313 3.4299 42.0901 4.06169H44.0816C44.1366 3.85567 44.1778 3.69086 44.2877 3.55351C44.3151 3.48484 44.3563 3.45737 44.4113 3.40243C44.5623 3.27882 44.7821 3.19641 45.0843 3.19641C45.3315 3.19641 45.5375 3.25135 45.6611 3.34749C45.8122 3.44363 45.8809 3.59471 45.9083 3.80073C45.9083 3.89687 45.9083 4.00675 45.8809 4.13036C45.8809 4.28144 45.8259 4.45999 45.7847 4.70721H45.565H45.2079C44.8782 4.70721 44.5486 4.70721 44.2739 4.73468C43.2988 4.80335 42.5434 5.03683 41.9803 5.39393C41.2798 5.84717 40.9502 6.50642 41.0188 7.35796C41.0738 7.90734 41.2661 8.33311 41.6506 8.66274C42.0215 8.99236 42.5022 9.17091 43.1065 9.17091C43.5323 9.17091 43.8894 9.07477 44.219 8.89622L44.2739 8.86875C44.5761 8.71767 44.8782 8.44298 45.1255 8.08589C45.1255 8.26444 45.098 8.41552 45.098 8.59406V9.07477H47.0071C47.0071 8.77261 47.0071 8.49792 47.0345 8.19576C47.0895 7.89361 47.1032 7.61892 47.1856 7.34423L47.7075 5.03683C47.7625 4.81708 47.8037 4.5836 47.8311 4.40505C47.8586 4.19903 47.8586 4.03422 47.8311 3.85567C47.7899 3.25135 47.5427 2.82558 47.0895 2.52343ZM44.8782 7.33049C44.6722 7.55024 44.4799 7.70132 44.2739 7.8112C44.1228 7.87987 43.9443 7.90734 43.7657 7.90734C43.546 7.90734 43.3674 7.8524 43.2438 7.72879C43.0928 7.60518 43.0241 7.42663 43.0241 7.20688C42.9691 6.80858 43.1477 6.45149 43.5735 6.1768C43.7795 6.02572 43.9992 5.92958 44.2739 5.84717C44.5211 5.7785 44.8233 5.75103 45.1529 5.75103H45.3727C45.4276 5.75103 45.4688 5.75103 45.5238 5.7785C45.4276 6.39655 45.1941 6.91846 44.8782 7.33049Z" fill="#014B98"/>
<path id="Fill 29" fill-rule="evenodd" clip-rule="evenodd" d="M48.1882 11.5473L49.8501 9.03387L48.6415 2.13916H50.7016L51.2785 6.87755L53.943 2.13916H55.907L51.6356 9.30856L50.3995 11.5473H48.1882Z" fill="#014B98"/>
<path id="Fill 31" fill-rule="evenodd" clip-rule="evenodd" d="M14.7448 2.59247C14.2641 2.22164 13.6323 2.01562 12.8357 2.01562C12.6159 2.01562 12.3824 2.01562 12.1764 2.04309C11.7781 2.09803 11.3661 2.19417 11.0502 2.31778C10.542 2.53754 10.1437 2.83969 9.81409 3.2792C9.457 3.7599 9.20978 4.30928 9.03123 4.96854C8.82521 5.62779 8.78401 6.23211 8.82521 6.82269C8.88015 7.55062 9.15484 8.12747 9.64928 8.52577C10.13 8.95154 10.7755 9.15755 11.5858 9.15755C11.7919 9.15755 11.9841 9.13008 12.1627 9.13008C12.6709 9.07515 13.0966 8.979 13.44 8.80046C13.9482 8.5807 14.3465 8.19614 14.7036 7.67423C15.0057 7.22099 15.2255 6.67161 15.3766 6.03983C15.5551 5.40804 15.5963 4.80372 15.5551 4.25434C15.5002 3.55389 15.2529 3.00451 14.7448 2.59247ZM14.0718 5.76514C13.9482 6.28705 13.7696 6.76775 13.5224 7.19352C13.3026 7.56435 13.0417 7.85278 12.7395 8.01759C12.5885 8.11373 12.3824 8.19614 12.1902 8.23734C12.0391 8.26481 11.888 8.29228 11.7095 8.29228C11.2562 8.29228 10.8991 8.16867 10.6244 7.92145C10.3772 7.67423 10.1987 7.3446 10.1712 6.89136C10.1437 6.49306 10.1712 6.01236 10.2948 5.46298C10.4184 4.9136 10.597 4.46036 10.8167 4.0758C11.0365 3.6775 11.3249 3.37534 11.627 3.14185C11.8056 3.04571 11.9979 2.9633 12.1764 2.9221C12.355 2.8809 12.506 2.85343 12.6846 2.85343C13.1653 2.85343 13.5087 2.97704 13.7696 3.22426C14.0168 3.44401 14.1679 3.82858 14.2229 4.35049C14.2503 4.76252 14.1954 5.21576 14.0718 5.76514Z" fill="#014B98"/>
<path id="Fill 33" fill-rule="evenodd" clip-rule="evenodd" d="M16.9561 6.79516C16.9011 6.91877 16.8874 7.01491 16.8874 7.12479C16.8599 7.22093 16.8599 7.30334 16.8874 7.37201C16.9149 7.6467 17.011 7.85272 17.217 7.97633C17.423 8.1274 17.6977 8.18234 18.096 8.18234C18.6179 8.18234 19.03 8.0862 19.3321 7.88018C19.6343 7.66043 19.7579 7.37201 19.7304 7.05612C19.7304 6.8501 19.6343 6.68528 19.4557 6.53421C19.2772 6.38313 18.9338 6.17711 18.3707 5.92989C17.6703 5.60026 17.1621 5.2981 16.8874 5.02341C16.5852 4.77619 16.4342 4.44656 16.4067 4.08947C16.3518 3.48515 16.5852 3.00444 17.0659 2.60614C17.5741 2.23531 18.2471 2.0293 19.0986 2.0293C19.8815 2.0293 20.4584 2.15291 20.8292 2.38639C21.2275 2.60614 21.4335 2.93577 21.4884 3.41648V3.6637C21.4884 3.73237 21.4884 3.86972 21.461 4.03453H20.2249V3.82851V3.64997C20.1974 3.40274 20.1013 3.19673 19.8952 3.07312C19.7167 2.94951 19.442 2.8671 19.0712 2.8671C18.6454 2.8671 18.3158 2.96324 18.096 3.14179C17.8488 3.32034 17.7389 3.56756 17.7664 3.86972C17.7939 4.04826 17.8625 4.22681 18.0411 4.35042C18.1922 4.5015 18.563 4.70752 19.1536 4.98221C19.9639 5.35304 20.5133 5.68267 20.733 5.94362C20.9528 6.19084 21.1039 6.52047 21.1313 6.90504C21.1863 7.53682 20.9253 8.0862 20.321 8.51197C19.7442 8.93774 18.9613 9.17123 18.0136 9.17123C17.2582 9.17123 16.6814 9.02015 16.2281 8.77292C15.8024 8.49824 15.5689 8.11367 15.5277 7.61923C15.5002 7.52309 15.5002 7.39948 15.5277 7.2484C15.5552 7.12479 15.5826 6.97371 15.5964 6.82263H16.9561V6.79516Z" fill="#014B98"/>
<path id="Fill 35" fill-rule="evenodd" clip-rule="evenodd" d="M25.238 9.06124C24.9907 9.08871 24.7573 9.11617 24.565 9.12991C24.359 9.12991 24.1667 9.15738 23.9881 9.15738C23.4799 9.15738 23.1091 9.08871 22.8756 8.91016C22.6284 8.75908 22.5048 8.48439 22.4773 8.09982C22.4499 7.97621 22.4773 7.74273 22.5048 7.46804C22.5323 7.16588 22.6009 6.86372 22.6559 6.53409L23.4387 3.11421H22.1614L22.3812 2.2352H23.6173L23.9744 0.669471L25.3066 0.339844L24.9083 2.22147H26.3917L26.1856 3.10047H24.7023L23.9469 6.67144C23.8782 6.94613 23.8233 7.15214 23.8233 7.27575C23.7958 7.42683 23.7684 7.52297 23.7958 7.60538C23.7958 7.8114 23.8645 7.93501 24.0019 8.00368C24.1255 8.09982 24.359 8.15476 24.6611 8.15476C24.7573 8.15476 24.9083 8.12729 25.0594 8.09982C25.183 8.09982 25.3341 8.04489 25.4577 8.03115L25.238 9.06124Z" fill="#014B98"/>
<path id="Fill 37" fill-rule="evenodd" clip-rule="evenodd" d="M31.8717 2.49597C31.4184 2.16634 30.7454 1.98779 29.8664 1.98779H29.5917C29.0698 2.04273 28.6166 2.13887 28.2046 2.35862C27.7238 2.57838 27.3255 2.96294 27.0234 3.41618C26.7487 3.89689 26.5015 4.47373 26.3504 5.11925C26.1719 5.79224 26.1306 6.39656 26.1719 6.9322C26.2268 7.63266 26.5015 8.19578 26.9547 8.56661C27.4354 8.93744 28.0672 9.14346 28.8638 9.14346C29.111 9.14346 29.372 9.11599 29.5917 9.08852C30.1411 9.01985 30.6218 8.8413 31.0201 8.56661C31.597 8.19578 31.9815 7.66013 32.1463 6.98714H30.663C30.5394 7.35797 30.3059 7.66013 30.0038 7.86615C29.8802 7.93482 29.7291 8.01723 29.578 8.07217C29.3995 8.14084 29.2072 8.16831 29.0012 8.16831C28.5204 8.16831 28.1771 8.0447 27.8887 7.81121C27.6414 7.59146 27.4904 7.26183 27.4354 6.83606C27.4354 6.68498 27.4354 6.50644 27.4629 6.32789C27.4904 6.12187 27.5178 5.95706 27.5865 5.75104H29.578H32.4897C32.5584 5.44888 32.6133 5.14672 32.6133 4.87203C32.6408 4.59734 32.6408 4.32265 32.6133 4.0617C32.5721 3.34751 32.2974 2.8256 31.8717 2.49597ZM31.3497 4.30892C31.3497 4.43253 31.3223 4.61108 31.2948 4.83083H29.578H27.82C27.9436 4.15784 28.1908 3.64966 28.5479 3.32004C28.8226 3.01788 29.1797 2.8668 29.578 2.81186C29.6467 2.81186 29.7565 2.78439 29.8252 2.78439C30.2785 2.78439 30.6356 2.908 30.9102 3.11402C31.1575 3.32004 31.3085 3.59473 31.336 3.96556C31.3635 4.07543 31.3635 4.18531 31.3497 4.30892Z" fill="#014B98"/>
</g>
</svg>
