<svg width="41" height="32" viewBox="0 0 41 32" fill="none" xmlns="http://www.w3.org/2000/svg">
<g id="Group 17">
<path id="Fill 41" fill-rule="evenodd" clip-rule="evenodd" d="M39.735 30.915H39.8435L39.8971 30.97V31.0235C39.8971 31.0235 39.8435 31.0235 39.8435 31.0771L39.9506 31.1856H39.8971L39.7886 31.0771H39.735V31.1856H39.6814V30.8615H39.735V30.915ZM39.735 31.2927H39.8435C39.8971 31.2927 39.8971 31.2392 39.8971 31.2392L39.9506 31.1856V31.0771V30.97C39.9506 30.915 39.8971 30.915 39.8971 30.915L39.8435 30.8615H39.735H39.6279C39.5729 30.8615 39.5729 30.915 39.5194 30.915C39.4658 30.915 39.4658 30.97 39.4658 30.97V31.0771V31.1856C39.4658 31.2392 39.5194 31.2392 39.5194 31.2392C39.5194 31.2392 39.5729 31.2927 39.6279 31.2927H39.735ZM39.735 30.753H39.8435C39.897 30.753 39.897 30.8079 39.9506 30.8079C40.0056 30.8615 40.0056 30.8615 40.0056 30.915V31.0235V31.1307C40.0056 31.1856 39.9506 31.1856 39.9506 31.2392C39.897 31.2927 39.897 31.2927 39.8435 31.2927H39.735H39.6279C39.5729 31.2927 39.5729 31.2392 39.5194 31.2392C39.4658 31.1856 39.4658 31.1856 39.4658 31.1307V31.0235V30.915C39.4658 30.8615 39.5194 30.8615 39.5194 30.8079C39.5729 30.753 39.5729 30.753 39.6279 30.753H39.735ZM9.34883 29.5663C9.34883 28.973 9.72653 28.5403 10.3212 28.5403C10.9146 28.5403 11.2923 28.973 11.2923 29.5663C11.2923 30.1596 10.9146 30.5909 10.3212 30.5909C9.72653 30.6458 9.34883 30.1596 9.34883 29.5663ZM11.9941 29.5663V27.947H11.2923V28.3783C11.0766 28.1091 10.7525 27.8935 10.2663 27.8935C9.34883 27.8935 8.64837 28.5939 8.64837 29.6199C8.64837 30.5909 9.34883 31.3477 10.2663 31.3477C10.7525 31.3477 11.0766 31.1856 11.2923 30.8615V31.2392H11.9941V29.5663ZM35.9031 29.5663C35.9031 28.973 36.2808 28.5403 36.8741 28.5403C37.4688 28.5403 37.8465 28.973 37.8465 29.5663C37.8465 30.1596 37.4688 30.5909 36.8741 30.5909C36.2808 30.6458 35.9031 30.1596 35.9031 29.5663ZM38.5483 29.5663V26.6519H37.8465V28.3783C37.6309 28.1091 37.3067 27.8935 36.8205 27.8935C35.9031 27.8935 35.2012 28.5939 35.2012 29.6199C35.2012 30.5909 35.9031 31.3477 36.8205 31.3477C37.3067 31.3477 37.6309 31.1856 37.8465 30.8615V31.2392H38.5483V29.5663ZM20.791 28.4868C21.2237 28.4868 21.5464 28.756 21.6014 29.2957H19.9271C19.9821 28.8109 20.3062 28.4868 20.791 28.4868ZM20.791 27.8935C19.82 27.8935 19.1717 28.5939 19.1717 29.6199C19.1717 30.6458 19.8736 31.3477 20.8446 31.3477C21.3308 31.3477 21.7634 31.2392 22.1947 30.915L21.8706 30.3753C21.6014 30.5909 21.2772 30.6994 20.8995 30.6994C20.4669 30.6994 20.0356 30.4838 19.9271 29.8904H22.3568V29.6199C22.3568 28.5939 21.7085 27.8935 20.791 27.8935ZM29.3723 29.5663C29.3723 28.973 29.75 28.5403 30.3447 28.5403C30.9381 28.5403 31.3158 28.973 31.3158 29.5663C31.3158 30.1596 30.9381 30.5909 30.3447 30.5909C29.75 30.6458 29.3723 30.1596 29.3723 29.5663ZM31.964 29.5663V27.947H31.2622V28.3783C31.0452 28.1091 30.7224 27.8935 30.2362 27.8935C29.3188 27.8935 28.6169 28.5939 28.6169 29.6199C28.6169 30.5909 29.3188 31.3477 30.2362 31.3477C30.7224 31.3477 31.0452 31.1856 31.2622 30.8615V31.2392H31.964V29.5663ZM25.3783 29.5663C25.3783 30.5373 26.0802 31.2927 27.1061 31.2927C27.5923 31.2927 27.9151 31.1856 28.2928 30.915L27.97 30.3217C27.6995 30.5373 27.4303 30.5909 27.1061 30.5909C26.5664 30.5909 26.1351 30.1596 26.1351 29.5663C26.1351 28.973 26.5664 28.5403 27.1061 28.5403C27.4303 28.5403 27.6995 28.6488 27.97 28.8109L28.2928 28.2162C27.9151 27.947 27.5923 27.8385 27.1061 27.8385C26.0266 27.8935 25.3783 28.5939 25.3783 29.5663ZM34.4994 27.8935C34.0681 27.8935 33.8525 28.1091 33.6369 28.3783V28.0006H32.935V31.2392H33.6369V29.4042C33.6369 28.8645 33.8525 28.5403 34.3387 28.5403C34.4994 28.5403 34.6079 28.5403 34.77 28.6488L34.9856 28.0006C34.8235 27.8935 34.6079 27.8935 34.4994 27.8935ZM15.5019 28.2162C15.1777 28.0006 14.6929 27.8935 14.1531 27.8935C13.3428 27.8935 12.803 28.2712 12.803 28.918C12.803 29.4578 13.1807 29.7819 13.9375 29.8904L14.2603 29.944C14.638 29.9976 14.855 30.1061 14.855 30.2681C14.855 30.5373 14.5844 30.6458 14.0982 30.6458C13.6134 30.6458 13.2357 30.4838 13.0201 30.3217L12.6959 30.8615C13.0736 31.1307 13.5598 31.2927 14.0982 31.2927C15.017 31.2927 15.6104 30.8615 15.6104 30.2132C15.6104 29.6199 15.1777 29.3507 14.4773 29.2422L14.1531 29.1886C13.829 29.1337 13.6134 29.0801 13.6134 28.8645C13.6134 28.6488 13.829 28.4868 14.2067 28.4868C14.638 28.4868 15.0157 28.6488 15.2327 28.756L15.5019 28.2162ZM24.6229 27.8935C24.1917 27.8935 23.976 28.1091 23.759 28.3783V28.0006H23.0586V31.2392H23.759V29.4042C23.759 28.8645 23.976 28.5403 24.4609 28.5403C24.6229 28.5403 24.7314 28.5403 24.8935 28.6488L25.1091 28.0006C25.0006 27.8935 24.785 27.8935 24.6229 27.8935ZM18.5784 27.947H17.4453V26.976H16.7435V27.947H16.0952V28.5939H16.7435V30.1061C16.7435 30.8615 17.0127 31.2927 17.8766 31.2927C18.2007 31.2927 18.5248 31.1856 18.7405 31.0235L18.5248 30.4302C18.3092 30.5373 18.0922 30.5909 17.8766 30.5909C17.4989 30.5909 17.3917 30.3753 17.3917 30.0511V28.5939H18.5248V27.947H18.5784ZM8.0001 31.2392V29.1886C8.0001 28.4332 7.5139 27.8935 6.70494 27.8935C6.27368 27.8935 5.84104 28.0006 5.57185 28.4868C5.35484 28.1091 4.97714 27.8935 4.49232 27.8935C4.16818 27.8935 3.79049 28.0006 3.51992 28.3783V28.0006H2.81946V31.2392H3.51992V29.4578C3.51992 28.918 3.84405 28.5939 4.33025 28.5939C4.81645 28.5939 5.03208 28.918 5.03208 29.4578V31.2927H5.73391V29.5127C5.73391 28.973 6.05667 28.6488 6.54287 28.6488C7.02908 28.6488 7.24471 28.973 7.24471 29.5127V31.3477H8.0001V31.2392Z" fill="#231F20"/>
<path id="Fill 43" fill-rule="evenodd" clip-rule="evenodd" d="M40.1123 20.4125V19.9263H40.0051L39.8431 20.2504L39.681 19.9263H39.5725V20.4125H39.681V20.0348L39.7895 20.3589H39.8966L40.0051 20.0348V20.4125H40.1123ZM39.3033 20.4125V20.0348H39.4654V19.9812H39.0341V20.0348H39.1948V20.4125H39.3033Z" fill="#F3941E"/>
<path id="Fill 45" fill-rule="evenodd" clip-rule="evenodd" d="M15.319 22.4207H26.0264V3.16357H15.319V22.4207Z" fill="#EA631E"/>
<path id="Fill 47" fill-rule="evenodd" clip-rule="evenodd" d="M15.9878 12.7812C15.9878 8.89571 17.8227 5.38655 20.6836 3.12036C18.5781 1.50106 15.9878 0.475098 13.1269 0.475098C6.38051 0.475098 0.875732 5.98125 0.875732 12.7276C0.875732 19.474 6.32695 25.0323 13.0733 25.0323C15.9342 25.0323 18.5781 24.0613 20.6287 22.3885C17.8227 20.1758 15.9878 16.7216 15.9878 12.7812Z" fill="#E31924"/>
<path id="Fill 49" fill-rule="evenodd" clip-rule="evenodd" d="M40.491 12.781C40.491 19.5274 34.9863 25.0322 28.2399 25.0322C25.379 25.0322 22.7351 24.0612 20.6832 22.3883C23.5441 20.1207 25.379 16.6665 25.379 12.7275C25.379 8.78706 23.5441 5.33284 20.6832 3.06665C22.7887 1.44735 25.379 0.421387 28.2399 0.421387C34.9863 0.529889 40.491 6.03467 40.491 12.781Z" fill="#F49E22"/>
</g>
</svg>
