<svg width="50" height="17" viewBox="0 0 50 17" fill="none" xmlns="http://www.w3.org/2000/svg">
<g id="Group 18">
<path id="Fill 67" fill-rule="evenodd" clip-rule="evenodd" d="M14.5376 0.834961L10.6095 11.4242L10.1975 9.28166C9.24979 6.71332 7.39564 4.36472 4.64874 2.79899L8.23344 16.3549H12.4774L18.7953 0.848695H14.5376" fill="#0F5AA1"/>
<path id="Fill 69" fill-rule="evenodd" clip-rule="evenodd" d="M17.9025 16.3549L20.4022 0.834961H24.4127L21.8993 16.3549H17.9025Z" fill="#0F5AA1"/>
<path id="Fill 71" fill-rule="evenodd" clip-rule="evenodd" d="M36.4441 1.20564C35.6475 0.889749 34.3976 0.546387 32.8594 0.546387C28.8901 0.546387 26.102 2.64776 26.0883 5.66935C26.0608 7.90807 28.0798 9.14417 29.6043 9.88583C31.17 10.655 31.6919 11.1357 31.6782 11.8087C31.6645 12.8525 30.4284 13.3195 29.2747 13.3195C27.6677 13.3195 26.8162 13.086 25.5114 12.5091L24.9758 12.2756L24.4127 15.7505C25.3466 16.19 27.0771 16.5608 28.8764 16.5745C33.0791 16.5745 35.826 14.4869 35.8535 11.273C35.8672 9.50127 34.7959 8.15529 32.4748 7.05653C31.0739 6.34234 30.2086 5.86163 30.2223 5.1337C30.2223 4.48818 30.9503 3.80146 32.5297 3.80146C33.8482 3.77399 34.7822 4.07615 35.5239 4.39204L35.8809 4.57059L36.4441 1.20564Z" fill="#0F5AA1"/>
<path id="Fill 73" fill-rule="evenodd" clip-rule="evenodd" d="M46.7312 0.848633H43.6409C42.6795 0.848633 41.9653 1.12332 41.5396 2.13967L35.5925 16.3686H39.809C39.809 16.3686 40.4957 14.4595 40.6468 14.0337C41.1138 14.0337 45.1929 14.0475 45.7835 14.0475C45.9071 14.5831 46.278 16.3686 46.278 16.3686H50L46.7312 0.848633ZM41.7868 10.8473C42.1164 9.95459 43.3937 6.50724 43.3937 6.50724C43.3662 6.54844 43.7096 5.60076 43.9294 5.02391L44.1903 6.36989C44.1903 6.36989 44.9594 10.0782 45.1243 10.8473H41.7868Z" fill="#0F5AA1"/>
<path id="Fill 75" fill-rule="evenodd" clip-rule="evenodd" d="M6.96986 0.834961H0.50092L0.459717 1.09592C5.48654 2.38696 8.79654 5.54589 10.1837 9.26793L8.78281 2.13974C8.54932 1.16459 7.84887 0.876164 6.96986 0.834961Z" fill="#F6A523"/>
</g>
</svg>
