<svg width="55" height="14" viewBox="0 0 55 14" fill="none" xmlns="http://www.w3.org/2000/svg">
<g id="Group 4">
<path id="Fill 3" fill-rule="evenodd" clip-rule="evenodd" d="M41.5943 3.34473H38.614C38.4079 3.34473 38.2431 3.49581 38.2157 3.68809L37.0208 11.297C36.9933 11.4481 37.1169 11.5854 37.268 11.5854H38.7925C38.9298 11.5854 39.0535 11.4893 39.0809 11.3382L39.4243 9.18188C39.4518 8.97586 39.6303 8.83852 39.8363 8.83852H40.784C42.7343 8.83852 43.8605 7.89084 44.1627 6.02295C44.3 5.19888 44.1627 4.55336 43.7781 4.10012C43.3249 3.60568 42.5832 3.34473 41.5943 3.34473ZM41.924 6.11909C41.7591 7.19038 40.9488 7.19038 40.1659 7.19038H39.7127L40.0286 5.19888C40.0561 5.07527 40.1522 4.99286 40.2758 4.99286H40.4818C41.0175 4.99286 41.5257 4.99286 41.7866 5.29502C41.9377 5.4873 41.9926 5.74826 41.924 6.11909Z" fill="#1395D3"/>
<path id="Fill 5" fill-rule="evenodd" clip-rule="evenodd" d="M20.4158 3.34473H17.4492C17.2431 3.34473 17.0783 3.49581 17.0371 3.68809L15.8422 11.297C15.8148 11.4481 15.9384 11.5854 16.0894 11.5854H17.5041C17.7101 11.5854 17.8749 11.4481 17.9161 11.2421L18.232 9.19561C18.2595 8.9896 18.438 8.85225 18.6441 8.85225H19.578C21.5283 8.85225 22.6683 7.90457 22.9567 6.03668C23.094 5.21262 22.9567 4.5671 22.5721 4.11386C22.1601 3.60568 21.4047 3.34473 20.4158 3.34473ZM20.7454 6.11909C20.5806 7.19038 19.7703 7.19038 18.9874 7.19038H18.5342L18.8501 5.19888C18.8638 5.07527 18.9737 4.99286 19.0973 4.99286H19.3033C19.839 4.99286 20.3471 4.99286 20.6081 5.29502C20.7592 5.4873 20.8141 5.74826 20.7454 6.11909Z" fill="#0B569C"/>
<path id="Fill 7" fill-rule="evenodd" clip-rule="evenodd" d="M29.2883 6.09187H27.8599C27.7363 6.09187 27.6401 6.17428 27.6127 6.29789L27.5577 6.69619L27.4616 6.55884C27.1594 6.11934 26.4727 5.96826 25.786 5.96826C24.2202 5.96826 22.8743 7.16316 22.6133 8.82503C22.476 9.66284 22.6683 10.4457 23.1352 11.0088C23.561 11.517 24.1928 11.723 24.9344 11.723C26.198 11.723 26.8985 10.9127 26.8985 10.9127L26.8298 11.311C26.8023 11.4621 26.9259 11.5994 27.077 11.5994H28.3543C28.5603 11.5994 28.7389 11.4621 28.7664 11.256L29.5355 6.39403C29.5492 6.22922 29.4394 6.09187 29.2883 6.09187ZM27.3105 8.86624C27.1732 9.67657 26.5276 10.2259 25.7036 10.2259C25.2915 10.2259 24.9619 10.0886 24.7422 9.84138C24.5361 9.59416 24.4537 9.23707 24.5224 8.83877C24.646 8.02843 25.3053 7.46532 26.1156 7.46532C26.5276 7.46532 26.8435 7.60266 27.0633 7.84989C27.283 8.11084 27.3654 8.46794 27.3105 8.86624Z" fill="#0B569C"/>
<path id="Fill 9" fill-rule="evenodd" clip-rule="evenodd" d="M50.4668 6.09187H49.0384C48.9148 6.09187 48.8187 6.17428 48.7912 6.29789L48.7225 6.69619L48.6264 6.55884C48.3242 6.11934 47.6375 5.96826 46.9508 5.96826C45.385 5.96826 44.0391 7.16316 43.7781 8.82503C43.6408 9.66284 43.833 10.4457 44.3 11.0088C44.7395 11.517 45.3576 11.723 46.0992 11.723C47.3628 11.723 48.0633 10.9127 48.0633 10.9127L47.9946 11.311C47.9671 11.4621 48.0907 11.5994 48.2418 11.5994H49.5191C49.7251 11.5994 49.89 11.4621 49.9312 11.256L50.7003 6.39403C50.7278 6.22922 50.6179 6.09187 50.4668 6.09187ZM48.4753 8.86624C48.338 9.67657 47.6924 10.2259 46.8684 10.2259C46.4563 10.2259 46.1267 10.0886 45.907 9.84138C45.7009 9.59416 45.6185 9.23707 45.6872 8.83877C45.8108 8.02843 46.4701 7.46532 47.2804 7.46532C47.6787 7.46532 48.0083 7.60266 48.2281 7.84989C48.4616 8.11084 48.544 8.46794 48.4753 8.86624Z" fill="#1395D3"/>
<path id="Fill 11" fill-rule="evenodd" clip-rule="evenodd" d="M36.856 6.09186H35.4276C35.2902 6.09186 35.1666 6.16053 35.0842 6.27041L33.1065 9.16838L32.2686 6.38028C32.2137 6.20174 32.0489 6.07812 31.8703 6.07812H30.4694C30.3046 6.07812 30.181 6.24294 30.2359 6.40775L31.8017 11.0225L30.3184 13.1102C30.1947 13.275 30.3184 13.4947 30.5106 13.4947H31.939C32.0764 13.4947 32.2 13.4261 32.2824 13.3162L37.0345 6.46269C37.1719 6.31161 37.062 6.09186 36.856 6.09186Z" fill="#0B569C"/>
<path id="Fill 13" fill-rule="evenodd" clip-rule="evenodd" d="M52.1424 3.55074L50.92 11.297C50.8926 11.4481 51.0162 11.5854 51.1673 11.5854H52.3896C52.5956 11.5854 52.7605 11.4481 52.8017 11.2421L54.0103 3.63315C54.0378 3.48207 53.9142 3.34473 53.7631 3.34473H52.3896C52.266 3.34473 52.1561 3.42713 52.1424 3.55074Z" fill="#1395D3"/>
<path id="Fill 15" fill-rule="evenodd" clip-rule="evenodd" d="M10.005 3.74318C10.1699 2.72683 10.005 2.02637 9.45566 1.40832C8.85134 0.721592 7.75259 0.419434 6.35167 0.419434H2.27253C1.98411 0.419434 1.75062 0.625451 1.69568 0.913875L0.00634057 11.668C-0.0348629 11.874 0.129951 12.0663 0.349703 12.0663H2.86311L2.68456 13.165C2.65709 13.3573 2.79444 13.5221 2.98672 13.5221H5.10183C5.34905 13.5221 5.5688 13.3436 5.61001 13.0964L5.62374 12.9865L6.02204 10.4593L6.04951 10.322C6.09071 10.0748 6.29673 9.89622 6.54395 9.89622H6.85984C8.92002 9.89622 10.5269 9.05842 10.9939 6.65489C11.1862 5.65227 11.0901 4.80073 10.5682 4.21015C10.4308 4.01787 10.2385 3.86679 10.005 3.74318Z" fill="#1395D3"/>
<path id="Fill 17" fill-rule="evenodd" clip-rule="evenodd" d="M10.005 3.74318C10.1699 2.72683 10.005 2.02637 9.45566 1.40832C8.85134 0.721592 7.75259 0.419434 6.35167 0.419434H2.27253C1.98411 0.419434 1.75062 0.625451 1.69568 0.913875L0.00634057 11.668C-0.0348629 11.874 0.129951 12.0663 0.349703 12.0663H2.86311L3.4949 8.0558L3.46743 8.17941C3.52237 7.90472 3.75585 7.68497 4.04428 7.68497H5.23918C7.58777 7.68497 9.42819 6.73729 9.96384 3.97666C9.97757 3.89426 9.99131 3.82558 10.005 3.74318Z" fill="#004A90"/>
<path id="Fill 19" fill-rule="evenodd" clip-rule="evenodd" d="M4.18162 3.75685C4.20909 3.5783 4.31897 3.44096 4.47005 3.37228C4.53872 3.34481 4.60739 3.31735 4.6898 3.31735H7.8762C8.24703 3.31735 8.60412 3.34481 8.93375 3.39975C9.02989 3.41349 9.1123 3.42722 9.20844 3.45469C9.29085 3.46843 9.37325 3.49589 9.45566 3.52336C9.49686 3.5371 9.53807 3.55083 9.57927 3.56457C9.74409 3.6195 9.88143 3.67444 10.0188 3.75685C10.1836 2.7405 10.0188 2.04004 9.4694 1.42199C8.86508 0.735264 7.76632 0.433105 6.3654 0.433105H2.27253C1.98411 0.433105 1.75062 0.639123 1.69568 0.927547L0.00634057 11.6816C-0.0348629 11.8877 0.129951 12.0799 0.349703 12.0799H2.86311L3.4949 8.06947L4.18162 3.75685Z" fill="#0B569C"/>
</g>
</svg>
