<svg width="74" height="19" viewBox="0 0 74 19" fill="none" xmlns="http://www.w3.org/2000/svg">
<g id="Group-6">
<path id="Fill-4" fill-rule="evenodd" clip-rule="evenodd" d="M52.256 4.4248H56.284C57.6205 4.4248 58.6228 4.77748 59.2354 5.44572C59.7551 6.05826 59.9407 6.93068 59.7551 8.0444C59.3467 10.5688 57.8247 11.8496 55.1888 11.8496H53.9081C53.6296 11.8496 53.3883 12.0352 53.3512 12.3137L52.8872 15.2279C52.85 15.4321 52.683 15.562 52.4974 15.562H50.437C50.2328 15.562 50.0657 15.3764 50.1029 15.1722L51.7177 4.88886C51.7549 4.62899 51.9776 4.4248 52.256 4.4248ZM54.3536 9.62217C55.4116 9.62217 56.5067 9.62217 56.7295 8.17433C56.8223 7.67316 56.7481 7.32048 56.5439 7.06061C56.1912 6.65225 55.5044 6.65225 54.7805 6.65225H54.5021C54.335 6.65225 54.2051 6.76362 54.1679 6.93068L53.741 9.62217H54.3536Z" fill="#0C96D4"/>
<path id="Fill-6" fill-rule="evenodd" clip-rule="evenodd" d="M23.6516 4.4248H27.661C28.9974 4.4248 30.0183 4.77748 30.5752 5.46428C31.0949 6.07682 31.2806 6.94924 31.0949 8.06296C30.7051 10.5874 29.1645 11.8682 26.5287 11.8682H25.2665C24.988 11.8682 24.7467 12.0538 24.7096 12.3322L24.2827 15.098C24.227 15.3764 24.0042 15.562 23.7258 15.562H21.8139C21.6097 15.562 21.4427 15.3764 21.4798 15.1722L23.0947 4.88886C23.1504 4.62899 23.3731 4.4248 23.6516 4.4248ZM25.7305 9.62217C26.7885 9.62217 27.8837 9.62217 28.1064 8.17433C28.1993 7.67316 28.125 7.32048 27.9208 7.06061C27.5681 6.65225 26.8814 6.65225 26.1574 6.65225H25.879C25.7119 6.65225 25.5634 6.76362 25.5449 6.93068L25.118 9.62217H25.7305Z" fill="#05559C"/>
<path id="Fill-8" fill-rule="evenodd" clip-rule="evenodd" d="M37.7212 8.13721H39.6516C39.8558 8.13721 40.0043 8.32283 39.9857 8.54558L38.9463 15.1165C38.9091 15.395 38.6678 15.5806 38.3894 15.5806H36.6631C36.4589 15.5806 36.2919 15.395 36.329 15.1908L36.4218 14.6525C36.4218 14.6525 35.4752 15.7476 33.7675 15.7476C32.7651 15.7476 31.9113 15.4692 31.3358 14.7824C30.7047 14.0214 30.4449 12.9633 30.6305 11.8311C30.9832 9.58505 32.8022 7.97015 34.9183 7.97015C35.8464 7.97015 36.7745 8.17434 37.1829 8.76832L37.3128 8.95394L37.387 8.41564C37.4242 8.24858 37.5541 8.13721 37.7212 8.13721ZM34.8069 13.7244C35.9206 13.7244 36.7931 12.9819 36.9787 11.8867C37.0529 11.3484 36.9416 10.8658 36.6446 10.5132C36.3476 10.179 35.9206 9.99341 35.3638 9.99341C34.2686 9.99341 33.3777 10.7545 33.2106 11.8496C33.1178 12.3879 33.2292 12.8705 33.5076 13.2046C33.8046 13.5388 34.2501 13.7244 34.8069 13.7244Z" fill="#05559C"/>
<path id="Fill-10" fill-rule="evenodd" clip-rule="evenodd" d="M66.3442 8.13721H68.2747C68.4789 8.13721 68.6273 8.32283 68.5902 8.54558L67.5508 15.1165C67.4951 15.395 67.2723 15.5806 66.9939 15.5806H65.2676C65.0634 15.5806 64.8964 15.395 64.9335 15.1908L65.0263 14.6525C65.0263 14.6525 64.0797 15.7476 62.3719 15.7476C61.3696 15.7476 60.5343 15.4692 59.9403 14.7824C59.3092 14.0214 59.0493 12.9633 59.235 11.8311C59.5876 9.58505 61.4067 7.97015 63.5228 7.97015C64.4509 7.97015 65.379 8.17434 65.7874 8.76832L65.9173 8.95394L66.0101 8.41564C66.0472 8.24858 66.1772 8.13721 66.3442 8.13721ZM63.4114 13.7244C64.5251 13.7244 65.3976 12.9819 65.5832 11.8867C65.676 11.3484 65.5646 10.8658 65.2491 10.5132C64.9521 10.179 64.5066 9.99341 63.9683 9.99341C62.8731 9.99341 61.9821 10.7545 61.8151 11.8496C61.7223 12.3879 61.8336 12.8705 62.1121 13.2046C62.4091 13.5388 62.8546 13.7244 63.4114 13.7244Z" fill="#0C96D4"/>
<path id="Fill-12" d="M49.8798 8.13697H47.9494C47.7637 8.13697 47.5967 8.22978 47.4853 8.37828L44.8124 12.2949L43.6801 8.52677C43.6058 8.28547 43.3831 8.11841 43.1418 8.11841H41.2485C41.0257 8.11841 40.8587 8.34115 40.9329 8.5639L43.049 14.8007L41.0443 17.6222C40.8772 17.8449 41.0443 18.1419 41.3042 18.1419H43.2346C43.4202 18.1419 43.5873 18.0491 43.6987 17.9006L50.1211 8.63814C50.3067 8.43396 50.1582 8.13697 49.8798 8.13697" fill="#05559C"/>
<path id="Fill-14" d="M70.5391 4.70287L68.887 15.1718C68.8499 15.376 69.017 15.5617 69.2211 15.5617H70.8732C71.1516 15.5617 71.3743 15.376 71.43 15.0976L73.0635 4.81424C73.1006 4.61006 72.9336 4.42444 72.7294 4.42444H70.8732C70.7061 4.42444 70.5576 4.53581 70.5391 4.70287" fill="#0C96D4"/>
<path id="Fill-16" d="M13.5906 4.96308C13.8133 3.58949 13.5906 2.64283 12.8481 1.80753C12.0314 0.879434 10.5464 0.471069 8.65307 0.471069H3.14015C2.75035 0.471069 2.43479 0.7495 2.36055 1.1393L0.0774169 15.6734C0.0217308 15.9518 0.244475 16.2117 0.541467 16.2117H3.93832L3.69701 17.6966C3.65989 17.9565 3.84551 18.1792 4.10538 18.1792H6.96393C7.29804 18.1792 7.59504 17.9379 7.65072 17.6038L7.66928 17.4553L8.20758 14.0399L8.24471 13.8543C8.30039 13.5202 8.57882 13.2789 8.91294 13.2789H9.33986C12.1242 13.2789 14.2959 12.1466 14.927 8.89823C15.1869 7.5432 15.057 6.39235 14.3516 5.59419C14.166 5.33432 13.9061 5.13014 13.5906 4.96308" fill="#0C96D4"/>
<path id="Fill-18" d="M13.5906 4.96308C13.8133 3.58949 13.5906 2.64283 12.8481 1.80753C12.0314 0.879434 10.5464 0.471069 8.65307 0.471069H3.14015C2.75035 0.471069 2.43479 0.7495 2.36055 1.1393L0.0774169 15.6734C0.0217308 15.9518 0.244475 16.2117 0.541467 16.2117H3.93832L4.79217 10.7916L4.75505 10.9586C4.82929 10.5874 5.14485 10.2904 5.53465 10.2904H7.14955C10.3237 10.2904 12.811 9.0096 13.5349 5.27863C13.5534 5.16726 13.572 5.07445 13.5906 4.96308" fill="#004A90"/>
<path id="Fill-20" d="M5.72076 4.98108C5.75788 4.73978 5.90638 4.55416 6.11056 4.46135C6.20337 4.42422 6.29618 4.3871 6.40755 4.3871H10.7139C11.2151 4.3871 11.6977 4.42422 12.1432 4.49847C12.2732 4.51703 12.3845 4.5356 12.5145 4.57272C12.6258 4.59128 12.7372 4.62841 12.8486 4.66553C12.9043 4.68409 12.9599 4.70265 13.0156 4.72122C13.2384 4.79546 13.424 4.86971 13.6096 4.98108C13.8324 3.60749 13.6096 2.66083 12.8671 1.82554C12.0504 0.897439 10.5654 0.489075 8.67212 0.489075H3.14064C2.75084 0.489075 2.43528 0.767505 2.36103 1.15731L0.0779052 15.6914C0.0222191 15.9698 0.244963 16.2297 0.541956 16.2297H3.93881L4.79266 10.8096L5.72076 4.98108Z" fill="#05559C"/>
</g>
</svg>
