<svg width="20" height="22" viewBox="0 0 20 22" fill="none" xmlns="http://www.w3.org/2000/svg">
<g id="Group 3">
<mask id="mask0_0_702" style="mask-type:luminance" maskUnits="userSpaceOnUse" x="0" y="0" width="20" height="22">
<path id="Clip 2" fill-rule="evenodd" clip-rule="evenodd" d="M0.102539 0.731445H19.4489V21.7314H0.102539V0.731445Z" fill="white"/>
</mask>
<g mask="url(#mask0_0_702)">
<path id="Fill 1" fill-rule="evenodd" clip-rule="evenodd" d="M18.6505 20.933H0.901037V8.9828H7.00913V13.2419C7.00913 13.4625 7.18794 13.6411 7.40834 13.6411H11.7556C11.976 13.6411 12.1548 13.4625 12.1548 13.2419V8.9828H18.6505V20.933ZM3.08382 1.53006H7.56543L7.04251 8.18412H1.04196L3.08382 1.53006ZM7.80781 12.8429H11.3564V8.9828H7.80781V12.8429ZM8.36622 1.53006H10.8007L11.3238 8.18412H7.84331L8.36622 1.53006ZM16.4677 1.53006L18.5096 8.18412H12.1246L11.6017 1.53006H16.4677ZM19.447 8.54359C19.4463 8.53644 19.4449 8.52955 19.4439 8.5224C19.4428 8.51683 19.4423 8.51101 19.4412 8.50518C19.4383 8.49061 19.4346 8.47657 19.4301 8.46253L17.1443 1.0135C17.0929 0.845822 16.9382 0.731384 16.7628 0.731384H11.1699H7.99721H2.78872C2.61336 0.731384 2.45866 0.845822 2.40727 1.0135L0.121432 8.46253C0.116929 8.47657 0.113221 8.49061 0.110307 8.50518C0.109247 8.51101 0.108717 8.51683 0.107658 8.5224C0.106598 8.52955 0.105274 8.53644 0.104479 8.54359C0.103154 8.55816 0.10236 8.57273 0.102625 8.58703V21.3322C0.102625 21.5529 0.281433 21.7314 0.501831 21.7314H19.0497C19.2701 21.7314 19.4489 21.5529 19.4489 21.3322V8.58703C19.4492 8.57273 19.4484 8.55816 19.447 8.54359V8.54359Z" fill="#1D1D1B"/>
</g>
</g>
</svg>
